{"glyphs":{"0":{"ha":694,"x_min":153,"x_max":825,"o":"m 153 170 q 193 41 153 92 q 313 -11 232 -9 q 488 46 397 -9 q 652 184 576 100 q 777 368 729 271 q 825 550 823 464 q 789 685 825 633 q 661 736 750 734 q 490 684 576 734 q 325 547 401 632 q 201 364 249 463 q 153 170 153 265 l 153 170 m 236 164 q 368 534 240 367 q 494 665 428 615 q 622 714 561 713 q 717 668 689 713 q 742 559 742 625 q 607 186 737 350 q 477 61 547 109 q 336 11 406 11 q 258 58 281 11 q 236 164 236 101 l 236 164 z "},"1":{"ha":514,"x_min":150,"x_max":717,"o":"m 150 -11 l 150 -11 l 264 11 q 717 730 473 376 l 711 736 q 258 498 513 571 l 264 484 q 553 611 424 529 l 555 608 l 150 -11 z "},"2":{"ha":694,"x_min":7,"x_max":794,"o":"m 690 229 q 614 113 665 174 q 559 65 589 83 q 496 45 529 45 q 443 58 475 45 q 376 83 411 69 q 311 110 343 98 q 253 121 278 121 q 205 111 228 121 q 161 90 182 101 l 158 96 q 354 196 245 151 q 561 288 461 239 q 728 406 661 336 q 794 574 793 473 q 743 694 794 642 q 583 747 692 746 q 390 672 458 745 q 322 522 322 600 q 416 416 323 418 q 518 477 485 418 l 513 482 q 488 472 498 476 q 460 467 476 467 q 401 496 424 467 q 378 559 378 522 q 396 631 378 600 q 440 682 412 661 q 561 725 497 725 q 669 680 632 724 q 705 565 705 637 q 694 484 705 524 q 648 401 682 443 q 400 236 585 321 q 8 3 7 52 q 17 -11 7 -9 q 35 3 25 -9 q 61 33 45 17 q 106 64 78 52 q 172 77 134 77 q 241 64 208 75 q 302 33 273 52 q 362 4 333 18 q 418 -11 391 -9 q 514 12 471 -11 q 591 68 557 35 q 700 228 661 142 l 690 229 z "},"3":{"ha":694,"x_min":74,"x_max":831,"o":"m 378 367 q 457 372 418 372 q 589 241 587 370 q 504 71 586 132 q 314 5 422 5 q 197 40 241 5 q 149 140 149 74 q 180 237 149 204 q 252 269 208 269 q 271 267 262 269 l 272 272 q 197 302 241 301 q 107 262 139 301 q 74 165 74 224 q 96 93 74 125 q 149 36 115 60 q 313 -11 220 -9 q 561 58 456 -9 q 672 239 669 125 q 631 349 671 311 q 519 389 590 386 l 519 391 q 730 453 636 404 q 804 513 777 477 q 831 596 831 549 q 789 703 831 660 q 654 747 746 746 q 496 690 558 746 q 428 558 429 636 q 452 497 428 522 q 513 469 472 469 q 572 488 547 469 q 597 530 596 505 q 549 519 575 519 q 500 546 517 519 q 484 602 484 571 q 532 693 485 660 q 632 725 576 725 q 720 689 690 724 q 747 596 747 651 q 709 485 746 524 q 668 452 692 464 q 614 427 643 437 q 557 412 586 418 q 494 401 526 406 q 378 389 431 395 l 378 367 z "},"4":{"ha":694,"x_min":109,"x_max":855,"o":"m 855 717 l 777 708 l 492 277 l 153 277 l 153 282 l 836 846 l 800 846 l 109 260 l 482 260 l 311 0 l 408 14 l 565 260 l 734 260 l 745 277 l 575 277 l 855 717 z "},"5":{"ha":694,"x_min":98,"x_max":890,"o":"m 664 736 l 314 379 l 321 374 q 393 407 355 393 q 471 419 431 419 q 591 293 591 416 q 519 94 590 178 q 325 5 447 7 q 174 150 176 7 q 204 236 174 204 q 278 269 232 268 q 304 267 292 269 l 306 272 q 225 309 272 307 q 135 269 168 307 q 98 172 98 231 q 171 35 100 81 q 328 -11 239 -11 q 567 81 463 -8 q 675 283 672 167 q 497 441 672 441 q 433 435 460 441 q 378 415 404 428 l 375 418 l 614 657 q 673 633 648 642 q 728 622 697 622 q 819 652 772 622 q 890 717 865 682 l 886 722 q 775 684 843 685 q 664 736 715 684 l 664 736 z "},"6":{"ha":694,"x_min":191,"x_max":1169,"o":"m 650 416 q 557 149 647 279 q 463 47 515 86 q 354 5 410 5 q 282 50 300 7 q 265 138 264 90 q 275 215 265 178 q 297 289 283 253 q 374 416 328 359 q 471 509 420 473 q 564 542 522 541 q 636 501 619 541 q 650 416 650 464 l 650 416 m 346 418 q 594 750 432 582 q 770 879 676 829 q 964 930 861 929 q 1043 916 1013 930 q 1092 876 1074 900 q 1118 828 1109 852 q 1125 778 1125 802 q 1122 745 1125 761 q 1156 781 1140 757 q 1169 831 1169 802 q 1128 917 1169 880 q 987 953 1084 951 q 861 935 926 953 q 725 880 794 917 q 465 692 587 808 q 269 441 345 578 q 191 176 192 306 q 200 110 191 142 q 227 49 208 77 q 340 -11 261 -9 q 479 32 410 -9 q 606 138 549 74 q 733 412 729 275 q 591 564 733 561 q 456 518 517 562 q 349 418 393 475 l 346 418 z "},"7":{"ha":694,"x_min":122,"x_max":930,"o":"m 244 -134 l 930 750 l 922 755 q 861 708 895 726 q 783 689 826 689 q 684 718 728 690 q 591 747 642 746 q 515 730 546 747 q 448 685 484 713 l 446 688 q 497 777 473 728 l 486 781 q 458 729 473 757 q 429 679 444 701 q 385 631 416 663 q 359 603 371 615 q 347 583 347 590 q 355 572 347 572 q 379 593 366 572 q 410 636 391 612 q 453 679 428 660 q 511 697 477 697 q 610 668 564 696 q 661 648 635 657 q 713 639 686 639 q 811 661 768 639 q 890 715 851 680 l 893 713 l 122 -147 l 244 -134 z "},"8":{"ha":694,"x_min":158,"x_max":920,"o":"m 686 410 q 847 496 778 433 q 920 654 917 557 q 718 861 917 855 q 539 797 615 860 q 458 625 460 733 q 489 489 460 555 q 264 415 362 488 q 158 210 161 342 q 225 53 160 113 q 383 -11 288 -9 q 574 60 497 -9 q 651 236 650 127 q 635 345 650 294 q 593 440 616 393 q 553 539 571 488 q 533 650 533 590 q 579 791 533 739 q 693 844 622 843 q 810 787 766 843 q 852 639 852 732 q 684 422 852 465 l 686 410 m 233 227 q 494 472 233 476 q 550 351 524 414 q 576 218 575 289 q 547 77 578 136 q 422 11 514 12 q 283 78 332 12 q 233 227 233 140 l 233 227 z "},"9":{"ha":694,"x_min":-333,"x_max":761,"o":"m 677 607 q 575 319 673 432 q 387 200 479 201 q 306 332 304 199 q 393 590 307 460 q 485 690 433 651 q 590 730 536 729 q 659 696 637 730 q 677 607 677 661 l 677 607 m 610 340 q 346 -56 526 149 q 155 -212 258 -151 q -57 -278 53 -277 q -210 -227 -150 -277 q -272 -94 -271 -176 q -268 -50 -272 -68 q -317 -85 -301 -61 q -333 -142 -333 -110 q -264 -254 -332 -211 q -96 -300 -199 -298 q 201 -210 52 -297 q 477 12 351 -123 q 682 301 606 149 q 761 585 760 453 q 725 703 761 657 q 608 747 688 746 q 485 709 551 746 q 358 610 418 671 q 262 475 298 549 q 222 326 222 401 q 256 220 222 260 q 351 178 289 178 q 501 229 433 179 q 607 340 567 278 l 610 340 z "}," ":{"ha":347,"x_min":0,"x_max":0,"o":""}," ":{"ha":347,"x_min":0,"x_max":0,"o":""},"!":{"ha":463,"x_min":97,"x_max":591,"o":"m 231 193 q 533 593 367 406 q 572 639 554 614 q 591 689 590 663 q 546 736 590 733 q 501 714 519 736 q 458 631 482 690 q 222 199 359 406 l 231 193 m 149 103 q 114 89 127 103 q 97 52 97 74 q 114 17 97 31 q 149 0 127 0 q 186 17 171 0 q 200 52 200 31 q 149 103 197 100 l 149 103 z "},"\"":{"ha":463,"x_min":297,"x_max":575,"o":"m 383 889 q 383 951 387 916 q 371 979 379 968 q 342 989 361 989 q 301 951 306 987 q 300 889 297 916 l 322 640 q 326 619 323 633 q 342 603 328 604 q 359 619 355 604 q 361 640 361 633 l 383 889 m 571 889 q 571 951 575 916 q 558 979 567 968 q 529 989 549 989 q 489 951 493 987 q 488 889 485 916 l 510 640 q 514 619 511 633 q 529 603 515 604 q 547 619 543 604 q 549 640 549 633 l 571 889 z "},"#":{"ha":694,"x_min":197,"x_max":786,"o":"m 699 286 l 589 286 l 657 456 l 772 456 l 786 500 l 676 500 l 775 736 l 722 736 l 623 500 l 476 500 l 575 736 l 522 736 l 424 500 l 298 500 l 285 456 l 404 456 l 336 286 l 211 286 l 197 241 l 317 241 l 216 0 l 269 0 l 370 241 l 517 241 l 416 0 l 469 0 l 568 241 l 685 241 l 699 286 m 604 456 l 536 286 l 389 286 l 457 456 l 604 456 z "},"$":{"ha":694,"x_min":139,"x_max":878,"o":"m 547 436 l 547 436 q 519 492 530 463 q 505 553 505 521 q 551 679 505 629 q 668 730 594 729 q 732 724 704 730 l 547 436 m 514 359 l 514 359 q 559 285 542 325 q 578 203 578 241 q 525 69 576 118 q 385 17 472 17 q 302 31 345 16 l 514 359 m 803 833 l 743 741 q 682 747 718 747 q 507 685 572 746 q 439 528 439 622 q 460 450 439 493 q 505 370 477 406 l 290 36 l 290 36 q 214 167 215 74 q 235 248 214 210 q 297 313 254 285 q 261 317 275 317 q 174 279 205 315 q 139 178 139 241 q 179 81 139 123 q 222 43 197 60 q 277 16 248 26 l 236 -49 l 248 -56 l 290 11 q 383 0 326 0 q 561 65 482 0 q 644 236 642 126 q 622 328 644 286 q 557 424 599 370 q 555 425 557 424 l 745 720 q 811 612 810 696 q 804 557 811 585 q 772 507 794 526 q 799 503 783 503 q 855 532 832 503 q 878 603 878 558 q 842 693 876 661 q 757 737 807 726 l 814 826 l 803 833 z "},"%":{"ha":1080,"x_min":233,"x_max":1133,"o":"m 1015 414 q 807 326 905 411 q 732 236 760 286 q 701 127 701 184 q 828 0 703 0 q 941 32 888 0 q 1039 109 994 62 q 1133 298 1131 207 q 1105 379 1133 346 q 1015 414 1078 412 l 1015 414 m 1013 397 q 1072 343 1072 399 q 994 140 1069 253 q 917 54 958 89 q 826 17 872 17 q 762 74 764 16 q 787 175 762 119 q 846 281 810 231 q 926 364 882 332 q 1013 397 970 396 l 1013 397 m 890 639 q 492 139 636 319 q 343 -50 345 -43 q 350 -57 343 -57 q 397 -3 354 -56 q 509 130 440 50 q 800 477 652 302 q 917 615 832 514 q 985 699 956 663 q 1013 739 1011 733 q 997 758 1013 757 q 969 750 982 758 q 936 709 956 741 q 878 650 922 688 q 829 622 857 633 q 766 608 800 608 q 707 629 726 608 q 671 675 688 648 q 629 721 656 701 q 546 739 602 739 q 440 713 496 739 q 339 643 386 688 q 264 547 292 600 q 233 440 233 494 q 355 317 236 318 q 465 349 408 317 q 568 427 521 378 q 643 530 615 475 q 669 639 671 586 l 672 642 q 713 607 689 621 q 762 591 736 591 q 835 608 802 591 q 888 642 867 622 l 890 639 m 294 396 q 319 504 294 447 q 379 610 342 561 q 461 692 416 660 q 550 722 505 722 q 608 663 608 721 q 526 458 606 571 q 443 371 489 406 q 349 333 397 333 q 294 396 293 336 l 294 396 z "},"&":{"ha":848,"x_min":77,"x_max":1027,"o":"m 1021 174 q 896 58 972 104 q 732 11 819 11 q 614 40 671 11 q 513 111 555 68 q 627 233 564 160 q 705 322 665 285 q 797 358 746 357 q 860 343 835 358 q 895 302 883 328 q 917 351 916 325 q 893 404 917 385 q 832 422 869 422 q 751 393 789 420 q 675 318 713 366 q 596 221 637 272 q 501 121 553 168 l 501 121 q 357 454 366 261 q 428 493 385 471 q 513 541 471 514 q 553 570 533 555 q 585 599 572 585 q 614 664 612 628 q 590 726 614 704 q 526 747 565 747 q 432 717 476 747 q 354 639 387 686 q 282 440 283 538 q 142 338 201 406 q 77 175 78 268 q 130 45 77 96 q 275 -11 183 -9 q 386 16 342 -9 q 458 64 429 40 l 458 64 q 578 7 511 25 q 700 -11 644 -11 q 1027 168 900 -9 l 1021 174 m 558 671 q 500 550 557 597 q 357 469 441 504 l 357 469 q 362 534 357 497 q 386 619 367 572 q 446 703 412 673 q 509 730 477 730 q 558 671 557 730 l 558 671 m 151 197 q 184 333 151 268 q 282 425 218 396 l 282 425 q 446 74 285 214 q 385 39 420 53 q 296 22 347 22 q 192 78 231 24 q 151 197 151 127 l 151 197 z "},"’":{"ha":309,"x_min":225,"x_max":425,"o":"m 227 553 q 354 625 289 572 q 406 684 386 650 q 425 755 425 717 q 411 799 425 779 q 372 817 396 817 q 317 764 318 817 q 336 728 317 737 q 375 715 354 715 q 357 661 372 685 q 318 618 342 636 q 272 589 296 602 q 225 565 248 575 l 227 553 z "},"(":{"ha":541,"x_min":53,"x_max":918,"o":"m 918 966 q 317 492 530 800 q 118 106 182 298 q 53 -397 54 -89 l 69 -397 q 354 443 79 74 q 918 953 589 779 l 918 966 z "},")":{"ha":541,"x_min":-318,"x_max":547,"o":"m -318 -397 q 283 78 71 -231 q 482 467 418 271 q 547 966 546 661 l 530 966 q 245 126 519 496 q -318 -383 12 -210 l -318 -397 z "},"*":{"ha":463,"x_min":283,"x_max":667,"o":"m 283 747 q 307 725 285 725 q 375 746 329 726 q 457 778 419 764 q 428 693 447 741 q 414 652 419 669 q 407 625 407 633 q 429 603 407 603 q 457 637 447 602 q 481 772 467 672 l 481 772 q 542 700 504 747 q 578 664 561 679 q 602 647 593 647 q 621 667 619 647 q 575 724 619 692 q 534 757 555 741 q 494 789 511 772 q 633 811 596 803 q 660 823 651 818 q 667 838 667 829 q 643 864 665 863 q 582 844 629 863 q 490 810 533 823 q 525 897 507 854 q 545 960 543 939 q 541 981 545 970 q 524 989 534 989 q 489 932 494 987 l 481 888 l 468 815 l 468 815 q 404 900 437 859 q 376 932 389 920 q 351 945 362 945 q 328 918 328 943 q 454 800 326 896 l 322 781 q 294 771 306 779 q 283 747 283 762 l 283 747 z "},"+":{"ha":833,"x_min":294,"x_max":772,"o":"m 510 262 l 294 262 l 294 215 l 510 215 l 510 0 l 557 0 l 557 215 l 772 215 l 772 262 l 557 262 l 557 477 l 510 477 l 510 262 z "},",":{"ha":347,"x_min":-45,"x_max":200,"o":"m -45 -172 q 122 -103 47 -159 q 200 39 197 -46 q 187 85 200 65 q 146 103 174 103 q 92 46 93 101 q 109 12 92 24 q 139 0 123 0 q 155 3 150 0 q 135 -60 153 -32 q 86 -110 115 -89 q -45 -164 24 -153 l -45 -172 z "},"-":{"ha":463,"x_min":103,"x_max":439,"o":"m 118 258 l 103 220 l 422 220 l 439 258 l 118 258 z "},"­":{"ha":463,"x_min":103,"x_max":439,"o":"m 118 258 l 103 220 l 422 220 l 439 258 l 118 258 z "},".":{"ha":347,"x_min":92,"x_max":195,"o":"m 143 103 q 109 89 122 103 q 92 52 92 74 q 109 17 92 31 q 143 0 122 0 q 180 17 165 0 q 195 52 195 31 q 143 103 192 100 l 143 103 z "},"/":{"ha":386,"x_min":150,"x_max":594,"o":"m 201 -22 l 594 989 l 543 989 l 150 -22 l 201 -22 z "},":":{"ha":347,"x_min":92,"x_max":444,"o":"m 92 53 q 143 3 93 4 q 179 20 164 3 q 195 53 195 33 q 180 90 195 75 q 144 106 165 106 q 92 53 93 104 l 92 53 m 342 427 q 393 375 343 376 q 444 425 441 376 q 432 463 444 447 q 396 477 416 477 q 358 465 374 477 q 342 427 342 450 l 342 427 z "},";":{"ha":347,"x_min":-45,"x_max":444,"o":"m -45 -172 q 122 -103 47 -159 q 200 39 197 -46 q 187 85 200 65 q 146 103 174 103 q 92 46 93 101 q 109 12 92 24 q 139 0 123 0 q 155 3 150 0 q 135 -60 153 -32 q 86 -110 115 -89 q -45 -164 24 -153 l -45 -172 m 342 427 q 393 375 343 376 q 431 393 416 375 q 444 431 444 408 q 431 464 444 450 q 396 477 415 477 q 358 464 374 477 q 342 427 342 450 l 342 427 z "},"<":{"ha":833,"x_min":281,"x_max":758,"o":"m 758 -8 l 758 39 l 328 239 l 758 439 l 758 486 l 758 486 l 281 264 l 281 212 l 758 -8 l 758 -8 z "},"=":{"ha":833,"x_min":294,"x_max":772,"o":"m 772 354 l 294 354 l 294 307 l 772 307 l 772 354 m 772 171 l 294 171 l 294 123 l 772 123 l 772 171 z "},">":{"ha":833,"x_min":339,"x_max":817,"o":"m 339 -8 l 339 -8 l 817 212 l 817 264 l 339 486 l 339 486 l 339 439 l 770 239 l 339 39 l 339 -8 z "},"?":{"ha":616,"x_min":97,"x_max":665,"o":"m 218 179 q 258 229 231 207 q 318 271 285 253 q 452 335 389 309 q 600 436 536 374 q 665 576 664 497 q 611 707 664 664 q 472 747 557 747 q 290 684 374 746 q 227 614 250 654 q 200 526 200 572 q 325 400 201 403 q 397 420 364 400 q 448 465 429 437 l 439 472 q 387 432 418 444 q 328 416 358 416 q 260 456 278 418 q 241 533 240 492 q 311 675 243 619 q 453 730 376 729 q 590 586 587 728 q 500 386 591 467 q 427 340 467 359 q 345 298 386 319 q 268 252 304 278 q 205 183 232 225 l 218 179 m 149 103 q 114 89 127 103 q 97 52 97 74 q 114 17 97 31 q 149 0 127 0 q 186 17 171 0 q 200 52 200 31 q 149 103 197 100 l 149 103 z "},"@":{"ha":1111,"x_min":155,"x_max":1164,"o":"m 536 387 q 603 594 538 501 q 668 664 632 639 q 736 690 703 690 q 822 578 821 688 q 757 374 821 481 q 692 292 728 325 q 614 258 654 258 q 558 289 578 258 q 536 387 536 319 l 536 387 m 843 664 l 843 664 q 806 717 829 693 q 736 741 782 739 q 625 709 675 741 q 538 627 575 677 q 458 391 460 518 q 494 258 458 306 q 597 208 530 208 q 703 252 661 210 q 737 286 724 269 q 757 311 750 301 l 760 311 q 789 254 758 294 q 831 224 806 237 q 892 208 855 208 q 1010 243 958 208 q 1095 328 1060 275 q 1147 441 1131 380 q 1164 557 1164 501 q 1032 864 1162 743 q 682 989 901 986 q 311 844 460 987 q 155 461 158 701 q 187 304 155 387 q 285 146 218 220 q 454 26 351 74 q 697 -22 555 -21 q 868 9 787 -21 q 997 64 950 37 l 986 89 l 986 89 q 860 36 930 61 q 696 8 787 8 q 364 149 485 12 q 239 446 240 282 q 370 828 241 692 q 682 964 493 962 q 997 852 872 962 q 1128 555 1125 742 q 1072 353 1128 453 q 1006 277 1046 307 q 913 244 966 244 q 865 265 879 244 q 848 310 848 282 q 860 375 848 336 l 947 722 l 859 722 l 843 664 z "},"A":{"ha":1311,"x_min":119,"x_max":1491,"o":"m 1019 432 q 970 290 991 364 q 954 215 961 253 q 947 136 947 176 q 978 35 947 77 q 1071 -11 1007 -9 q 1178 26 1124 -9 q 1286 117 1232 61 q 1491 364 1396 235 l 1482 368 q 1311 164 1429 292 q 1201 65 1257 107 q 1104 22 1147 22 q 1046 54 1061 22 q 1031 125 1031 82 q 1075 340 1031 221 q 1185 582 1118 460 q 1476 983 1326 838 l 1472 989 q 1255 883 1360 956 q 1061 721 1152 811 q 795 416 879 530 q 534 142 672 261 q 403 52 468 85 q 275 17 336 17 q 231 24 252 17 q 195 49 207 31 q 215 65 207 53 q 221 89 221 77 q 174 140 220 138 q 136 125 149 140 q 121 83 121 107 q 146 24 119 56 q 260 -11 172 -9 q 400 28 326 -9 q 545 125 471 64 q 829 432 692 254 l 1019 432 m 840 448 q 1095 734 960 603 q 1373 939 1227 864 l 1376 936 q 1026 448 1147 709 l 840 448 z "},"B":{"ha":1235,"x_min":136,"x_max":1339,"o":"m 629 622 q 635 534 635 579 q 571 323 633 403 q 401 239 507 240 q 279 313 318 240 q 239 458 239 379 q 427 814 241 663 q 872 972 607 968 q 943 970 908 972 q 1007 960 977 968 q 1067 941 1039 954 q 1115 909 1095 929 q 901 693 994 829 q 700 374 807 557 q 513 98 599 199 q 289 -5 424 -4 q 233 5 264 -5 q 193 45 201 16 q 239 90 237 46 q 192 142 239 139 q 136 82 138 140 q 179 9 136 39 q 292 -22 220 -21 q 564 89 448 -20 q 771 346 679 193 q 950 648 864 500 q 1135 889 1036 797 l 1135 889 q 1182 772 1181 839 q 1107 572 1181 650 q 905 493 1032 496 l 905 476 q 1044 446 989 481 q 1100 322 1099 410 q 1038 106 1100 199 q 844 5 974 8 q 775 32 802 5 q 746 93 746 56 q 757 151 746 129 q 789 178 766 174 q 750 195 772 195 q 693 170 714 193 q 671 110 671 146 q 721 24 671 57 q 846 -11 768 -9 q 1072 83 965 -8 q 1183 313 1179 174 q 1129 444 1182 401 q 993 490 1076 488 l 993 493 q 1172 575 1092 513 q 1257 745 1254 637 q 1235 843 1257 803 q 1166 918 1213 883 q 1339 981 1253 972 l 1339 997 q 1145 930 1254 987 l 1145 930 q 879 989 1043 987 q 386 811 575 983 q 189 450 192 644 q 244 292 189 357 q 401 222 298 224 q 585 315 519 224 q 651 532 650 406 q 644 623 651 571 l 629 622 z "},"C":{"ha":926,"x_min":200,"x_max":1145,"o":"m 742 772 q 741 734 741 754 q 783 647 745 673 q 875 621 819 621 q 1063 686 982 622 q 1145 847 1143 749 q 972 989 1145 987 q 732 921 864 987 q 479 742 600 854 q 282 497 359 631 q 200 228 201 362 q 214 147 200 191 q 258 65 228 104 q 339 4 289 28 q 458 -22 387 -21 q 753 100 652 -17 q 854 319 854 212 q 682 472 854 475 l 684 456 q 804 342 802 454 q 703 109 802 215 q 464 -5 606 -1 q 330 64 371 -3 q 289 211 288 127 q 362 492 290 357 q 443 621 397 558 q 541 734 488 682 q 765 908 648 844 q 978 972 882 970 q 1065 953 1034 972 q 1096 873 1096 930 q 1025 708 1093 775 q 876 637 956 639 q 795 661 831 637 q 757 739 757 684 q 758 772 757 757 l 742 772 z "},"D":{"ha":1235,"x_min":167,"x_max":1381,"o":"m 1377 1025 q 1115 904 1232 998 l 1115 904 q 835 997 998 996 q 378 818 557 991 q 193 467 196 650 q 245 296 193 366 q 403 222 298 224 q 633 336 546 224 q 722 621 721 446 l 722 661 l 705 661 l 705 614 q 628 355 704 463 q 424 244 551 245 q 342 264 375 244 q 288 311 309 282 q 249 464 248 374 q 433 835 253 692 q 839 981 607 978 q 970 961 901 981 q 1100 892 1040 939 q 905 663 990 797 q 743 391 819 528 q 583 151 668 256 q 395 17 500 49 q 289 37 326 29 q 220 45 253 45 q 167 16 168 46 q 236 -14 167 -14 q 325 -7 292 -14 q 396 4 358 -3 q 493 -14 441 -7 q 629 -22 546 -22 q 1054 147 869 -20 q 1250 565 1244 311 q 1246 652 1250 610 q 1225 739 1240 697 q 1133 889 1197 825 q 1381 1014 1239 987 l 1377 1025 m 606 -5 q 419 8 500 -5 l 419 11 q 652 161 555 60 q 822 389 749 261 q 966 644 896 517 q 1118 869 1036 772 l 1118 869 q 1169 777 1153 832 q 1183 664 1183 721 q 1149 436 1183 553 q 1040 220 1114 319 q 861 58 969 121 q 606 -5 751 -4 l 606 -5 z "},"E":{"ha":926,"x_min":125,"x_max":1022,"o":"m 475 250 q 559 335 507 297 q 668 372 611 371 q 774 248 775 371 q 745 139 772 184 q 667 62 715 93 q 458 0 565 0 q 282 71 349 1 q 214 228 214 138 q 240 358 214 304 q 309 444 267 410 q 404 505 351 479 q 510 553 456 530 q 603 700 604 596 q 650 878 602 787 q 718 946 675 921 q 819 972 760 972 q 961 850 958 974 q 920 737 961 799 q 868 692 899 709 q 794 671 836 671 q 733 677 754 671 l 732 663 q 794 654 751 656 q 949 705 878 654 q 1022 847 1019 754 q 961 957 1021 924 q 833 989 904 989 q 594 897 673 986 q 514 684 514 808 q 503 581 514 607 q 441 534 488 553 q 325 481 382 509 q 224 414 268 452 q 125 205 126 342 q 444 -22 129 -16 q 717 69 590 -20 q 812 160 777 110 q 848 257 848 208 q 811 351 848 315 q 699 389 774 387 q 465 257 550 385 l 475 250 z "},"F":{"ha":1080,"x_min":86,"x_max":1558,"o":"m 836 448 q 636 164 758 309 q 501 53 576 96 q 335 5 427 5 q 227 26 265 5 q 168 68 186 45 q 147 113 150 93 q 142 138 142 132 q 155 136 150 136 q 186 151 176 136 q 195 184 195 165 q 149 233 193 232 q 103 210 119 232 q 86 158 86 187 q 111 83 86 115 q 171 29 135 50 q 328 -11 248 -11 q 526 31 437 -9 q 684 138 614 72 q 920 450 822 278 q 1069 465 981 454 q 1032 395 1051 431 q 997 319 1013 359 l 1006 315 q 1202 541 1087 443 q 1168 546 1183 546 q 1122 529 1140 545 q 1092 496 1104 514 q 1067 485 1086 489 q 1021 477 1047 481 q 969 473 996 476 q 926 468 945 469 q 996 581 964 521 q 1067 694 1027 637 q 1161 799 1105 751 q 1295 875 1214 846 q 1518 882 1470 873 q 1551 896 1544 886 q 1558 922 1558 905 q 1539 947 1558 941 q 1491 950 1519 950 q 1388 945 1450 946 q 1039 950 1292 947 q 469 832 669 947 q 267 561 268 718 q 322 446 267 488 q 468 403 375 403 q 715 489 612 404 q 822 673 819 570 q 807 754 822 717 l 793 751 q 806 675 804 722 q 775 574 806 621 q 696 493 745 528 q 469 419 591 420 q 332 461 380 419 q 283 565 283 500 q 456 794 292 705 q 897 883 619 882 q 1271 878 1149 879 l 1271 875 q 1022 713 1120 831 q 844 465 924 596 l 785 465 l 782 448 l 836 448 z "},"G":{"ha":848,"x_min":36,"x_max":1161,"o":"m 631 1109 q 579 1046 602 1084 q 557 960 557 1006 q 591 850 557 900 q 391 672 489 785 q 317 557 345 618 q 286 433 286 496 q 332 311 286 355 q 454 264 376 264 q 582 292 521 264 q 692 358 643 318 l 694 355 q 521 121 625 239 q 406 32 468 66 q 265 -5 340 -4 q 139 31 192 -5 q 83 127 85 65 q 86 160 83 142 q 110 155 98 155 q 158 204 157 157 q 110 253 155 250 q 54 225 72 252 q 36 161 36 199 q 103 29 37 79 q 261 -22 165 -21 q 596 122 458 -18 q 815 419 730 257 q 873 490 847 458 q 900 536 899 521 q 876 557 899 558 q 787 517 814 555 q 733 418 758 477 q 644 340 717 386 q 570 302 610 318 q 489 286 529 286 q 400 328 424 286 q 375 427 374 367 q 400 533 375 476 q 457 643 420 589 q 616 818 533 757 l 616 818 q 741 747 672 766 q 872 728 808 728 q 1067 765 978 726 q 1135 817 1109 786 q 1161 892 1161 848 q 1111 970 1160 951 q 1008 989 1063 989 q 604 861 789 985 l 604 861 q 574 962 574 900 q 591 1038 574 998 q 639 1101 608 1074 l 631 1109 m 1105 904 q 1035 786 1104 826 q 873 745 965 745 q 628 829 704 745 q 795 929 700 886 q 983 972 892 970 q 1064 964 1023 974 q 1105 904 1104 951 l 1105 904 z "},"H":{"ha":1157,"x_min":53,"x_max":1653,"o":"m 633 737 q 644 711 640 725 q 648 673 648 696 q 629 600 648 633 q 576 542 608 567 q 431 490 507 490 q 345 528 372 492 q 315 606 315 562 q 549 868 318 771 q 1161 966 777 965 l 1161 964 q 851 777 968 916 q 637 473 734 636 q 441 172 550 323 q 329 54 387 100 q 203 5 269 5 q 147 18 171 5 q 113 49 122 28 q 155 93 154 49 q 110 138 154 136 q 71 123 86 138 q 53 83 53 109 q 104 11 54 32 q 196 -11 151 -11 q 367 39 288 -9 q 513 161 446 86 q 726 465 646 318 l 926 465 q 839 301 882 395 q 791 109 793 208 q 819 18 791 56 q 908 -22 846 -21 q 1039 25 974 -21 q 1162 135 1104 71 q 1329 364 1282 275 l 1316 370 q 1132 125 1242 241 q 1026 36 1079 71 q 928 0 974 0 q 893 25 905 0 q 880 82 880 50 q 953 349 882 200 q 1121 633 1021 496 q 1328 863 1223 772 q 1506 956 1430 954 q 1540 945 1527 956 q 1563 917 1552 932 q 1582 890 1572 901 q 1608 878 1592 878 q 1640 892 1628 878 q 1653 924 1653 904 q 1629 972 1651 956 q 1573 989 1604 989 q 1389 937 1482 987 q 1210 808 1296 888 q 933 482 1035 640 l 733 482 q 1229 966 1018 968 q 1284 969 1267 966 q 1301 989 1301 974 q 1280 1003 1300 1003 q 1233 994 1258 1002 q 1169 983 1207 983 q 545 907 829 985 q 326 794 408 865 q 240 621 241 725 q 290 518 240 559 q 422 473 336 473 q 586 530 511 473 q 643 596 622 558 q 665 676 665 632 q 650 739 665 713 l 633 737 z "},"I":{"ha":848,"x_min":-21,"x_max":1339,"o":"m -21 150 q 3 74 -21 107 q 58 20 25 40 q 214 -22 132 -22 q 559 117 412 -20 q 821 460 705 250 q 1043 799 943 673 q 1215 928 1144 926 q 1315 933 1289 928 q 1339 951 1339 939 q 1315 966 1337 968 q 1247 956 1301 965 q 1100 941 1193 941 q 590 873 848 950 q 391 771 469 835 q 311 612 313 707 q 362 494 311 534 q 494 452 412 452 q 660 513 593 453 q 729 656 728 572 q 721 708 728 685 l 705 705 q 713 652 713 686 q 646 526 711 579 q 498 468 582 469 q 378 590 380 469 q 465 771 379 704 q 676 871 550 839 q 933 917 803 905 q 1158 925 1064 925 l 1158 922 q 1035 847 1093 899 q 922 730 975 795 q 747 488 815 594 q 668 358 717 437 q 551 193 618 277 q 401 54 485 111 q 216 -5 318 -4 q 83 36 130 -4 q 47 125 36 75 q 85 138 71 122 q 98 174 98 151 q 47 222 97 221 q -1 201 16 221 q -21 150 -21 180 l -21 150 z "},"J":{"ha":848,"x_min":-258,"x_max":1328,"o":"m 693 694 q 701 640 701 664 q 636 507 700 559 q 486 452 572 452 q 396 489 425 453 q 366 574 366 524 q 458 755 367 686 q 675 860 545 823 q 1158 922 957 925 l 1158 920 q 957 768 1050 868 q 779 541 863 667 q 485 50 616 277 q 220 9 350 25 q -20 -33 89 -7 q -192 -106 -127 -57 q -258 -249 -257 -155 q -239 -317 -258 -286 q -191 -370 -220 -349 q -41 -414 -126 -414 q 310 -264 158 -410 q 567 50 461 -122 q 843 171 743 98 q 1023 366 943 241 l 1013 372 q 839 184 932 250 q 587 71 746 118 l 585 74 q 724 298 644 160 q 888 579 802 436 q 1057 821 975 724 q 1133 896 1097 869 q 1200 922 1169 922 q 1284 926 1243 921 q 1316 935 1304 929 q 1328 950 1328 940 q 1321 964 1328 960 q 1304 966 1312 966 q 1230 953 1276 965 q 1182 945 1207 949 q 1126 939 1156 939 q 905 928 1042 939 q 631 878 771 913 q 399 772 493 842 q 298 590 300 703 q 349 479 298 521 q 486 435 397 435 q 647 494 578 435 q 718 639 717 551 q 708 696 718 667 l 693 694 m -45 -397 q -149 -362 -109 -397 q -192 -252 -191 -328 q -132 -115 -189 -164 q 18 -46 -77 -69 q 232 -5 114 -21 q 472 32 349 9 l 472 32 q 265 -237 401 -92 q 121 -350 199 -306 q -45 -397 41 -396 l -45 -397 z "},"K":{"ha":1235,"x_min":129,"x_max":1726,"o":"m 1400 370 q 1200 151 1336 282 q 1071 50 1135 92 q 957 5 1007 5 q 913 54 916 4 q 930 114 913 81 q 964 187 945 147 q 997 268 983 228 q 1011 342 1011 309 q 926 490 1013 448 l 926 493 q 1168 576 1067 504 q 1343 736 1270 647 q 1479 892 1418 825 q 1600 961 1540 960 q 1654 946 1636 961 q 1671 901 1671 929 q 1651 852 1671 871 q 1675 842 1654 842 q 1712 860 1697 842 q 1726 901 1726 878 q 1693 958 1725 937 q 1601 978 1658 978 q 1418 905 1500 975 q 1255 742 1333 835 q 1097 579 1179 650 q 912 504 1014 505 q 860 509 884 507 q 846 497 847 509 q 865 485 846 485 q 896 488 880 486 q 940 473 918 488 q 961 416 960 458 q 943 339 961 380 q 900 249 924 294 q 859 160 876 203 q 839 78 839 115 q 871 12 839 33 q 943 -11 901 -11 q 1068 32 1000 -9 q 1201 135 1136 74 q 1409 364 1339 267 l 1400 370 m 629 688 q 639 629 637 663 q 575 505 637 559 q 418 447 513 448 q 342 481 372 447 q 307 567 307 513 q 414 761 309 688 q 663 876 514 836 q 1183 947 983 951 l 1183 945 q 928 781 1035 903 q 707 467 819 656 q 514 165 619 314 q 403 53 461 96 q 281 5 345 5 q 222 20 245 5 q 195 52 195 32 q 221 66 211 52 q 229 93 229 81 q 183 140 228 138 q 129 85 130 138 q 180 11 130 32 q 272 -11 225 -11 q 435 37 359 -9 q 574 153 510 83 q 789 450 703 302 q 896 625 843 536 q 1008 787 950 714 q 1136 909 1068 864 q 1287 956 1204 954 q 1341 960 1324 956 q 1360 975 1360 964 q 1339 989 1358 989 q 1276 972 1322 987 q 1187 958 1239 960 q 525 865 803 958 q 313 750 390 819 q 232 590 232 682 q 288 475 233 518 q 408 431 338 431 q 591 498 526 433 q 656 627 656 561 q 643 692 656 660 l 629 688 z "},"L":{"ha":772,"x_min":-119,"x_max":1242,"o":"m 939 368 q 429 -110 673 140 l 429 -110 q 374 4 420 -41 q 232 49 326 47 q 176 45 197 47 l 174 47 q 481 290 361 127 q 697 618 600 452 q 772 615 729 615 q 1107 708 975 618 q 1242 892 1239 794 q 1211 966 1242 941 q 1126 989 1179 989 q 843 878 975 985 q 628 644 709 772 q 481 708 542 652 q 416 843 418 764 q 454 932 416 893 q 547 972 489 970 q 635 953 600 970 l 640 968 q 549 989 604 987 q 444 946 485 987 q 400 843 400 905 q 465 699 401 753 q 615 628 526 643 q 395 267 500 432 q 282 130 340 187 q 153 50 222 74 q -1 41 103 49 q -83 28 -49 37 q -119 0 -118 17 q -107 -16 -118 -11 q -79 -22 -96 -22 q -11 -12 -47 -21 q 56 7 25 -4 q 153 33 123 32 q 294 -12 239 33 q 353 -150 351 -60 q 349 -170 353 -161 q 336 -186 343 -178 q 319 -218 321 -199 q 338 -233 319 -232 q 387 -204 362 -232 q 427 -135 411 -175 q 680 118 521 -29 q 946 359 842 265 l 939 368 m 1111 972 q 1194 890 1193 970 q 1154 779 1193 828 q 1048 699 1112 732 q 775 632 911 632 q 704 635 733 632 q 875 855 765 746 q 990 939 929 907 q 1111 972 1048 970 l 1111 972 z "},"M":{"ha":1389,"x_min":71,"x_max":1773,"o":"m 1548 376 q 960 11 1379 12 l 960 14 q 1112 111 1048 54 q 1217 232 1173 167 q 1339 490 1297 367 q 1471 771 1375 591 q 1567 911 1516 852 q 1662 969 1615 968 q 1706 965 1685 969 q 1746 960 1726 960 q 1773 977 1772 958 q 1755 997 1773 991 q 1714 1003 1736 1003 q 1597 989 1659 1003 q 1457 922 1533 970 q 1092 542 1307 831 q 909 289 1010 427 q 703 57 808 153 l 700 60 q 832 319 783 178 q 925 597 879 460 q 1040 839 970 734 q 1236 985 1111 943 l 1235 997 q 872 808 1015 951 q 607 458 729 665 q 403 146 501 279 q 300 45 354 83 q 184 5 248 5 q 157 12 171 5 q 139 25 142 17 q 155 41 151 31 q 160 64 160 53 q 149 96 160 83 q 119 110 139 110 q 71 61 72 109 q 104 4 72 18 q 171 -11 134 -11 q 407 119 309 -8 q 504 257 457 180 q 602 416 551 333 q 831 742 701 589 q 1139 960 958 893 l 1141 957 q 932 772 1004 884 q 819 525 860 659 q 742 257 781 391 q 632 3 703 121 l 642 -11 q 886 231 782 96 q 1083 500 990 364 q 1348 810 1208 675 q 1613 969 1489 945 l 1615 966 q 1404 778 1483 907 q 1265 493 1325 647 q 1132 208 1206 339 q 1047 93 1095 143 q 933 11 997 43 q 859 20 897 18 q 840 18 851 20 q 828 4 828 17 q 857 -11 829 -11 q 896 -5 871 -9 q 975 0 920 0 q 1560 374 1371 -3 l 1548 376 z "},"N":{"ha":1003,"x_min":-94,"x_max":1511,"o":"m 1394 754 q 1475 806 1440 770 q 1511 888 1510 839 q 1483 953 1511 928 q 1407 978 1455 977 q 1221 886 1316 977 q 1025 646 1122 794 q 757 129 872 396 l 754 132 q 779 309 779 231 q 753 568 777 452 q 726 797 728 686 q 732 875 726 844 q 742 926 736 905 q 764 989 754 962 q 707 947 725 987 q 684 878 688 908 q 403 326 575 615 q 227 103 319 191 q 35 11 134 12 q -3 21 9 11 q -18 37 -17 31 q -3 52 -7 40 q 0 71 0 62 q -41 113 -1 111 q -94 61 -92 110 q -56 5 -93 22 q 12 -11 -21 -11 q 227 85 126 -8 q 410 311 326 176 q 659 797 579 602 l 661 797 q 660 697 660 746 q 686 424 661 559 q 713 149 709 286 q 696 -11 713 69 l 705 -11 q 1036 636 861 354 q 1189 825 1095 728 q 1283 901 1235 872 q 1376 930 1332 929 q 1444 868 1442 929 q 1433 811 1444 840 q 1394 762 1421 781 l 1394 754 z "},"O":{"ha":1080,"x_min":233,"x_max":1254,"o":"m 969 810 q 949 903 970 864 q 855 943 925 941 l 836 943 l 833 946 q 922 972 868 970 q 978 957 957 972 q 1008 917 998 941 q 1022 807 1023 865 q 876 326 1019 547 l 876 326 q 704 648 704 433 q 739 808 704 733 q 812 924 772 880 q 846 926 832 926 q 933 893 912 925 q 953 810 953 859 l 969 810 m 322 203 q 467 648 326 439 q 783 920 603 857 l 786 917 q 705 777 730 851 q 682 637 682 700 q 868 313 684 428 q 696 118 810 215 q 583 43 640 71 q 472 11 525 11 q 408 31 435 11 q 359 75 379 47 q 322 203 322 134 l 322 203 m 1246 375 q 1038 285 1153 286 q 908 310 962 285 q 1031 532 975 403 q 1089 775 1087 659 q 926 989 1090 987 q 860 975 892 989 q 807 940 828 960 q 446 699 640 905 q 296 476 357 599 q 233 222 235 353 q 453 -11 233 -5 q 582 20 518 -9 q 707 94 647 47 q 900 296 829 192 q 960 278 926 285 q 1036 268 993 268 q 1152 296 1092 268 q 1254 366 1211 321 l 1246 375 z "},"P":{"ha":1080,"x_min":-3,"x_max":1360,"o":"m 1357 1010 q 1210 960 1282 991 q 1050 989 1150 987 q 501 806 729 983 q 328 627 391 724 q 261 429 261 526 q 307 307 261 357 q 424 256 350 256 q 534 286 485 256 q 619 358 583 314 q 697 564 696 454 l 697 616 l 680 616 l 680 564 q 608 370 679 461 q 529 301 575 328 q 429 272 484 272 q 306 411 306 273 q 379 640 307 538 q 561 817 448 743 q 1042 972 797 969 q 1118 968 1076 972 q 1187 949 1157 962 q 1067 871 1125 921 q 954 750 1008 818 q 745 448 844 610 q 554 168 647 290 q 463 69 509 110 q 368 18 415 29 l 368 18 q 72 58 189 58 q 16 47 32 58 q -3 18 -3 37 q 28 -9 -3 1 q 125 -22 57 -22 q 296 -8 233 -21 q 346 3 328 -1 q 371 5 366 5 q 611 -22 488 -21 q 987 71 840 -22 q 1254 351 1133 163 l 1243 357 q 623 -5 1031 0 q 393 11 507 -5 l 393 14 q 656 196 547 72 q 848 467 764 319 q 1018 743 935 614 q 1208 937 1101 872 l 1208 937 q 1268 803 1268 900 q 1208 599 1267 689 q 1147 530 1181 557 q 1075 503 1111 503 q 1025 549 1026 501 q 1042 585 1025 570 q 1006 607 1029 606 q 958 558 960 604 q 985 507 958 526 q 1058 486 1010 486 q 1247 565 1158 488 q 1316 650 1290 604 q 1343 749 1343 696 q 1229 950 1344 882 q 1293 981 1259 966 q 1360 1004 1328 993 l 1357 1010 z "},"Q":{"ha":1003,"x_min":-41,"x_max":1179,"o":"m 844 576 q 747 500 799 530 q 614 469 696 469 q 465 621 465 472 q 585 868 468 766 q 836 972 697 969 q 966 920 921 970 q 1013 787 1013 868 q 945 555 1011 664 q 777 355 878 446 q 383 92 558 172 q 161 118 275 117 q 16 100 71 118 q -41 39 -40 82 q -9 1 -40 14 q 66 -11 21 -11 q 321 46 189 -11 l 321 46 q 440 -3 362 25 q 600 -36 518 -35 q 936 100 787 -32 q 1179 370 1083 225 l 1171 375 q 1087 269 1133 326 q 981 158 1040 212 q 850 72 922 106 q 686 36 775 36 q 401 85 525 37 q 843 367 604 172 q 1027 567 954 461 q 1101 779 1100 672 q 1036 940 1100 892 q 864 989 969 989 q 555 876 684 986 q 420 636 424 770 q 476 504 420 554 q 614 453 528 453 q 852 567 757 454 l 844 576 m 8 46 q 45 87 9 77 q 104 96 77 96 q 302 54 211 94 q 215 25 275 41 q 101 5 157 5 q 8 46 8 5 l 8 46 z "},"R":{"ha":1235,"x_min":134,"x_max":1410,"o":"m 644 603 q 575 406 643 497 q 494 335 542 361 q 385 306 446 306 q 241 471 243 309 q 309 684 243 590 q 473 840 372 775 q 913 972 690 970 q 1026 965 969 972 q 1128 932 1082 956 q 871 708 982 859 q 665 393 760 557 q 574 243 619 314 q 481 115 528 172 q 385 28 435 60 q 281 -5 335 -4 q 225 11 249 -4 q 195 41 200 25 q 225 57 215 41 q 233 87 233 71 q 222 119 233 107 q 191 130 210 130 q 134 75 135 129 q 178 3 135 25 q 265 -22 218 -22 q 534 101 415 -20 q 753 385 652 220 q 950 700 854 551 q 1149 917 1046 848 l 1149 917 q 1189 867 1177 897 q 1201 799 1201 835 q 1128 594 1200 676 q 930 509 1055 510 q 872 514 901 509 l 867 500 q 941 477 913 496 q 969 407 969 460 q 956 328 969 372 q 920 235 940 282 q 884 146 900 189 q 868 72 868 104 q 897 3 868 26 q 974 -22 925 -22 q 1227 122 1090 -22 q 1335 249 1290 187 q 1410 359 1379 310 l 1397 366 q 1196 111 1304 218 q 983 -5 1071 -5 q 943 39 943 -4 q 987 197 946 100 q 1018 290 1006 245 q 1031 364 1031 333 q 945 489 1031 456 l 945 492 q 1173 554 1075 490 q 1276 764 1274 618 q 1171 936 1275 878 q 1297 981 1229 969 l 1296 989 q 1221 972 1262 986 q 1150 946 1179 957 q 1042 981 1103 970 q 918 989 981 989 q 431 840 654 986 q 260 677 325 771 q 192 479 192 586 q 383 289 196 293 q 585 389 509 292 q 661 603 660 484 l 644 603 z "},"S":{"ha":772,"x_min":-36,"x_max":1104,"o":"m 45 357 q -12 326 8 357 q -36 244 -36 294 q 43 53 -35 126 q 245 -22 118 -21 q 532 79 408 -25 q 682 464 656 184 q 699 642 688 553 q 732 806 708 730 q 804 926 757 879 q 930 972 851 970 q 1002 949 974 972 q 1029 873 1027 924 q 998 772 1029 814 q 1074 795 1043 772 q 1104 861 1104 817 q 1058 954 1103 918 q 939 989 1014 989 q 689 846 775 987 q 599 456 603 704 q 522 149 599 292 q 416 39 484 81 q 256 -5 351 -4 q 77 50 142 -4 q 8 178 8 103 q 33 268 7 232 q 62 254 45 254 q 109 304 107 256 q 45 357 109 355 l 45 357 z "},"T":{"ha":1080,"x_min":158,"x_max":1633,"o":"m 888 686 q 889 632 889 660 q 799 457 888 530 q 562 378 708 379 q 347 546 350 378 q 1075 880 354 867 q 1347 869 1211 873 l 1347 867 q 1090 700 1198 833 q 884 403 981 565 q 679 121 789 241 q 414 -5 568 -3 q 278 31 332 -5 q 214 130 222 64 q 231 127 225 127 q 262 142 250 127 q 277 174 277 153 q 225 225 273 222 q 176 204 193 224 q 158 151 158 183 q 183 71 158 104 q 240 17 204 37 q 400 -22 317 -22 q 586 16 503 -21 q 732 104 668 50 q 843 216 795 157 q 918 322 889 275 q 1002 453 964 393 q 1068 565 1038 514 q 1183 736 1129 668 q 1303 839 1238 806 q 1463 872 1368 872 q 1600 878 1563 871 q 1626 889 1618 882 q 1633 907 1633 895 q 1619 937 1633 928 q 1589 947 1607 947 q 1543 945 1571 947 q 1475 939 1514 939 q 1223 947 1381 943 q 525 814 726 943 q 330 546 326 688 q 557 361 330 367 q 808 444 713 362 q 905 635 904 524 q 904 686 905 660 l 888 686 z "},"U":{"ha":1157,"x_min":252,"x_max":1356,"o":"m 1262 966 q 843 317 972 500 q 663 130 786 237 q 543 47 603 82 q 431 11 482 11 q 396 25 411 11 q 378 72 378 39 q 397 150 378 106 q 447 244 416 192 q 597 471 513 350 q 750 700 685 591 q 817 879 815 808 q 781 962 817 933 q 685 989 745 989 q 385 863 513 985 q 289 742 323 807 q 252 610 252 675 q 368 492 253 492 q 473 530 425 492 q 546 610 521 567 l 530 612 q 468 545 509 575 q 370 509 427 510 q 292 539 317 509 q 268 611 268 567 q 306 739 268 675 q 400 854 342 802 q 669 972 522 968 q 728 960 704 972 q 750 911 750 946 q 680 733 749 842 q 528 503 615 625 q 375 269 441 380 q 323 170 343 215 q 302 86 302 122 q 332 16 302 40 q 408 -11 359 -9 q 515 16 461 -9 q 621 77 568 39 q 795 236 726 157 l 799 233 q 770 176 783 210 q 754 110 754 142 q 781 24 754 56 q 865 -11 807 -9 q 986 24 926 -9 q 1105 109 1047 56 q 1335 366 1225 221 l 1324 370 q 1109 130 1230 248 q 993 41 1050 77 q 883 5 935 5 q 821 74 819 7 q 863 197 821 121 q 972 380 901 272 q 1356 966 1118 594 l 1262 966 z "},"V":{"ha":1003,"x_min":286,"x_max":1339,"o":"m 970 989 q 795 905 899 930 q 614 859 692 879 q 513 828 568 846 q 404 777 456 807 q 321 700 353 746 q 286 589 286 654 q 326 496 286 530 q 424 461 366 461 q 533 507 490 463 q 578 610 576 551 q 574 661 576 640 l 558 661 q 561 612 561 637 q 519 517 559 553 q 428 477 481 477 q 357 505 385 477 q 325 579 325 530 q 357 684 325 637 q 435 758 387 728 q 534 812 482 791 q 586 832 561 823 q 632 844 611 839 q 772 882 703 864 q 838 901 806 890 q 897 926 868 912 l 900 924 q 715 733 783 846 q 599 489 644 619 q 507 232 553 361 q 386 -4 460 104 l 393 -11 q 728 192 568 93 q 1139 519 950 328 q 1284 707 1229 614 q 1339 880 1337 799 q 1326 946 1339 921 q 1276 969 1312 969 q 1222 916 1223 966 q 1253 867 1221 879 q 1240 772 1254 835 q 1175 622 1225 708 q 1022 435 1125 538 q 745 218 918 332 q 450 36 612 132 l 447 39 q 532 150 494 92 q 596 269 567 207 q 697 524 651 393 q 807 775 743 654 q 981 982 871 893 l 970 989 z "},"W":{"ha":1311,"x_min":256,"x_max":1645,"o":"m 932 978 q 879 951 928 969 q 688 892 829 932 q 383 778 504 844 q 256 589 257 711 q 296 494 256 526 q 390 460 333 460 q 507 507 463 460 q 553 622 551 550 q 550 656 553 639 l 533 656 q 536 622 536 639 q 498 524 534 565 q 395 476 460 477 q 323 505 350 476 q 294 583 294 533 q 359 722 296 667 q 515 815 422 778 q 707 882 610 851 q 875 939 804 911 l 878 936 q 694 751 761 854 q 585 530 627 646 q 505 298 543 415 q 408 75 468 182 q 367 39 395 56 q 346 22 354 31 q 335 3 335 11 q 354 -11 335 -9 q 407 21 382 -9 q 471 89 431 50 q 1018 661 797 390 l 1021 660 q 890 319 946 497 q 736 0 832 142 l 745 -11 q 865 83 787 31 q 1013 182 941 135 q 1400 496 1177 288 q 1573 700 1504 597 q 1645 896 1643 803 q 1632 951 1645 925 q 1584 978 1618 977 q 1528 926 1529 975 q 1558 868 1528 888 q 1470 629 1544 743 q 1386 518 1434 572 q 1283 414 1337 464 q 839 82 1051 212 l 836 85 q 956 289 911 179 q 1035 507 1000 399 q 1121 718 1071 618 q 1253 893 1169 817 q 1293 930 1272 908 q 1315 969 1314 953 q 1297 989 1314 989 q 1232 956 1268 987 q 1157 873 1194 921 q 1046 718 1079 768 q 791 425 957 597 q 486 119 625 250 l 484 122 q 591 339 547 221 q 680 571 636 456 q 786 791 725 689 q 854 888 817 844 q 937 966 892 932 l 932 978 z "},"X":{"ha":1157,"x_min":50,"x_max":1558,"o":"m 720 585 q 629 461 688 515 q 497 403 570 404 q 396 457 429 404 q 361 570 361 505 q 473 855 364 743 q 704 972 578 969 q 826 920 787 970 q 863 789 863 868 q 652 285 855 542 q 446 86 559 164 q 218 5 332 7 q 158 18 182 5 q 130 43 135 29 q 146 58 139 49 q 153 85 153 66 q 101 139 151 136 q 50 78 53 138 q 98 12 50 36 q 215 -11 144 -11 q 504 100 362 -7 q 720 325 646 203 l 722 322 q 696 167 696 243 q 733 45 694 96 q 857 -11 771 -9 q 1099 103 977 -8 q 1329 366 1221 211 l 1319 370 q 1128 146 1251 269 q 1006 52 1069 89 q 879 11 940 11 q 797 71 817 12 q 779 192 778 126 q 838 436 781 304 q 985 684 893 567 q 1182 878 1076 803 q 1386 956 1286 954 q 1428 953 1411 956 q 1451 941 1443 949 q 1471 911 1468 929 q 1482 880 1474 895 q 1516 865 1489 865 q 1547 879 1536 865 q 1558 909 1558 893 q 1525 965 1557 949 q 1439 978 1493 978 q 1200 911 1335 979 q 922 640 1064 840 l 920 643 q 946 783 945 709 q 888 940 945 892 q 732 989 829 989 q 562 949 637 987 q 429 843 486 907 q 314 564 315 705 q 361 436 314 484 q 488 386 408 386 q 636 448 574 387 q 732 585 700 507 l 720 585 z "},"Y":{"ha":1080,"x_min":-24,"x_max":1405,"o":"m 1311 966 l 949 411 q 692 126 836 241 q 559 39 622 71 q 450 5 497 5 q 416 20 432 5 q 399 66 399 32 q 472 239 400 130 q 629 467 541 346 q 786 699 718 590 q 857 872 855 806 q 722 989 857 990 q 428 864 570 985 q 321 743 362 808 q 277 611 277 676 q 302 529 277 564 q 385 492 328 493 q 501 529 452 493 q 582 612 551 564 l 571 614 q 497 541 539 571 q 390 509 454 509 q 328 538 349 509 q 307 608 307 565 q 350 745 307 679 q 453 861 391 810 q 714 972 586 969 q 782 909 782 970 q 711 730 781 839 q 554 498 643 619 q 397 272 465 378 q 345 175 364 220 q 323 97 323 130 q 440 -11 322 -9 q 554 18 496 -9 q 671 90 612 46 q 875 289 790 184 l 878 286 q 821 201 850 250 q 754 98 790 153 q 599 -125 684 -12 q 424 -310 515 -236 q 229 -389 329 -387 q 103 -346 150 -387 q 52 -231 52 -304 q 85 -118 53 -155 q 157 -83 115 -83 q 256 -110 207 -85 l 261 -98 q 205 -72 237 -83 q 139 -61 174 -61 q 28 -103 74 -61 q -24 -221 -22 -144 q 49 -359 -21 -314 q 211 -406 117 -406 q 541 -265 393 -401 q 810 50 688 -132 l 1405 966 l 1311 966 z "},"Z":{"ha":926,"x_min":54,"x_max":1217,"o":"m 1087 368 q 922 153 1018 250 q 704 50 823 53 q 621 66 663 50 q 533 100 578 81 q 448 135 490 119 q 368 150 407 150 q 264 132 313 150 q 174 89 216 113 l 171 92 q 693 525 378 244 q 1121 900 1008 806 q 1185 943 1153 924 q 1208 961 1200 953 q 1217 975 1217 969 q 1200 989 1215 989 q 1165 972 1181 987 q 1126 930 1149 954 q 1067 889 1105 907 q 961 869 1027 869 q 861 886 909 869 q 766 920 812 900 q 673 953 721 939 q 576 966 627 966 q 387 907 467 966 q 304 732 306 847 q 350 616 306 657 q 453 576 391 576 q 543 600 507 578 l 541 615 q 452 593 503 593 q 361 632 399 593 q 321 734 321 668 q 375 872 322 818 q 509 928 428 926 q 589 911 547 926 q 672 872 629 895 q 765 835 715 850 q 868 817 814 817 q 974 838 921 817 q 1065 880 1026 857 l 1068 878 q 92 40 439 336 q 68 18 79 31 q 56 -8 56 5 q 66 -22 54 -21 q 93 -1 75 -21 q 138 45 110 18 q 204 90 165 71 q 292 111 241 110 q 372 93 333 111 q 448 50 410 74 q 532 8 489 26 q 619 -11 574 -9 q 889 103 761 -8 q 1097 364 1014 211 l 1087 368 z "},"[":{"ha":541,"x_min":-228,"x_max":935,"o":"m -228 -401 l 68 -401 l 74 -385 l -153 -385 l 707 954 l 928 954 l 935 970 l 651 970 l -228 -401 z "},"\\":{"ha":309,"x_min":39,"x_max":486,"o":"m 486 359 q 477 367 485 367 q 428 309 469 368 q 189 64 289 135 q 104 7 140 28 q 47 -24 68 -14 q 39 -32 39 -28 q 43 -39 39 -37 q 138 9 53 -40 q 357 197 221 58 q 435 288 387 231 q 472 335 457 314 q 486 359 486 354 l 486 359 z "},"]":{"ha":541,"x_min":-351,"x_max":812,"o":"m 518 970 l 511 954 l 737 954 l -125 -385 l -346 -385 l -351 -401 l -66 -401 l 812 970 l 518 970 z "},"^":{"ha":833,"x_min":289,"x_max":828,"o":"m 345 231 l 558 656 l 558 656 l 774 231 l 828 231 l 572 736 l 545 736 l 289 231 l 345 231 z "},"_":{"ha":694,"x_min":0,"x_max":694,"o":"m 694 -174 l 694 -104 l 0 -104 l 0 -174 l 694 -174 z "},"‘":{"ha":309,"x_min":214,"x_max":414,"o":"m 412 822 q 286 753 353 806 q 236 694 256 728 q 214 619 214 660 q 229 579 214 597 q 267 558 244 558 q 322 611 321 558 q 304 650 322 637 q 264 660 286 660 q 272 692 267 676 q 286 718 278 705 q 322 758 301 742 q 370 789 346 777 q 414 810 393 802 l 412 822 z "},"a":{"ha":616,"x_min":0,"x_max":795,"o":"m 492 396 l 489 396 q 457 461 484 433 q 372 489 428 488 q 250 448 314 488 q 127 349 184 410 q 37 221 72 288 q 0 93 0 153 q 22 21 0 52 q 93 -11 43 -9 q 222 43 155 -8 q 325 135 288 92 l 328 134 q 309 57 310 96 q 386 -11 309 -8 q 492 28 435 -9 q 603 122 546 65 q 795 368 718 245 l 787 371 q 575 114 686 216 q 477 36 522 64 q 401 5 432 5 q 364 41 364 5 q 446 214 366 94 q 628 477 522 332 l 538 477 l 492 396 m 83 89 q 115 221 83 153 q 192 343 146 286 q 290 437 239 401 q 382 472 342 472 q 444 407 441 471 q 411 279 443 346 q 325 154 376 211 q 222 60 273 97 q 134 22 171 22 q 83 89 83 24 l 83 89 z "},"b":{"ha":616,"x_min":17,"x_max":790,"o":"m 533 958 q 114 317 218 482 q 39 179 58 228 q 18 98 17 132 q 53 20 18 47 q 135 -11 86 -9 q 260 20 196 -9 q 379 97 322 49 q 536 319 496 199 l 536 319 q 647 277 583 277 q 732 302 694 277 q 790 353 768 325 l 781 362 q 724 313 757 332 q 648 290 689 290 q 585 307 612 290 q 542 338 555 321 q 547 399 547 367 q 534 465 547 439 q 497 489 522 489 q 468 476 476 489 q 458 443 458 463 q 467 412 458 427 q 472 382 472 396 q 441 273 472 336 q 358 149 410 210 q 253 49 310 89 q 144 5 196 5 q 85 68 86 7 q 103 140 83 97 q 175 269 121 182 q 625 961 277 428 l 533 958 z "},"c":{"ha":463,"x_min":17,"x_max":632,"o":"m 622 357 q 406 122 538 228 q 283 45 346 75 q 171 11 220 11 q 119 39 136 11 q 100 101 100 62 q 132 229 100 164 q 205 349 161 293 q 300 439 252 404 q 383 472 347 471 q 432 420 432 472 q 418 362 431 390 q 476 378 447 364 q 507 424 505 391 q 477 475 505 458 q 407 489 447 489 q 278 454 346 489 q 151 359 211 418 q 56 233 92 302 q 17 96 17 164 q 53 17 17 45 q 138 -11 86 -11 q 435 127 285 -7 q 632 349 561 239 l 622 357 z "},"d":{"ha":616,"x_min":-9,"x_max":940,"o":"m 848 961 l 490 390 l 486 390 q 463 463 488 435 q 390 489 437 489 q 262 450 330 489 q 132 350 193 411 q 32 221 71 289 q -9 92 -8 151 q 18 21 -9 49 q 94 -11 45 -9 q 167 7 132 -9 q 231 47 200 22 q 336 153 292 98 l 339 151 q 318 109 328 132 q 306 56 306 83 q 393 -11 304 -8 q 494 26 440 -9 q 603 119 547 62 q 789 359 728 253 l 778 366 q 583 121 697 233 q 397 5 464 4 q 367 39 367 7 q 427 176 367 79 q 572 407 484 273 q 940 961 762 685 l 848 961 m 447 389 q 411 286 446 346 q 323 164 376 224 q 216 65 271 104 q 125 22 164 22 q 86 43 96 22 q 74 90 74 61 q 107 205 74 140 q 187 329 139 269 q 290 432 237 391 q 385 472 342 471 q 437 447 425 471 q 447 389 447 424 l 447 389 z "},"e":{"ha":463,"x_min":24,"x_max":642,"o":"m 416 433 q 387 368 415 397 q 314 313 359 338 q 149 250 220 261 q 252 393 182 318 q 319 450 286 428 q 380 472 353 472 q 416 433 415 472 l 416 433 m 631 367 q 408 122 543 227 q 285 41 345 72 q 175 11 224 11 q 122 41 139 11 q 107 103 107 71 q 142 235 109 176 q 359 311 245 257 q 448 370 414 339 q 484 432 484 401 q 410 489 482 488 q 282 453 349 488 q 155 358 215 416 q 61 233 98 301 q 24 104 24 165 q 146 -11 25 -9 q 293 28 218 -9 q 435 122 367 65 q 642 359 576 244 l 631 367 z "},"f":{"ha":309,"x_min":-786,"x_max":811,"o":"m 199 461 q -167 -111 9 143 q -355 -304 -258 -232 q -567 -380 -454 -379 q -725 -224 -724 -376 q -696 -142 -724 -171 q -625 -111 -668 -114 l -625 -100 l -637 -100 q -751 -138 -717 -100 q -786 -231 -786 -175 q -720 -354 -785 -313 q -574 -397 -659 -396 q -163 -195 -347 -399 q 278 461 21 11 l 600 461 l 600 477 l 286 477 q 482 786 376 633 q 587 904 534 859 q 692 950 640 949 q 750 889 751 949 q 737 811 749 846 q 791 836 771 814 q 811 890 811 857 q 783 949 811 930 q 711 966 755 966 q 570 924 636 966 q 439 810 501 882 q 207 477 315 660 l 100 477 l 100 461 l 199 461 z "},"g":{"ha":616,"x_min":-484,"x_max":791,"o":"m 542 477 l 490 399 l 486 399 q 463 463 486 437 q 383 489 437 489 q 260 454 326 489 q 130 358 192 418 q 32 233 71 301 q -9 97 -8 164 q 16 25 -9 58 q 92 -11 37 -9 q 163 4 127 -11 q 227 41 196 20 q 332 144 288 89 l 335 142 q 235 -7 293 81 q 98 -183 174 -94 q -60 -329 26 -271 q -239 -391 -144 -390 q -358 -359 -311 -391 q -408 -253 -407 -326 q -380 -161 -408 -196 q -301 -127 -355 -127 l -290 -127 l -290 -117 q -332 -111 -307 -111 q -439 -150 -397 -111 q -484 -250 -482 -189 q -416 -364 -482 -321 q -250 -408 -351 -407 q -20 -346 -121 -407 q 151 -210 81 -288 q 267 -69 225 -130 q 317 0 309 -8 q 518 83 372 3 q 660 195 587 125 q 729 273 696 231 q 791 367 762 315 l 786 375 q 591 151 713 253 q 326 17 468 50 l 326 17 q 637 477 479 250 l 542 477 m 380 472 q 439 412 440 469 q 403 277 437 345 q 315 150 368 207 q 214 58 264 93 q 130 22 163 22 q 74 90 75 24 q 106 216 74 150 q 182 340 136 283 q 282 435 229 399 q 380 472 335 471 l 380 472 z "},"h":{"ha":616,"x_min":-81,"x_max":793,"o":"m 538 957 q -81 0 244 500 l 9 0 q 211 286 68 115 q 346 418 279 366 q 464 472 412 471 q 496 465 484 472 q 507 433 507 456 q 475 366 505 408 q 399 271 441 321 q 325 170 358 221 q 290 72 290 117 q 314 12 290 35 q 372 -11 336 -11 q 489 33 425 -9 q 612 136 551 75 q 793 361 739 268 l 785 364 q 611 153 736 283 q 490 52 551 93 q 433 20 461 31 q 379 5 404 5 q 346 41 346 7 q 380 121 346 74 q 454 220 414 167 q 530 321 497 272 q 562 404 561 370 q 477 489 561 489 q 382 463 431 489 q 289 395 333 435 q 142 228 200 306 l 139 231 l 631 961 l 538 957 z "},"i":{"ha":309,"x_min":-9,"x_max":486,"o":"m 233 477 q 47 199 104 286 q -9 56 -9 111 q 9 9 -9 29 q 64 -11 26 -9 q 178 32 115 -9 q 300 134 239 74 q 486 359 429 264 l 475 367 q 297 150 427 281 q 178 49 237 90 q 75 5 118 5 q 46 41 45 5 q 110 170 45 75 q 322 477 172 264 l 233 477 m 403 736 q 372 724 383 736 q 358 690 358 709 q 403 644 359 646 q 447 690 446 646 q 435 724 447 709 q 403 736 422 736 l 403 736 z "},"j":{"ha":309,"x_min":-793,"x_max":489,"o":"m 216 477 l -24 90 q -250 -229 -119 -77 q -391 -345 -317 -301 q -554 -391 -467 -390 q -677 -355 -632 -391 q -726 -239 -725 -319 q -697 -163 -726 -196 q -612 -127 -668 -127 l -603 -127 l -603 -115 q -640 -111 -616 -111 q -743 -146 -697 -111 q -793 -244 -791 -182 q -721 -367 -790 -328 q -562 -408 -652 -408 q -232 -278 -374 -404 q 0 0 -92 -154 q 279 129 154 28 q 489 366 403 231 l 476 371 q 261 134 382 228 q 9 16 139 37 l 9 16 l 302 477 l 216 477 m 389 736 q 358 724 370 736 q 345 690 345 709 q 389 644 346 646 q 433 690 432 646 q 420 724 433 709 q 389 736 408 736 l 389 736 z "},"k":{"ha":616,"x_min":-83,"x_max":791,"o":"m 533 957 q -83 0 224 475 l 8 0 q 101 151 45 71 q 218 302 157 231 q 338 420 281 375 q 432 467 393 465 q 479 410 476 467 q 424 306 477 345 q 285 267 370 267 q 240 269 256 268 q 220 257 218 268 q 240 244 220 244 q 283 250 264 244 q 315 256 302 256 q 339 229 338 256 q 330 197 339 216 q 309 154 322 178 q 289 107 297 130 q 278 62 278 83 q 366 -11 279 -11 q 596 121 464 -9 q 791 357 736 269 l 779 366 q 590 136 675 218 q 375 5 457 5 q 353 32 353 5 q 375 110 354 69 q 395 180 393 147 q 354 260 393 237 l 354 262 q 485 310 419 272 q 536 354 517 329 q 554 412 554 379 q 534 468 554 447 q 468 489 514 488 q 306 415 379 486 q 158 260 229 345 l 155 262 q 619 961 395 602 l 533 957 z "},"l":{"ha":309,"x_min":-11,"x_max":632,"o":"m 534 966 q 104 302 222 475 q 17 155 43 210 q -9 60 -9 101 q 71 -11 -11 -8 q 278 111 147 -12 q 490 362 385 214 l 475 368 q 258 114 368 216 q 160 36 205 64 q 77 5 113 5 q 46 40 46 5 q 69 110 46 65 q 154 249 93 155 q 632 966 271 424 l 534 966 z "},"m":{"ha":926,"x_min":-81,"x_max":1099,"o":"m 9 0 q 204 288 66 119 q 338 418 269 367 q 457 472 404 471 q 496 435 496 472 q 471 372 494 415 q 406 268 446 328 q 321 140 366 210 q 236 0 277 71 l 325 0 q 549 323 414 180 q 673 432 614 391 q 777 472 733 472 q 812 437 811 472 q 781 368 811 411 q 704 271 747 323 q 631 168 664 218 q 596 74 596 115 q 618 14 596 37 q 680 -11 639 -9 q 875 97 768 -8 q 1099 358 983 201 l 1087 364 q 864 107 970 203 q 688 5 758 7 q 651 41 652 5 q 686 121 651 72 q 760 222 720 168 q 836 328 803 278 q 868 415 867 379 q 787 489 868 488 q 694 463 743 489 q 597 395 646 437 q 439 216 500 307 l 436 220 q 505 318 464 257 q 539 375 525 347 q 551 420 551 403 q 530 472 551 456 q 475 489 510 489 q 371 460 420 488 q 273 386 319 432 q 126 216 182 290 l 123 220 l 307 477 l 222 477 q -81 0 69 233 l 9 0 z "},"n":{"ha":616,"x_min":-86,"x_max":793,"o":"m 215 473 q -86 0 81 262 l 0 0 q 200 286 57 115 q 336 418 268 366 q 456 472 403 471 q 496 439 494 472 q 464 359 494 404 q 390 264 432 314 q 317 165 350 214 q 282 72 282 115 q 309 12 282 35 q 375 -11 335 -11 q 501 39 436 -9 q 627 155 564 87 q 793 368 733 275 l 783 374 q 590 136 717 271 q 471 37 522 68 q 376 5 419 5 q 338 45 338 5 q 372 119 338 72 q 446 220 406 167 q 519 323 488 275 q 551 407 550 372 q 529 467 551 443 q 464 489 505 489 q 371 461 418 489 q 278 390 322 433 q 125 221 186 300 l 122 224 l 306 477 l 215 473 z "},"o":{"ha":616,"x_min":17,"x_max":790,"o":"m 779 358 q 632 283 717 285 q 558 311 586 283 q 528 370 530 338 q 494 457 526 425 q 406 489 463 489 q 264 448 332 488 q 139 350 195 410 q 52 229 83 290 q 17 117 17 165 q 49 25 17 60 q 138 -11 79 -9 q 265 24 203 -9 q 379 107 326 56 q 521 328 488 215 l 524 328 q 568 288 539 304 q 633 269 596 269 q 790 351 718 271 l 779 358 m 92 83 q 123 207 92 142 q 200 333 154 273 q 297 433 248 395 q 393 472 349 472 q 453 403 453 469 q 355 154 450 289 q 258 50 311 90 q 147 5 204 5 q 92 83 92 7 l 92 83 z "},"p":{"ha":616,"x_min":-362,"x_max":800,"o":"m 406 747 q -362 -450 18 147 l -277 -450 q 52 69 -85 -126 q 215 302 106 155 q 323 419 268 372 q 425 467 376 465 q 458 453 444 467 q 472 389 472 436 q 437 256 471 325 q 367 140 404 186 q 207 114 296 136 q 138 85 167 104 q 109 33 109 64 q 127 0 109 11 q 165 -11 146 -11 q 240 5 203 -9 q 310 45 277 21 q 425 135 378 94 q 500 153 461 143 q 585 182 539 163 q 685 248 631 204 q 800 366 739 290 l 789 371 q 446 153 636 179 l 443 155 q 521 254 486 197 q 555 383 554 311 q 526 465 554 441 q 450 489 497 489 q 375 471 411 489 q 306 424 339 454 q 196 301 239 362 l 193 304 q 497 747 345 528 l 406 747 m 184 5 q 158 14 170 5 q 144 39 144 22 q 170 81 144 64 q 224 103 192 94 q 292 117 258 111 q 325 121 309 119 q 350 123 340 122 l 353 121 q 282 54 333 96 q 233 21 258 35 q 184 5 208 5 l 184 5 z "},"q":{"ha":616,"x_min":-69,"x_max":794,"o":"m 536 477 l 489 399 l 486 399 q 461 461 486 433 q 387 489 433 488 q 262 452 330 488 q 130 354 195 414 q 28 229 69 294 q -16 101 -14 161 q 11 22 -16 53 q 87 -11 36 -9 q 165 5 129 -9 q 229 45 200 21 q 336 151 289 94 l 339 149 q -69 -450 129 -146 l 20 -450 q 311 1 163 -220 q 602 140 477 36 q 794 359 724 243 l 786 367 q 604 158 718 258 q 321 17 490 57 l 321 17 l 619 477 l 536 477 m 380 472 q 431 453 416 472 q 441 400 441 433 q 406 285 440 351 q 319 157 371 220 q 215 54 268 96 q 123 11 163 11 q 68 79 68 11 q 100 195 68 129 q 176 323 130 260 q 278 429 224 387 q 380 472 332 471 l 380 472 z "},"r":{"ha":463,"x_min":-81,"x_max":639,"o":"m 224 477 q -81 0 66 237 l 9 0 q 119 183 60 115 q 389 435 273 355 l 391 432 q 376 372 376 406 q 475 269 378 271 q 570 302 528 271 q 639 361 610 332 l 631 367 q 568 315 604 342 q 488 286 530 288 q 432 354 435 286 q 456 429 432 396 q 500 486 476 463 q 448 489 476 489 q 416 482 425 489 q 400 458 407 473 q 135 218 232 335 l 132 221 l 309 477 l 224 477 z "},"s":{"ha":463,"x_min":-47,"x_max":637,"o":"m 629 362 q 433 135 553 240 q 163 3 314 28 l 160 5 q 254 58 212 18 q 296 153 294 100 q 286 220 296 189 q 262 275 275 249 q 239 332 250 304 q 228 389 228 359 q 249 448 228 425 q 307 472 268 472 q 357 454 340 472 q 374 407 374 437 q 353 330 372 367 q 414 349 387 330 q 440 400 440 366 q 407 465 439 441 q 315 489 372 489 q 208 456 253 489 q 161 358 161 422 q 192 253 163 310 q 212 197 204 225 q 221 142 221 168 q 193 50 221 90 q 106 5 164 7 q 24 31 58 5 q -14 103 -12 56 q -8 136 -14 121 q 12 160 -1 151 q 49 130 18 132 q 79 146 69 130 q 87 178 87 158 q 40 220 86 220 q -22 192 1 218 q -47 125 -46 164 q 1 24 -46 57 q 114 -11 47 -11 q 422 109 289 -7 q 637 358 554 221 l 629 362 z "},"t":{"ha":386,"x_min":1,"x_max":561,"o":"m 328 639 l 220 477 l 142 477 l 134 461 l 208 461 q 66 248 127 339 q 21 161 37 201 q 1 89 1 122 q 33 17 1 43 q 107 -11 64 -11 q 224 26 164 -9 q 343 117 282 61 q 561 362 465 236 l 553 368 q 349 139 472 260 q 229 45 288 82 q 117 5 168 5 q 75 18 93 5 q 57 53 57 28 q 119 192 57 100 q 290 461 179 283 l 476 461 l 485 477 l 301 477 l 411 639 l 328 639 z "},"u":{"ha":616,"x_min":-22,"x_max":795,"o":"m 231 477 q 49 222 117 319 q -22 57 -21 125 q 61 -11 -22 -7 q 192 40 126 -9 q 315 157 257 89 l 318 154 q 306 122 313 147 q 296 68 296 96 q 319 11 296 32 q 380 -11 343 -9 q 496 36 435 -9 q 616 142 557 79 q 795 362 741 279 l 782 367 q 606 153 728 286 q 490 52 549 93 q 437 20 463 31 q 389 5 412 5 q 362 18 372 5 q 351 46 351 29 q 412 183 350 87 q 623 477 475 278 l 528 477 l 406 292 q 271 130 371 236 q 175 47 224 82 q 85 11 126 11 q 45 54 46 11 q 129 216 46 104 q 322 477 210 328 l 231 477 z "},"v":{"ha":616,"x_min":16,"x_max":799,"o":"m 231 477 q 174 396 208 441 q 103 297 139 347 q 43 199 66 248 q 16 106 16 149 q 136 -11 17 -12 q 261 21 197 -9 q 380 98 323 50 q 536 315 497 201 l 536 315 q 585 286 555 298 q 642 272 612 272 q 734 298 689 272 q 799 362 778 322 l 787 370 q 722 310 761 328 q 643 289 682 289 q 587 302 615 289 q 542 336 557 315 q 547 390 546 361 q 533 468 547 444 q 498 489 518 489 q 472 475 482 489 q 461 444 461 463 q 467 418 461 431 q 472 393 472 404 q 443 282 471 346 q 366 154 414 218 q 261 50 317 92 q 149 5 204 5 q 98 24 114 5 q 82 66 82 41 q 111 167 82 111 q 176 281 138 222 q 321 477 260 403 l 231 477 z "},"w":{"ha":926,"x_min":-3,"x_max":1103,"o":"m 235 477 q 62 244 123 335 q -3 89 -1 153 q 103 -11 -1 -8 q 227 41 165 -9 q 342 167 288 92 l 345 164 q 336 136 342 155 q 328 87 328 115 q 361 14 328 39 q 437 -11 391 -11 q 673 94 554 -8 q 843 315 793 195 l 843 315 q 949 272 886 273 q 1103 357 1055 272 l 1090 366 q 951 289 1051 290 q 890 304 916 289 q 847 335 865 318 q 855 403 854 367 q 846 464 855 440 q 806 489 835 488 q 764 444 764 489 q 781 391 762 420 q 743 265 775 330 q 661 139 711 199 q 558 45 612 82 q 452 5 503 5 q 395 66 395 7 q 424 163 395 107 q 489 278 450 218 q 632 477 575 404 l 536 477 q 315 154 422 296 q 211 47 261 87 q 113 5 161 5 q 64 64 64 5 q 138 229 64 135 q 326 477 208 321 l 235 477 z "},"x":{"ha":694,"x_min":-81,"x_max":872,"o":"m 861 374 q 667 144 799 265 q 543 50 603 87 q 435 11 482 11 q 367 94 366 12 q 399 210 367 146 q 477 333 429 273 q 582 432 526 393 q 684 472 635 471 q 722 431 722 471 q 704 366 721 403 q 724 362 715 362 q 772 380 753 362 q 789 415 789 396 q 764 468 789 447 q 693 489 739 488 q 562 450 622 488 q 468 374 503 414 l 468 374 q 437 463 468 425 q 343 500 406 498 q 237 460 278 498 q 199 418 216 441 q 164 366 180 393 l 176 357 q 237 437 197 395 q 279 471 257 458 q 328 484 302 484 q 378 461 361 484 q 393 404 393 439 q 362 286 393 353 q 282 155 333 220 q 175 50 233 92 q 58 5 115 5 q -21 28 9 5 q -53 86 -52 49 q -36 122 -52 110 q -1 103 -26 103 q 29 117 18 103 q 39 146 39 127 q 29 178 39 165 q -9 192 17 192 q -58 167 -39 191 q -81 106 -79 143 q -43 22 -79 53 q 58 -11 -7 -9 q 201 36 136 -9 q 313 140 267 81 l 315 138 q 300 72 300 109 q 328 14 300 36 q 403 -11 353 -9 q 533 29 464 -9 q 667 126 602 68 q 872 370 803 252 l 861 374 z "},"y":{"ha":616,"x_min":-485,"x_max":789,"o":"m 229 477 q 31 193 93 282 q -32 56 -32 104 q 52 -11 -32 -9 q 142 12 97 -9 q 222 66 184 35 q 293 135 262 98 q 346 195 325 170 l 349 192 q 94 -186 250 20 q -71 -345 17 -282 q -258 -411 -159 -410 q -367 -372 -321 -410 q -418 -267 -416 -336 q -321 -136 -418 -161 l -321 -132 q -435 -164 -389 -130 q -485 -271 -484 -199 q -416 -382 -484 -339 q -260 -428 -354 -427 q -77 -387 -157 -427 q 71 -290 4 -351 q 304 -5 201 -161 q 789 353 576 43 l 779 357 q 314 11 585 71 l 314 11 q 615 477 461 248 l 529 477 q 290 153 412 289 q 178 50 231 87 q 82 11 123 11 q 43 52 43 11 q 69 119 43 78 q 134 216 93 163 q 322 477 218 329 l 229 477 z "},"z":{"ha":541,"x_min":-14,"x_max":721,"o":"m 714 371 q 542 142 639 244 q 450 64 494 93 q 364 33 404 33 q 289 62 333 35 q 243 83 268 75 q 186 92 215 92 q 83 66 139 90 l 81 69 q 399 306 195 144 q 557 435 492 379 q 622 500 621 489 q 614 511 622 511 q 600 501 606 511 q 581 477 593 490 q 549 456 570 465 q 493 444 528 444 q 420 467 463 446 q 318 489 380 488 q 225 452 258 488 q 160 353 192 415 l 170 349 q 212 411 191 380 q 268 444 235 443 q 350 422 309 443 q 422 400 390 401 q 526 433 488 401 l 529 431 q 163 146 329 268 q 36 49 83 87 q -14 1 -12 11 q -5 -8 -14 -7 q 16 3 5 -8 q 36 24 24 12 q 65 46 49 37 q 100 56 82 56 q 205 22 160 53 q 256 0 231 9 q 311 -11 281 -11 q 425 28 367 -9 q 541 122 484 65 q 721 366 659 244 l 714 371 z "},"{":{"ha":541,"x_min":-157,"x_max":815,"o":"m 567 754 q 804 950 680 951 l 815 966 q 737 960 775 966 q 659 928 699 953 q 492 746 581 883 l 314 465 q 221 349 268 391 q 94 285 171 307 q 140 225 139 268 q 86 104 140 182 l -90 -176 q -135 -258 -118 -221 q -154 -325 -154 -296 q -46 -397 -157 -391 l -33 -380 q -72 -362 -57 -379 q -90 -328 -89 -347 q -26 -184 -90 -283 l 142 81 q 204 222 203 171 q 157 283 204 268 l 158 286 q 296 357 241 307 q 399 489 349 407 l 567 754 z "},"|":{"ha":309,"x_min":272,"x_max":319,"o":"m 272 0 l 319 0 l 319 989 l 272 989 l 272 0 z "},"}":{"ha":541,"x_min":-267,"x_max":703,"o":"m -18 -184 q -256 -380 -132 -382 l -267 -397 q -186 -387 -225 -397 q -109 -357 -147 -379 q 57 -176 -31 -314 l 235 104 q 329 222 281 180 q 454 285 378 265 q 408 345 408 301 q 463 465 408 387 l 639 746 q 686 829 669 791 q 703 895 703 867 q 679 945 703 922 q 594 966 654 966 l 582 950 q 623 933 607 949 q 639 897 639 918 q 575 754 639 852 l 407 489 q 345 347 345 399 q 391 286 343 301 l 390 283 q 256 215 307 262 q 150 81 201 165 l -18 -184 z "},"~":{"ha":833,"x_min":196,"x_max":838,"o":"m 787 315 l 787 315 q 736 249 765 278 q 665 215 707 216 q 602 232 637 215 q 524 265 564 248 q 446 297 484 285 q 370 310 406 310 q 260 272 301 309 q 196 191 218 236 l 245 163 l 245 163 q 292 232 261 201 q 379 262 322 261 q 456 249 420 262 q 522 214 490 233 q 591 182 557 195 q 664 168 627 168 q 768 207 728 168 q 807 245 789 225 q 838 288 823 267 l 787 315 z "},"¡":{"ha":463,"x_min":-61,"x_max":433,"o":"m 300 296 q -3 -104 164 83 q -39 -147 -21 -123 q -61 -200 -60 -172 q -47 -232 -60 -220 q -16 -248 -35 -248 q 31 -224 11 -248 q 72 -142 50 -201 q 309 290 171 83 l 300 296 m 382 386 q 419 403 404 386 q 433 437 433 416 q 382 489 431 486 q 347 475 361 489 q 330 437 330 460 q 347 403 330 416 q 382 386 361 386 l 382 386 z "},"¢":{"ha":694,"x_min":153,"x_max":644,"o":"m 622 636 l 541 489 q 407 448 475 486 q 281 354 338 412 q 189 232 224 297 q 153 100 153 164 q 264 -11 153 -8 l 172 -175 l 183 -178 l 277 -11 q 437 36 351 -7 q 583 138 522 79 l 576 146 q 463 66 538 111 q 390 32 427 46 q 321 17 353 17 q 294 21 307 17 l 543 469 q 570 419 570 461 q 561 372 568 393 q 581 370 570 370 q 627 389 608 370 q 644 428 644 407 q 554 489 642 486 l 633 633 l 622 636 m 283 25 q 241 107 241 49 q 268 212 241 150 q 335 332 293 272 q 429 432 376 391 q 532 472 479 471 l 283 25 z "},"£":{"ha":1029,"x_min":-89,"x_max":1344,"o":"m 621 370 q 521 197 578 281 q 375 56 461 113 l 375 56 q 199 113 297 85 q 17 142 100 140 q -58 125 -31 142 q -89 74 -87 109 q -71 37 -87 53 q -25 9 -54 21 q 118 -14 35 -14 q 346 28 254 -11 l 346 28 q 467 -16 397 5 q 604 -39 536 -37 q 991 196 861 -37 l 982 201 q 648 0 873 0 q 396 50 517 0 q 704 370 602 163 l 1050 370 l 1050 386 l 711 386 q 790 542 745 450 q 892 721 833 632 q 1021 872 950 811 q 1175 933 1092 932 q 1314 794 1311 933 q 1247 611 1312 704 q 1177 541 1217 568 q 1089 511 1135 511 q 1019 534 1048 511 q 990 599 990 557 q 1010 671 990 637 q 1055 732 1027 704 q 1179 807 1116 787 l 1177 815 q 1039 736 1100 791 q 993 673 1010 709 q 974 597 974 639 q 1008 522 974 550 q 1090 494 1042 494 q 1186 519 1140 494 q 1267 583 1230 543 q 1344 779 1343 667 q 1300 901 1344 854 q 1169 950 1255 949 q 983 893 1067 949 q 833 749 900 836 q 628 386 704 559 l 231 386 l 231 370 l 621 370 m 3 125 q 146 97 52 123 q 325 33 240 71 q 117 3 233 3 q -20 25 31 3 q -72 74 -71 45 q -50 113 -71 100 q 3 125 -29 125 l 3 125 z "},"∕":{"ha":232,"x_min":-52,"x_max":562,"o":"m -52 -11 l -12 -11 l 562 747 l 522 747 l -52 -11 z "},"¥":{"ha":694,"x_min":135,"x_max":1340,"o":"m 818 420 l 829 437 l 593 437 l 647 522 l 855 522 l 865 539 l 659 539 q 869 817 736 672 q 1018 928 936 884 q 1193 972 1100 970 q 1251 964 1230 972 q 1271 937 1271 954 q 1259 904 1271 918 q 1213 886 1246 889 q 1274 859 1229 859 q 1324 879 1310 859 q 1337 922 1337 899 q 1201 989 1340 983 q 886 873 1010 985 q 684 631 761 765 l 680 633 q 704 707 693 671 q 713 789 713 745 q 656 935 713 879 q 461 989 597 987 q 248 936 351 989 q 168 865 199 909 q 135 755 135 819 q 168 685 135 713 q 241 656 199 656 q 302 675 275 656 q 343 720 328 692 l 338 724 q 313 714 323 718 q 285 708 301 708 q 227 730 249 708 q 201 783 201 751 q 267 916 201 859 q 460 972 330 970 q 530 966 496 972 q 593 941 565 961 q 640 890 623 924 q 657 800 657 855 q 574 539 657 656 l 342 539 l 332 522 l 564 522 l 511 437 l 311 437 l 300 420 l 500 420 q 227 0 339 171 l 333 11 q 437 197 357 71 q 582 420 517 323 l 818 420 z "},"ƒ":{"ha":694,"x_min":57,"x_max":912,"o":"m 477 447 l 333 -43 q 275 -228 311 -134 q 232 -300 257 -272 q 175 -330 207 -329 q 136 -313 149 -329 q 123 -272 123 -296 q 135 -195 123 -231 q 79 -214 98 -195 q 57 -268 57 -236 q 85 -325 57 -306 q 154 -347 110 -346 q 229 -323 196 -346 q 283 -268 261 -301 q 325 -196 307 -233 q 354 -125 342 -157 q 551 447 464 157 l 766 447 l 766 464 l 557 464 q 591 572 568 498 q 647 728 614 646 q 722 868 680 810 q 765 912 743 896 q 808 928 786 928 q 857 865 855 929 q 851 828 857 847 q 828 791 843 807 q 888 812 863 791 q 912 872 911 831 q 886 929 912 908 q 819 950 859 950 q 704 893 757 949 q 606 757 650 839 q 485 464 517 581 l 262 464 l 262 447 l 477 447 z "},"§":{"ha":694,"x_min":-24,"x_max":911,"o":"m 713 989 q 545 930 615 987 q 468 771 469 872 q 486 696 468 736 q 315 642 390 694 q 235 482 236 587 q 265 382 235 432 q 328 279 293 332 q 391 179 366 229 q 419 77 418 126 q 358 -57 418 -14 q 215 -100 297 -100 q 104 -60 146 -98 q 60 41 60 -21 q 140 186 58 138 q 113 195 129 195 q 20 157 58 193 q -24 61 -22 121 q 45 -69 -22 -25 q 210 -117 110 -115 q 406 -57 325 -115 q 486 98 485 0 q 477 170 486 135 q 650 243 578 183 q 724 393 722 302 q 696 496 722 446 q 635 596 669 546 q 574 696 600 646 q 543 795 543 746 q 587 921 543 871 q 707 972 629 970 q 807 943 768 972 q 844 847 843 912 q 832 785 843 807 q 810 750 821 762 q 828 747 819 747 q 888 778 864 747 q 911 842 911 807 q 848 958 909 924 q 713 989 787 989 l 713 989 m 310 509 q 362 632 310 585 q 494 679 412 677 q 546 597 518 636 q 594 519 571 557 q 633 444 618 482 q 648 366 648 406 q 597 244 647 289 q 471 186 547 199 q 431 268 456 229 q 376 342 404 306 q 330 420 349 379 q 310 509 310 461 l 310 509 z "},"¤":{"ha":694,"x_min":227,"x_max":766,"o":"m 227 139 l 269 98 l 269 98 l 325 163 l 325 163 q 498 98 404 97 q 668 163 591 97 l 668 163 l 725 98 l 725 98 l 765 139 l 708 200 q 765 368 765 278 q 707 539 766 463 l 765 597 l 725 637 l 725 637 l 664 578 l 664 578 q 498 637 590 637 q 328 578 406 637 l 328 578 l 269 637 l 269 637 l 227 597 l 288 539 q 240 457 254 501 q 227 368 227 412 q 286 200 227 277 l 227 139 m 496 146 q 345 214 406 147 q 279 368 281 278 q 345 525 281 460 q 496 590 406 589 q 650 525 587 589 q 713 368 711 460 q 650 214 711 278 q 496 146 587 147 l 496 146 z "},"'":{"ha":309,"x_min":293,"x_max":383,"o":"m 379 889 q 379 951 383 916 q 367 979 375 968 q 338 989 357 989 q 297 951 301 987 q 296 889 293 916 l 318 640 q 322 619 319 633 q 338 603 323 604 q 355 619 351 604 q 357 640 357 633 l 379 889 z "},"“":{"ha":541,"x_min":199,"x_max":631,"o":"m 397 822 q 271 753 338 806 q 221 694 240 728 q 199 619 199 660 q 214 579 199 597 q 252 558 229 558 q 307 611 306 558 q 289 650 307 637 q 249 661 271 663 q 271 718 254 693 q 307 758 286 742 q 354 789 330 777 q 399 810 378 802 l 397 822 m 629 822 q 503 753 570 806 q 453 694 472 728 q 431 619 431 660 q 446 579 431 597 q 484 558 461 558 q 539 611 538 558 q 521 650 539 637 q 481 661 503 663 q 503 718 486 693 q 539 758 518 742 q 586 789 562 777 q 631 810 610 802 l 629 822 z "},"«":{"ha":616,"x_min":94,"x_max":578,"o":"m 571 464 q 268 229 422 343 q 437 14 359 126 l 447 18 q 404 127 432 77 q 343 229 375 179 q 578 454 463 339 l 571 464 m 397 464 q 94 229 249 343 q 264 14 186 126 l 273 18 q 231 127 258 77 q 170 229 201 179 q 404 454 289 339 l 397 464 z "},"‹":{"ha":463,"x_min":122,"x_max":431,"o":"m 425 464 q 122 229 277 345 q 292 14 214 126 l 301 18 q 196 228 267 132 q 431 454 317 338 l 425 464 z "},"›":{"ha":463,"x_min":53,"x_max":361,"o":"m 60 14 q 361 249 208 136 q 193 464 269 350 l 183 461 q 227 351 197 403 q 288 249 256 300 q 53 24 167 142 l 60 14 z "},"":{"ha":616,"x_min":-786,"x_max":811,"o":"m 521 461 q 357 224 425 318 q 286 68 288 129 q 309 11 286 32 q 368 -11 329 -9 q 482 32 419 -9 q 604 134 543 74 q 790 359 733 264 l 779 367 q 602 150 730 281 q 482 49 542 90 q 379 5 422 5 q 347 37 349 5 q 376 113 347 64 q 446 224 404 161 q 621 486 536 353 q 439 477 497 479 l 285 477 q 482 786 376 633 q 587 904 534 859 q 692 950 640 949 q 750 889 751 949 q 737 811 749 846 q 791 836 771 814 q 811 890 811 857 q 783 949 811 930 q 711 966 755 966 q 570 924 636 966 q 439 810 501 882 q 207 477 315 660 l 100 477 l 100 461 l 199 461 q -167 -111 9 143 q -355 -304 -258 -232 q -567 -380 -454 -379 q -725 -224 -724 -376 q -696 -142 -724 -171 q -625 -111 -668 -114 l -625 -100 l -637 -100 q -751 -138 -717 -100 q -786 -231 -786 -175 q -720 -354 -785 -313 q -574 -397 -659 -396 q -163 -195 -347 -399 q 272 456 20 8 l 277 461 l 521 461 z "},"":{"ha":616,"x_min":-786,"x_max":922,"o":"m 286 477 q 482 786 376 633 q 587 904 534 859 q 692 950 640 949 q 750 889 751 949 q 729 803 751 844 l 526 477 l 286 477 m 922 966 l 789 943 q 711 966 761 966 q 570 924 636 966 q 439 810 501 882 q 207 477 315 660 l 100 477 l 100 461 l 199 461 q -167 -111 9 143 q -355 -304 -258 -232 q -567 -380 -454 -379 q -725 -224 -724 -376 q -696 -142 -724 -171 q -625 -111 -668 -114 l -625 -100 l -637 -100 q -751 -138 -717 -100 q -786 -231 -786 -175 q -720 -354 -785 -313 q -574 -397 -659 -396 q -163 -195 -347 -399 q 278 461 21 11 l 515 461 l 505 446 q 433 335 469 389 q 364 228 396 278 q 313 135 332 178 q 292 64 292 93 q 313 11 292 32 q 375 -11 332 -9 q 481 32 419 -9 q 603 135 541 74 q 789 362 733 267 l 779 368 q 576 129 701 243 q 465 41 517 77 q 382 5 412 5 q 347 35 347 7 q 407 161 347 64 q 597 461 467 258 l 922 966 l 922 966 z "},"–":{"ha":694,"x_min":-20,"x_max":692,"o":"m 675 220 l 692 258 l -3 258 l -20 220 l 675 220 z "},"†":{"ha":694,"x_min":125,"x_max":913,"o":"m 633 656 l 785 900 q 804 932 795 917 q 811 958 811 946 q 781 989 811 987 q 743 968 761 989 q 700 903 725 947 l 562 656 l 288 656 l 279 639 l 551 639 l 125 -103 l 163 -103 l 621 639 l 905 639 l 913 656 l 633 656 z "},"‡":{"ha":694,"x_min":125,"x_max":913,"o":"m 905 639 l 913 656 l 633 656 l 785 900 q 804 932 795 917 q 811 958 811 946 q 781 989 811 987 q 743 968 761 989 q 700 903 725 947 l 562 656 l 288 656 l 279 639 l 551 639 l 457 475 l 180 475 l 172 458 l 447 458 l 125 -103 l 163 -103 l 510 458 l 799 458 l 807 475 l 519 475 l 621 639 l 905 639 z "},"∙":{"ha":347,"x_min":232,"x_max":335,"o":"m 283 290 q 249 277 262 290 q 232 239 232 261 q 249 204 232 218 q 283 187 262 187 q 321 204 306 187 q 335 239 335 218 q 283 290 332 288 l 283 290 z "},"¶":{"ha":833,"x_min":134,"x_max":1194,"o":"m 205 -231 l 901 925 l 979 925 l 283 -231 l 355 -231 l 1004 847 q 1086 922 1040 905 q 1177 936 1131 937 l 1194 966 l 886 966 q 651 920 751 965 q 482 806 549 873 q 382 667 415 737 q 347 545 347 596 q 511 397 345 397 l 134 -231 l 205 -231 z "},"•":{"ha":694,"x_min":289,"x_max":772,"o":"m 289 484 q 361 314 290 380 q 530 241 428 243 q 703 314 633 243 q 772 484 771 380 q 703 656 771 586 q 530 725 633 724 q 361 656 428 724 q 289 484 290 586 l 289 484 z "},"‚":{"ha":309,"x_min":-17,"x_max":183,"o":"m -16 -167 q 113 -94 47 -147 q 164 -36 144 -69 q 183 36 183 -3 q 170 79 183 60 q 130 97 154 97 q 75 45 77 97 q 94 8 75 18 q 134 -4 113 -4 q 115 -58 130 -35 q 77 -101 100 -83 q 31 -130 54 -118 q -17 -154 5 -144 l -16 -167 z "},"„":{"ha":541,"x_min":-53,"x_max":379,"o":"m 180 -167 q 309 -94 243 -147 q 359 -36 340 -69 q 379 36 379 -3 q 366 79 379 60 q 326 97 350 97 q 271 45 272 97 q 290 8 271 18 q 329 -4 309 -4 q 311 -58 326 -35 q 272 -101 296 -83 q 227 -130 250 -118 q 179 -154 201 -144 l 180 -167 m -52 -167 q 77 -94 11 -147 q 127 -36 109 -69 q 147 36 147 -3 q 134 79 147 60 q 94 97 118 97 q 39 45 40 97 q 58 8 39 18 q 97 -4 77 -4 q 79 -58 94 -35 q 40 -101 64 -83 q -5 -130 18 -118 q -53 -154 -31 -144 l -52 -167 z "},"”":{"ha":541,"x_min":127,"x_max":559,"o":"m 361 553 q 489 625 424 572 q 541 684 521 650 q 559 755 559 717 q 546 799 559 779 q 507 817 530 817 q 452 764 453 817 q 471 728 452 737 q 510 714 489 715 q 492 660 507 684 q 453 618 476 637 q 407 589 431 602 q 359 565 382 575 l 361 553 m 129 553 q 257 625 192 572 q 309 684 289 650 q 328 755 328 717 q 314 799 328 779 q 275 817 298 817 q 220 764 221 817 q 239 728 220 737 q 278 714 257 715 q 260 660 275 684 q 221 618 244 637 q 175 589 199 602 q 127 565 150 575 l 129 553 z "},"»":{"ha":616,"x_min":47,"x_max":528,"o":"m 227 14 q 528 249 378 134 q 359 464 436 350 l 350 461 q 395 351 366 403 q 456 249 422 298 q 221 24 335 143 l 227 14 m 53 14 q 355 249 203 134 q 186 464 262 350 l 176 461 q 221 351 192 403 q 282 249 249 298 q 47 24 161 143 l 53 14 z "},"…":{"ha":1389,"x_min":197,"x_max":1225,"o":"m 249 103 q 214 89 228 103 q 197 52 197 74 q 214 17 197 31 q 249 0 228 0 q 286 17 271 0 q 300 52 300 31 q 249 103 297 100 l 249 103 m 711 103 q 676 89 690 103 q 660 52 660 74 q 676 17 660 31 q 711 0 690 0 q 749 17 733 0 q 762 52 762 31 q 711 103 760 100 l 711 103 m 1173 103 q 1139 89 1153 103 q 1122 52 1122 74 q 1139 17 1122 31 q 1173 0 1153 0 q 1211 17 1196 0 q 1225 52 1225 31 q 1173 103 1222 100 l 1173 103 z "},"‰":{"ha":1569,"x_min":233,"x_max":1625,"o":"m 1507 414 q 1299 326 1397 411 q 1223 236 1251 286 q 1193 127 1193 184 q 1319 0 1194 0 q 1433 32 1379 0 q 1531 109 1486 62 q 1625 298 1622 207 q 1597 379 1625 346 q 1507 414 1569 412 l 1507 414 m 1504 397 q 1564 343 1564 399 q 1486 140 1561 253 q 1409 54 1450 89 q 1318 17 1364 17 q 1254 74 1255 16 q 1279 175 1254 119 q 1337 281 1301 231 q 1418 364 1373 332 q 1504 397 1462 396 l 1504 397 m 1015 414 q 807 326 905 411 q 732 236 760 286 q 701 127 701 184 q 828 0 703 0 q 941 32 888 0 q 1039 109 994 62 q 1133 298 1131 207 q 1105 379 1133 346 q 1015 414 1078 412 l 1015 414 m 1013 397 q 1072 343 1072 399 q 994 140 1069 253 q 917 54 958 89 q 826 17 872 17 q 762 74 764 16 q 787 175 762 119 q 846 281 810 231 q 926 364 882 332 q 1013 397 970 396 l 1013 397 m 890 639 q 492 139 636 319 q 343 -50 345 -43 q 350 -57 343 -57 q 397 -3 354 -56 q 509 130 440 50 q 800 477 652 302 q 917 615 832 514 q 985 699 956 663 q 1013 739 1011 733 q 997 758 1013 757 q 969 750 982 758 q 936 709 956 741 q 878 650 922 688 q 829 622 857 633 q 766 608 800 608 q 707 629 726 608 q 671 675 688 648 q 629 721 656 701 q 546 739 602 739 q 440 713 496 739 q 339 643 386 688 q 264 547 292 600 q 233 440 233 494 q 355 317 236 318 q 465 349 408 317 q 568 427 521 378 q 643 530 615 475 q 669 639 671 586 l 672 642 q 713 607 689 621 q 762 591 736 591 q 835 608 802 591 q 888 642 867 622 l 890 639 m 294 396 q 319 504 294 447 q 379 610 342 561 q 461 692 416 660 q 550 722 505 722 q 608 663 608 721 q 526 458 606 571 q 443 371 489 406 q 349 333 397 333 q 294 396 293 336 l 294 396 z "},"¿":{"ha":616,"x_min":0,"x_max":568,"o":"m 447 310 q 408 264 435 285 q 347 221 380 241 q 214 154 277 182 q 138 111 174 136 q 68 56 100 86 q 20 -9 39 26 q 0 -87 0 -46 q 56 -215 0 -174 q 193 -258 109 -258 q 376 -193 292 -257 q 465 -37 463 -130 q 340 89 463 86 q 271 71 302 89 q 216 24 237 52 l 227 17 q 338 72 275 72 q 407 35 389 71 q 424 -45 424 -3 q 355 -183 420 -127 q 212 -241 289 -240 q 75 -97 77 -239 q 165 103 72 22 q 240 151 200 132 q 321 192 281 172 q 399 240 362 212 q 460 306 435 267 l 447 310 m 517 386 q 554 403 539 386 q 568 437 568 416 q 517 489 565 486 q 482 475 496 489 q 465 437 465 460 q 482 403 465 416 q 517 386 496 386 l 517 386 z "},"`":{"ha":309,"x_min":103,"x_max":293,"o":"m 134 794 q 111 782 119 793 q 103 757 103 771 q 130 696 103 729 q 189 632 154 663 q 252 585 224 603 q 286 564 279 564 q 293 570 293 564 q 243 619 290 581 q 207 661 224 639 q 186 708 189 684 q 171 770 183 746 q 134 794 157 793 l 134 794 z "},"´":{"ha":309,"x_min":244,"x_max":435,"o":"m 404 794 q 370 770 382 793 q 351 708 355 746 q 333 661 349 684 q 297 619 318 639 q 244 570 248 581 q 252 564 244 564 q 288 585 260 564 q 350 632 315 603 q 410 696 385 663 q 435 757 433 729 q 429 782 435 771 q 404 794 420 793 l 404 794 z "},"ˆ":{"ha":309,"x_min":127,"x_max":428,"o":"m 134 564 q 311 713 229 631 l 311 713 q 416 561 350 636 l 428 568 q 350 794 351 677 l 328 794 q 127 574 237 676 l 134 564 z "},"˜":{"ha":309,"x_min":113,"x_max":492,"o":"m 385 633 q 463 663 433 629 q 492 736 490 694 q 485 745 490 745 q 475 732 475 745 q 454 700 473 714 q 403 684 433 684 q 306 709 361 685 q 257 729 281 721 q 216 736 233 736 q 139 703 164 734 q 114 636 114 672 q 119 622 113 622 q 143 652 127 623 q 164 675 151 667 q 195 684 176 684 q 288 659 241 682 q 338 643 313 650 q 385 633 359 633 l 385 633 z "},"¯":{"ha":309,"x_min":121,"x_max":469,"o":"m 182 682 q 121 654 121 680 q 139 646 121 644 l 416 646 q 458 654 447 646 q 468 672 468 661 q 435 682 469 684 l 182 682 z "},"˘":{"ha":309,"x_min":146,"x_max":493,"o":"m 277 633 q 218 651 240 633 q 183 686 196 667 q 155 736 161 733 q 147 718 146 734 q 182 637 147 684 q 228 603 201 616 q 292 586 254 586 q 358 607 323 586 q 422 648 393 625 q 473 696 454 675 q 493 725 493 718 q 486 734 493 734 q 425 685 476 732 q 364 650 400 665 q 277 633 326 633 l 277 633 z "},"˙":{"ha":309,"x_min":254,"x_max":343,"o":"m 309 726 q 254 673 256 725 q 265 643 254 657 q 290 627 273 627 q 329 643 314 627 q 343 677 343 657 q 335 709 343 694 q 309 726 326 725 l 309 726 z "},"¨":{"ha":309,"x_min":157,"x_max":446,"o":"m 411 725 q 357 672 358 724 q 368 642 357 656 q 393 625 376 625 q 432 642 416 625 q 446 676 446 656 q 437 708 446 693 q 411 725 429 724 l 411 725 m 211 725 q 157 672 158 724 q 168 642 157 656 q 193 625 176 625 q 232 642 216 625 q 245 676 245 656 q 237 708 245 693 q 211 725 229 724 l 211 725 z "},"˚":{"ha":309,"x_min":183,"x_max":422,"o":"m 183 640 q 211 576 183 599 q 269 553 235 553 q 378 597 335 553 q 422 699 420 639 q 397 764 420 741 q 336 786 374 786 q 231 743 273 785 q 183 640 183 703 l 183 640 m 389 724 q 353 622 387 675 q 315 582 336 597 q 268 564 293 564 q 216 615 216 565 q 254 718 218 665 q 293 760 272 743 q 338 775 314 775 q 389 724 389 772 l 389 724 z "},"¸":{"ha":309,"x_min":-215,"x_max":87,"o":"m -215 -243 q -110 -256 -164 -257 q 11 -236 -58 -256 q 65 -204 43 -224 q 87 -153 87 -183 q 41 -93 86 -106 q -49 -81 -1 -81 l -3 -5 l -18 -5 l -81 -109 q 3 -117 -21 -107 q 26 -158 26 -126 q -26 -222 24 -207 q -119 -239 -77 -239 q -214 -232 -167 -239 l -215 -243 z "},"˛":{"ha":309,"x_min":-8,"x_max":161,"o":"m 71 -254 q 125 -248 104 -254 q 149 -235 144 -240 q 157 -218 153 -229 q 161 -199 160 -207 q 101 -215 136 -214 q 50 -192 66 -214 q 31 -144 31 -172 q 43 -94 31 -117 q 64 -56 53 -72 q 103 -1 93 -12 q 94 3 101 3 q 81 -8 90 3 q 60 -31 71 -20 q 12 -92 32 -58 q -8 -164 -7 -125 q 14 -228 -7 -201 q 71 -254 33 -253 l 71 -254 z "},"ˇ":{"ha":309,"x_min":171,"x_max":471,"o":"m 465 794 q 288 646 370 729 l 288 646 q 182 797 250 722 l 171 790 q 249 564 248 680 l 271 564 q 471 785 361 684 l 465 794 z "},"—":{"ha":1389,"x_min":-20,"x_max":1386,"o":"m 1369 220 l 1386 258 l -3 258 l -20 220 l 1369 220 z "},"Æ":{"ha":1389,"x_min":117,"x_max":1668,"o":"m 615 729 q 644 688 636 711 q 652 635 652 663 q 581 476 651 553 q 503 418 547 440 q 404 393 457 393 q 279 517 281 393 q 314 631 279 568 q 419 750 347 693 q 610 846 492 807 q 893 883 726 882 q 1128 863 1013 882 l 1128 860 q 916 673 1031 802 q 724 432 800 547 q 643 314 692 382 q 534 175 594 243 q 411 61 476 107 q 279 11 346 12 q 220 25 243 11 q 192 64 196 37 q 212 79 207 64 q 218 103 218 92 q 171 151 216 150 q 132 132 146 151 q 117 85 117 113 q 165 11 118 33 q 253 -11 208 -11 q 410 40 336 -9 q 546 164 484 90 q 663 317 608 239 q 754 452 715 393 q 990 437 865 436 q 884 184 953 306 q 810 90 851 127 q 720 45 768 52 q 647 39 679 40 q 590 33 614 37 q 542 5 542 29 q 578 -8 543 -9 q 676 14 619 -7 q 789 33 733 32 q 920 9 857 33 q 1002 -9 947 3 q 1083 -22 1055 -21 q 1225 16 1158 -21 q 1350 109 1292 52 q 1564 366 1468 229 l 1554 368 q 1341 132 1450 222 q 1044 39 1233 40 q 940 45 993 39 q 833 50 888 50 q 766 45 799 50 l 766 49 q 960 212 886 106 q 1076 437 1034 318 q 1168 447 1104 437 q 1261 460 1229 454 q 1196 272 1219 371 l 1204 269 q 1290 429 1233 357 q 1417 555 1345 500 q 1348 558 1390 557 q 1316 549 1329 558 q 1276 493 1301 536 q 1080 454 1190 460 q 1179 675 1112 565 q 1345 829 1246 782 q 1454 822 1400 822 q 1592 840 1519 821 q 1647 873 1626 851 q 1668 933 1666 896 q 1617 1004 1665 987 q 1522 1017 1569 1018 q 1358 987 1433 1015 q 1217 917 1282 957 q 1017 930 1120 930 q 448 791 633 926 q 262 518 262 660 q 300 412 262 453 q 403 371 336 371 q 583 450 501 372 q 669 629 667 524 q 622 736 668 692 l 615 729 m 1522 1000 q 1614 989 1576 1000 q 1651 935 1650 975 q 1532 880 1654 878 q 1354 895 1439 880 q 1282 905 1314 901 q 1233 912 1250 909 q 1522 1000 1381 1002 l 1522 1000 m 1145 859 q 1321 835 1223 846 l 1321 832 q 996 454 1086 713 q 859 458 926 454 q 802 463 826 461 q 764 468 777 464 q 1145 859 928 705 l 1145 859 z "},"ª":{"ha":370,"x_min":214,"x_max":623,"o":"m 536 692 l 534 692 q 513 730 529 714 q 457 747 494 746 q 379 724 419 747 q 300 664 336 700 q 240 589 264 628 q 215 515 215 549 q 228 469 214 489 q 277 447 240 447 q 362 481 325 448 q 424 532 400 511 l 427 532 q 416 488 418 517 q 467 447 415 448 q 541 473 500 447 l 538 486 q 476 461 500 461 q 453 479 453 461 q 505 582 454 511 q 623 742 555 652 l 565 742 l 536 692 m 460 733 q 504 700 504 734 q 479 629 503 668 q 419 553 456 589 q 350 493 385 517 q 296 467 315 467 q 271 507 269 467 q 292 586 271 546 q 340 659 311 625 q 403 714 371 693 q 460 733 435 733 l 460 733 z "},"Ł":{"ha":772,"x_min":-119,"x_max":1242,"o":"m 939 368 q 429 -110 673 140 l 429 -110 q 374 4 420 -41 q 232 49 326 47 q 176 45 197 47 l 174 47 q 395 193 301 100 q 557 399 485 286 l 819 476 l 819 493 l 572 418 l 570 420 q 697 618 636 521 q 772 615 729 615 q 1107 708 975 618 q 1242 892 1239 794 q 1211 966 1242 941 q 1126 989 1179 989 q 843 878 975 985 q 628 644 709 772 q 481 708 542 652 q 416 843 418 764 q 454 932 416 893 q 547 972 489 970 q 635 953 600 970 l 640 968 q 549 989 604 987 q 444 946 485 987 q 400 843 400 905 q 465 699 401 753 q 615 628 526 643 q 471 389 539 504 l 225 315 l 225 298 l 458 370 l 458 370 q 315 167 389 252 q 153 50 241 82 q -1 41 103 49 q -83 28 -49 37 q -119 0 -118 17 q -107 -16 -118 -11 q -79 -22 -96 -22 q -11 -12 -47 -21 q 56 7 25 -4 q 153 33 123 32 q 294 -12 239 33 q 353 -150 351 -60 q 349 -170 353 -161 q 336 -186 343 -178 q 319 -218 321 -199 q 338 -233 319 -232 q 387 -204 362 -232 q 427 -135 411 -175 q 680 118 521 -29 q 946 359 842 265 l 939 368 m 1111 972 q 1194 890 1193 970 q 1154 779 1193 828 q 1048 699 1112 732 q 775 632 911 632 q 704 635 733 632 q 875 855 765 746 q 990 939 929 907 q 1111 972 1048 970 l 1111 972 z "},"Ø":{"ha":1029,"x_min":216,"x_max":1115,"o":"m 349 100 l 349 100 q 336 165 340 135 q 329 229 329 195 q 475 627 332 408 q 628 795 542 729 q 807 864 713 863 q 913 797 880 863 l 349 100 m 1019 921 l 1019 921 q 829 989 936 990 q 635 921 730 987 q 448 737 539 852 l 461 730 q 623 892 529 815 q 829 972 718 969 q 926 950 884 972 q 991 889 965 926 l 925 808 l 925 808 q 879 861 908 840 q 802 880 848 880 q 603 811 700 879 q 424 636 504 743 q 245 207 250 408 q 301 37 245 113 l 216 -60 l 227 -69 l 313 28 l 313 28 q 372 -9 335 3 q 447 -22 408 -22 q 673 57 561 -21 q 876 248 786 132 q 1078 718 1072 496 q 1071 819 1078 775 q 1027 909 1063 864 l 1115 1013 l 1105 1022 l 1019 921 m 920 781 q 925 730 925 760 q 904 640 924 692 l 920 637 q 941 732 940 679 q 940 766 941 750 q 932 793 939 785 l 997 872 l 997 872 q 1022 745 1022 815 q 852 278 1018 532 q 677 82 775 160 q 472 0 579 1 q 401 24 433 0 q 354 85 368 47 l 920 781 z "},"Œ":{"ha":1389,"x_min":196,"x_max":1579,"o":"m 968 243 q 1061 328 1006 288 q 1173 371 1118 370 q 1282 257 1282 368 q 1190 69 1279 140 q 977 -5 1101 -4 q 812 46 876 -4 q 728 160 750 93 q 972 517 886 318 q 1048 547 1013 533 q 1114 581 1084 561 q 1161 632 1143 602 q 1181 709 1178 663 q 1197 803 1185 757 q 1213 848 1204 826 q 1232 888 1221 869 q 1383 972 1276 969 q 1486 941 1449 972 q 1523 843 1522 908 q 1476 718 1523 768 q 1345 665 1428 667 q 1287 669 1319 664 l 1287 654 q 1347 648 1311 648 q 1504 700 1433 648 q 1579 842 1576 750 q 1523 954 1577 917 q 1398 989 1468 989 q 1173 896 1240 986 q 1097 671 1105 806 q 1069 583 1095 614 q 979 533 1044 551 l 979 533 q 1019 737 1018 632 q 787 983 1018 978 q 585 921 671 982 q 396 743 498 859 l 407 732 q 575 892 486 821 q 772 966 664 964 q 922 897 878 965 q 964 725 964 831 q 916 507 961 612 q 729 407 812 477 q 640 218 643 335 q 657 117 639 172 q 558 40 616 77 q 437 0 498 1 q 315 71 351 1 q 279 215 279 136 q 329 441 281 328 q 447 647 375 554 q 600 800 519 743 q 746 859 679 857 q 871 713 869 859 q 863 625 871 676 l 878 625 q 888 713 886 665 q 855 829 888 785 q 747 875 821 873 q 581 815 672 873 q 400 656 488 755 q 257 437 313 555 q 196 197 197 318 q 249 40 196 100 q 399 -22 301 -21 q 547 16 484 -21 q 665 101 611 50 l 665 101 q 947 -22 736 -20 q 1226 61 1108 -21 q 1348 260 1345 142 q 1301 359 1347 326 q 1193 393 1255 393 q 1064 349 1122 391 q 960 250 1004 304 l 968 243 m 715 239 q 771 399 715 328 q 908 490 823 468 l 908 490 q 831 328 873 408 q 724 176 787 245 q 715 239 715 205 l 715 239 z "},"º":{"ha":370,"x_min":260,"x_max":591,"o":"m 260 524 q 279 469 260 489 q 332 447 298 447 q 431 472 382 447 q 513 532 476 496 q 591 671 590 608 q 572 728 591 707 q 513 747 551 747 q 422 725 467 747 q 340 665 376 701 q 283 591 304 629 q 260 524 260 554 l 260 524 m 542 689 q 481 547 541 625 q 418 488 453 511 q 345 461 382 461 q 310 504 310 463 q 330 579 310 539 q 382 652 350 618 q 447 711 414 689 q 511 733 482 733 q 542 689 542 732 l 542 689 z "},"æ":{"ha":797,"x_min":1,"x_max":966,"o":"m 85 89 q 117 221 85 153 q 193 343 147 286 q 292 437 240 401 q 383 472 343 472 q 446 407 443 471 q 412 279 444 346 q 326 154 378 211 q 224 60 275 97 q 135 22 172 22 q 85 89 85 24 l 85 89 m 745 433 q 715 368 743 397 q 642 313 688 338 q 476 250 547 261 q 579 393 510 318 q 647 450 614 428 q 708 472 680 472 q 745 433 743 472 l 745 433 m 539 477 l 493 396 l 490 396 q 458 461 485 433 q 374 489 429 488 q 252 448 315 488 q 129 349 186 410 q 39 221 74 288 q 1 93 1 153 q 24 21 1 52 q 94 -11 45 -9 q 225 40 155 -9 q 362 175 293 89 l 366 172 q 351 104 351 143 q 471 -11 351 -9 q 618 28 543 -9 q 760 122 692 65 q 966 359 901 244 l 956 367 q 733 122 868 227 q 610 41 669 72 q 500 11 549 11 q 452 41 467 11 q 435 103 435 71 q 469 235 436 176 q 688 311 574 257 q 777 370 742 339 q 811 432 811 401 q 737 489 810 488 q 593 441 664 488 l 590 444 l 615 477 l 539 477 z "},"ı":{"ha":309,"x_min":-9,"x_max":486,"o":"m 233 477 q 47 199 104 286 q -9 56 -9 111 q 9 9 -9 29 q 64 -11 26 -9 q 178 32 115 -9 q 300 134 239 74 q 486 359 429 264 l 475 367 q 297 150 427 281 q 178 49 237 90 q 75 5 118 5 q 46 41 45 5 q 110 170 45 75 q 322 477 172 264 l 233 477 z "},"ł":{"ha":309,"x_min":-11,"x_max":632,"o":"m 567 654 l 567 654 l 364 558 l 361 561 q 632 966 408 628 l 534 966 q 233 500 342 660 l 37 408 l 29 385 l 29 385 l 211 471 l 214 468 q 39 199 89 282 q -9 60 -9 113 q 74 -11 -11 -8 q 281 111 150 -12 q 493 362 387 214 l 477 368 q 261 114 371 216 q 163 36 208 64 q 79 5 115 5 q 46 40 46 5 q 57 86 46 58 q 100 163 69 113 q 342 530 160 258 l 557 631 l 567 654 z "},"ø":{"ha":616,"x_min":-11,"x_max":790,"o":"m 96 50 q 92 83 92 65 q 123 207 92 142 q 200 333 154 273 q 297 433 248 395 q 393 472 349 472 q 432 457 415 472 l 96 50 m 441 446 q 453 403 453 431 q 355 154 450 289 q 258 50 311 90 q 147 5 204 5 q 101 36 114 5 l 441 446 m 528 572 l 453 482 q 406 489 432 489 q 264 448 332 488 q 139 350 195 410 q 52 229 83 290 q 17 117 17 165 q 62 11 17 46 l -11 -77 l -1 -87 l 75 4 q 138 -11 100 -11 q 265 24 203 -9 q 379 107 326 56 q 521 328 488 215 l 524 328 q 568 288 539 304 q 633 269 596 269 q 790 351 718 271 l 779 358 q 632 283 717 285 q 558 311 586 283 q 528 370 530 338 q 467 475 524 444 l 539 562 l 528 572 z "},"œ":{"ha":797,"x_min":17,"x_max":974,"o":"m 92 83 q 123 207 92 142 q 200 333 154 273 q 297 433 248 395 q 393 472 349 472 q 453 403 453 469 q 355 154 450 289 q 258 50 311 90 q 147 5 204 5 q 92 83 92 7 l 92 83 m 750 433 q 721 368 749 397 q 647 313 693 338 q 482 250 553 261 q 585 393 515 318 q 652 450 619 428 q 714 472 686 472 q 750 433 749 472 l 750 433 m 17 117 q 49 25 17 60 q 138 -11 79 -9 q 353 83 254 -8 l 353 83 q 476 -11 366 -9 q 623 28 549 -9 q 765 122 697 65 q 974 359 907 244 l 962 367 q 739 122 872 227 q 615 41 675 72 q 505 11 554 11 q 457 41 472 11 q 440 103 440 71 q 475 235 441 176 q 693 311 579 257 q 782 370 747 339 q 817 432 817 401 q 743 489 815 488 q 522 393 631 486 l 522 393 q 406 489 503 486 q 264 448 332 488 q 139 350 195 410 q 52 229 83 290 q 17 117 17 165 l 17 117 z "},"ß":{"ha":772,"x_min":-791,"x_max":957,"o":"m -604 -106 q -633 -103 -616 -103 q -745 -134 -699 -103 q -791 -232 -790 -165 q -769 -309 -790 -278 q -715 -361 -749 -340 q -562 -400 -644 -400 q -298 -314 -420 -397 q -89 -111 -176 -233 q 387 615 204 317 q 571 842 482 758 q 754 925 660 924 q 839 895 810 925 q 867 815 867 864 q 825 693 867 757 q 680 576 782 629 q 529 492 582 530 q 473 382 473 450 q 504 265 475 326 q 526 207 518 236 q 534 144 534 176 q 504 50 534 92 q 404 5 473 7 q 323 40 350 5 q 297 110 297 72 q 317 164 297 144 q 357 139 330 139 q 403 182 401 139 q 354 228 401 227 q 290 200 314 228 q 267 126 267 172 q 310 32 267 72 q 419 -11 350 -9 q 732 107 603 -8 q 957 361 860 218 l 945 367 q 751 143 861 248 q 493 7 640 39 l 490 9 q 572 68 536 31 q 610 157 608 104 q 602 222 610 191 q 579 282 593 253 q 559 343 568 313 q 549 401 549 372 q 578 496 547 458 q 699 570 610 532 q 917 794 918 660 q 872 900 917 859 q 750 941 828 940 q 524 857 629 940 q 314 629 415 771 q -121 -45 114 333 q -311 -265 -193 -157 q -432 -349 -370 -317 q -559 -383 -494 -382 q -675 -342 -629 -382 q -725 -233 -724 -302 q -604 -119 -724 -117 l -604 -106 z "},"¹":{"ha":416,"x_min":257,"x_max":644,"o":"m 257 292 l 350 306 q 414 407 376 350 q 493 524 452 464 q 644 737 582 648 l 629 741 q 336 597 500 640 l 339 586 q 518 657 446 614 l 521 654 l 257 292 z "},"¬":{"ha":833,"x_min":294,"x_max":772,"o":"m 725 101 l 772 101 l 772 354 l 294 354 l 294 307 l 725 307 l 725 101 z "},"µ":{"ha":616,"x_min":-432,"x_max":795,"o":"m 231 477 l -432 -450 l -338 -450 l -8 16 q 61 -11 9 -9 q 192 40 126 -9 q 315 157 257 89 l 318 154 q 306 122 313 147 q 296 68 296 96 q 319 11 296 32 q 380 -11 343 -9 q 496 36 435 -9 q 616 142 557 79 q 795 362 741 279 l 782 367 q 606 153 728 286 q 490 52 549 93 q 437 20 463 31 q 389 5 412 5 q 362 18 372 5 q 351 46 351 29 q 412 183 350 87 q 623 477 475 278 l 528 477 l 406 292 q 271 130 371 236 q 175 47 224 82 q 85 11 126 11 q 45 54 46 11 q 129 216 46 104 q 322 477 210 328 l 231 477 z "},"™":{"ha":1375,"x_min":175,"x_max":1439,"o":"m 440 947 l 518 947 q 582 917 559 946 q 603 884 594 901 q 614 844 610 865 l 639 844 l 639 966 l 175 966 l 175 844 l 200 844 q 214 884 205 865 q 232 917 222 901 q 296 947 254 946 l 371 947 l 371 500 q 349 450 371 467 q 298 431 326 431 l 298 411 l 515 411 l 515 431 q 440 497 441 431 l 440 947 m 1048 407 l 1061 407 l 1278 843 l 1282 843 l 1282 500 q 1213 431 1282 432 l 1213 411 l 1428 411 l 1428 431 q 1373 446 1393 431 q 1352 500 1352 460 l 1352 863 q 1439 947 1352 940 l 1439 966 l 1310 966 l 1078 519 l 1078 519 l 854 966 l 703 966 l 703 947 q 766 928 734 947 q 800 876 799 908 l 800 505 q 785 454 800 476 q 724 431 770 431 l 724 411 l 904 411 l 904 431 q 846 453 861 431 q 831 509 831 475 l 831 839 l 833 839 l 1048 407 z "},"Ð":{"ha":1235,"x_min":138,"x_max":1394,"o":"m 807 479 q 625 186 717 317 q 408 17 532 54 q 302 37 340 29 q 233 45 267 45 q 180 16 182 46 q 250 -14 180 -14 q 339 -7 306 -14 q 410 4 372 -3 q 507 -14 456 -7 q 643 -22 559 -22 q 1068 147 883 -20 q 1264 565 1258 311 q 1259 652 1264 610 q 1239 739 1254 697 q 1147 889 1211 825 q 1394 1014 1253 987 l 1392 1025 q 1129 904 1246 998 l 1129 904 q 814 997 1021 996 q 326 818 511 991 q 138 467 140 650 q 187 294 138 362 q 330 222 235 224 q 555 336 472 224 q 639 621 637 446 l 639 661 l 622 661 l 622 614 q 549 355 621 463 q 351 244 473 245 q 228 314 261 245 q 193 464 192 378 q 382 835 197 692 q 818 981 561 978 q 1114 892 993 982 q 953 713 1025 817 q 817 496 880 608 l 689 496 q 680 488 679 496 q 689 479 679 479 l 807 479 m 1058 479 q 1067 488 1067 479 q 1058 496 1067 496 l 897 496 q 1132 869 1004 708 l 1132 869 q 1183 777 1166 832 q 1197 664 1197 721 q 1162 436 1197 553 q 1054 220 1128 319 q 875 58 983 121 q 619 -5 765 -4 q 433 8 514 -5 l 433 11 q 699 196 593 66 q 888 479 804 323 l 1058 479 z "},"½":{"ha":1042,"x_min":257,"x_max":1060,"o":"m 982 144 q 933 78 965 113 q 899 50 917 61 q 855 39 878 39 q 778 62 825 40 q 704 85 736 83 q 673 81 688 85 q 647 66 660 74 l 644 69 q 770 126 699 100 q 904 179 838 151 q 1015 249 970 208 q 1060 347 1058 288 q 1017 428 1058 400 q 921 456 975 456 q 802 424 860 456 q 757 382 774 407 q 737 321 737 357 q 758 271 737 290 q 804 252 777 252 q 871 292 844 252 l 865 300 q 832 290 851 290 q 800 306 812 290 q 785 346 785 321 q 818 410 785 380 q 899 439 850 437 q 961 414 940 437 q 982 347 982 387 q 947 248 983 294 q 787 149 907 200 q 533 8 532 39 q 545 0 533 0 q 576 26 554 1 q 606 43 589 37 q 646 50 622 50 q 730 26 692 49 q 771 9 751 17 q 811 0 790 0 q 873 16 844 0 q 924 49 901 28 q 994 143 968 93 l 982 144 m 282 -11 l 321 -11 l 896 747 l 855 747 l 282 -11 m 257 292 l 350 306 q 414 407 376 350 q 493 524 452 464 q 644 737 582 648 l 629 741 q 336 597 500 640 l 339 586 q 518 657 446 614 l 521 654 l 257 292 z "},"±":{"ha":833,"x_min":294,"x_max":772,"o":"m 510 306 l 294 306 l 294 258 l 510 258 l 510 85 l 557 85 l 557 258 l 772 258 l 772 306 l 557 306 l 557 477 l 510 477 l 510 306 m 294 0 l 772 0 l 772 47 l 294 47 l 294 0 z "},"Þ":{"ha":1080,"x_min":126,"x_max":1290,"o":"m 717 733 q 893 920 783 865 q 1141 972 1003 972 l 1210 972 l 1210 969 q 920 779 1044 928 q 692 447 794 629 q 590 281 640 361 q 489 135 541 200 q 386 33 439 72 q 273 -5 332 -4 q 218 11 241 -4 q 187 41 193 25 q 218 57 208 41 q 227 87 227 71 q 215 119 227 107 q 183 130 203 130 q 126 75 127 129 q 172 3 127 25 q 272 -22 216 -22 q 456 31 375 -21 q 597 164 533 82 q 718 343 661 245 q 833 533 774 440 q 930 640 871 591 q 1047 689 989 688 q 1105 664 1092 688 q 1116 611 1116 640 q 1103 533 1116 579 q 1051 439 1086 486 q 956 361 1017 391 q 807 328 896 328 q 743 333 771 328 l 737 319 q 815 311 764 311 q 994 349 922 311 q 1111 435 1068 383 q 1173 542 1156 489 q 1192 636 1192 596 q 1092 736 1190 736 q 978 701 1032 734 q 896 639 925 669 l 893 642 q 1061 848 953 743 q 1172 933 1114 900 q 1290 972 1232 968 l 1290 983 q 1154 989 1227 989 q 843 936 993 990 q 621 733 693 879 l 717 733 z "},"¼":{"ha":1042,"x_min":257,"x_max":1089,"o":"m 1089 431 l 1023 425 l 843 178 l 646 178 l 646 180 l 1078 509 l 1036 509 l 578 153 l 832 153 l 724 0 l 797 8 l 900 153 l 1002 153 l 1008 178 l 911 178 l 1089 431 m 297 -11 l 336 -11 l 911 747 l 871 747 l 297 -11 m 257 292 l 350 306 q 414 407 376 350 q 493 524 452 464 q 644 737 582 648 l 629 741 q 336 597 500 640 l 339 586 q 518 657 446 614 l 521 654 l 257 292 z "},"÷":{"ha":833,"x_min":294,"x_max":772,"o":"m 772 215 l 772 262 l 294 262 l 294 215 l 772 215 m 533 93 q 498 79 513 93 q 482 41 482 64 q 498 7 482 21 q 533 -9 513 -8 q 571 7 555 -8 q 585 41 585 21 q 533 93 582 90 l 533 93 m 533 488 q 498 473 513 488 q 482 436 482 458 q 498 401 482 415 q 533 385 513 385 q 571 401 555 385 q 585 436 585 415 q 533 488 582 485 l 533 488 z "},"¦":{"ha":309,"x_min":272,"x_max":319,"o":"m 272 0 l 319 0 l 319 359 l 272 359 l 272 0 m 272 629 l 319 629 l 319 989 l 272 989 l 272 629 z "},"°":{"ha":555,"x_min":283,"x_max":677,"o":"m 481 350 q 622 408 567 351 q 677 549 676 464 q 622 690 676 635 q 481 747 567 746 q 342 690 396 746 q 283 549 285 635 q 342 408 285 464 q 481 350 396 351 l 481 350 m 481 708 q 590 661 547 707 q 633 549 632 615 q 590 437 632 484 q 481 389 547 390 q 372 437 415 390 q 328 549 328 484 q 372 661 328 615 q 481 708 415 707 l 481 708 z "},"þ":{"ha":616,"x_min":-362,"x_max":787,"o":"m 494 892 q -362 -450 -4 111 l -277 -450 q 72 125 -121 -180 l 75 122 q 71 72 69 100 q 93 14 71 37 q 153 -11 114 -9 q 272 24 214 -9 q 382 107 332 56 q 519 329 488 215 l 522 329 q 567 288 538 302 q 632 269 594 269 q 787 350 715 269 l 779 359 q 631 283 718 285 q 559 310 587 283 q 526 370 529 333 q 494 457 524 425 q 415 489 464 489 q 289 439 347 489 l 286 441 l 600 892 l 494 892 m 453 400 q 357 153 450 288 q 261 50 314 92 q 155 5 208 5 q 90 78 93 5 q 122 196 90 129 q 201 325 153 261 q 304 431 250 389 q 406 472 357 471 q 450 446 443 471 q 453 400 453 420 l 453 400 z "},"¾":{"ha":1042,"x_min":170,"x_max":1144,"o":"m 379 -11 l 418 -11 l 993 747 l 953 747 l 379 -11 m 370 519 q 420 522 396 522 q 500 443 500 521 q 448 343 498 376 q 328 309 399 309 q 254 333 279 309 q 228 395 228 357 q 300 458 228 456 l 301 464 q 253 482 281 481 q 193 457 215 481 q 170 397 170 433 q 220 319 171 345 q 326 292 265 292 q 493 333 420 292 q 567 441 565 374 q 538 509 565 486 q 461 529 509 529 l 461 532 q 600 568 530 538 q 652 606 632 583 q 672 656 672 627 q 642 721 672 694 q 554 747 611 747 q 447 714 492 746 q 412 677 427 699 q 399 633 399 657 q 415 599 399 612 q 454 582 431 582 q 493 593 476 582 q 513 616 511 602 q 481 610 497 610 q 456 623 464 610 q 446 652 446 635 q 473 708 446 685 q 534 730 498 730 q 587 711 572 730 q 600 656 600 690 q 578 591 600 614 q 519 555 555 568 q 444 542 484 546 q 407 538 427 541 q 370 533 386 536 l 370 519 m 1144 431 l 1079 425 l 899 178 l 701 178 l 701 180 l 1133 509 l 1092 509 l 633 153 l 888 153 l 779 0 l 852 8 l 956 153 l 1057 153 l 1064 178 l 966 178 l 1144 431 z "},"²":{"ha":416,"x_min":115,"x_max":643,"o":"m 565 436 q 517 370 549 404 q 482 342 500 353 q 439 330 461 330 q 361 354 408 332 q 288 376 319 375 q 257 372 271 376 q 231 358 243 366 l 228 361 q 353 418 282 391 q 488 471 420 443 q 599 541 554 500 q 643 639 642 579 q 600 720 642 692 q 504 747 558 747 q 385 715 443 747 q 340 673 357 699 q 321 612 321 648 q 342 562 321 582 q 387 543 359 543 q 454 583 428 543 l 448 591 q 415 582 435 582 q 383 597 396 582 q 368 637 368 612 q 401 701 368 672 q 482 730 433 729 q 545 705 524 729 q 565 639 565 679 q 530 539 567 586 q 371 440 490 492 q 117 300 115 330 q 127 292 117 292 q 160 318 138 293 q 189 335 172 329 q 229 342 205 342 q 314 318 275 340 q 354 301 335 309 q 395 292 374 292 q 457 307 428 292 q 507 340 485 319 q 578 435 551 385 l 565 436 z "},"®":{"ha":1111,"x_min":89,"x_max":1100,"o":"m 600 461 q 668 359 639 403 q 715 283 694 314 q 787 221 753 221 l 867 221 l 867 231 q 812 279 844 244 q 747 355 781 314 l 661 472 q 746 529 714 489 q 779 629 778 570 q 726 728 778 697 q 608 757 676 757 l 359 757 l 359 732 q 416 718 393 732 q 439 659 439 703 l 439 321 q 419 262 439 278 q 359 245 399 244 l 359 221 l 590 221 l 590 245 q 517 321 515 245 l 517 461 l 600 461 m 514 732 l 582 732 q 668 709 632 732 q 704 622 703 686 q 587 486 703 486 l 514 486 l 514 732 m 89 484 q 237 126 92 269 q 594 -22 380 -20 q 953 126 810 -20 q 1100 484 1097 269 q 953 842 1097 699 q 594 989 810 986 q 237 842 380 986 q 89 484 92 699 l 89 484 m 1042 484 q 912 161 1039 292 q 594 25 787 28 q 279 161 404 28 q 147 484 149 292 q 279 808 149 677 q 594 941 404 939 q 912 808 787 939 q 1042 484 1039 677 l 1042 484 z "},"−":{"ha":833,"x_min":294,"x_max":772,"o":"m 772 215 l 772 262 l 294 262 l 294 215 l 772 215 z "},"ð":{"ha":616,"x_min":17,"x_max":897,"o":"m 400 708 q 391 700 390 708 q 400 692 390 692 l 528 692 q 521 597 526 656 q 493 457 515 536 q 406 489 463 488 q 264 448 332 488 q 139 350 195 410 q 52 229 83 290 q 17 117 17 165 q 49 25 17 60 q 138 -11 79 -9 q 267 22 204 -9 q 379 106 328 54 q 521 328 485 214 l 524 328 q 568 288 539 304 q 633 269 596 269 q 790 351 718 271 l 779 358 q 632 283 717 285 q 561 310 589 283 q 532 359 532 333 q 581 521 562 432 q 610 692 600 608 l 746 692 q 754 700 754 692 q 746 708 754 708 l 611 708 q 648 893 612 817 q 768 972 686 970 q 843 953 812 970 q 897 911 875 933 l 897 932 q 847 969 879 951 q 770 989 815 987 q 612 925 682 989 q 528 708 543 857 l 400 708 m 92 83 q 123 207 92 142 q 200 333 154 273 q 297 433 248 395 q 393 472 349 472 q 453 403 453 469 q 355 154 450 289 q 258 50 311 90 q 147 5 204 5 q 92 83 92 7 l 92 83 z "},"×":{"ha":833,"x_min":294,"x_max":772,"o":"m 500 239 l 294 33 l 328 0 l 328 0 l 533 205 l 533 205 l 739 0 l 739 0 l 772 33 l 567 239 l 772 444 l 739 477 l 739 477 l 533 272 l 533 272 l 328 477 l 328 477 l 294 444 l 500 239 z "},"³":{"ha":416,"x_min":170,"x_max":672,"o":"m 370 519 q 420 522 396 522 q 500 443 500 521 q 448 343 498 376 q 328 309 399 309 q 254 333 279 309 q 228 395 228 357 q 300 458 228 456 l 301 464 q 253 482 281 481 q 193 457 215 481 q 170 397 170 433 q 220 319 171 345 q 326 292 265 292 q 493 333 420 292 q 567 441 565 374 q 538 509 565 486 q 461 529 509 529 l 461 532 q 600 568 530 538 q 652 606 632 583 q 672 656 672 627 q 642 721 672 694 q 554 747 611 747 q 447 714 492 746 q 412 677 427 699 q 399 633 399 657 q 415 599 399 612 q 454 582 431 582 q 493 593 476 582 q 513 616 511 602 q 481 610 497 610 q 456 623 464 610 q 446 652 446 635 q 473 708 446 685 q 534 730 498 730 q 587 711 572 730 q 600 656 600 690 q 578 591 600 614 q 519 555 555 568 q 444 542 484 546 q 407 538 427 541 q 370 533 386 536 l 370 519 z "},"©":{"ha":1111,"x_min":89,"x_max":1100,"o":"m 819 354 q 761 269 802 307 q 711 241 741 253 q 639 229 680 229 q 460 307 521 231 q 399 500 399 380 q 460 680 401 610 q 627 751 517 750 q 707 741 673 751 q 758 709 741 729 q 787 667 779 690 q 795 616 795 642 l 818 616 l 818 720 q 786 750 818 739 q 725 770 758 761 q 633 777 690 777 q 397 680 475 774 q 318 493 318 591 q 411 269 319 336 q 625 204 500 203 q 718 214 677 204 q 781 228 758 221 q 808 239 797 233 q 817 256 817 244 l 840 354 l 819 354 m 89 484 q 237 126 92 269 q 594 -22 380 -20 q 953 126 810 -20 q 1100 484 1097 269 q 953 842 1097 699 q 594 989 810 986 q 237 842 380 986 q 89 484 92 699 l 89 484 m 1042 484 q 912 161 1039 292 q 594 25 787 28 q 279 161 404 28 q 147 484 149 292 q 279 808 149 677 q 594 941 404 939 q 912 808 787 939 q 1042 484 1039 677 l 1042 484 z "},"ÿ":{"ha":616,"x_min":-485,"x_max":789,"o":"m 229 477 q 31 193 93 282 q -32 56 -32 104 q 52 -11 -32 -9 q 142 12 97 -9 q 222 66 184 35 q 293 135 262 98 q 346 195 325 170 l 349 192 q 94 -186 250 20 q -71 -345 17 -282 q -258 -411 -159 -410 q -367 -372 -321 -410 q -418 -267 -416 -336 q -321 -136 -418 -161 l -321 -132 q -435 -164 -389 -130 q -485 -271 -484 -199 q -416 -382 -484 -339 q -260 -428 -354 -427 q -77 -387 -157 -427 q 71 -290 4 -351 q 304 -5 201 -161 q 789 353 576 43 l 779 357 q 314 11 585 71 l 314 11 q 615 477 461 248 l 529 477 q 290 153 412 289 q 178 50 231 87 q 82 11 123 11 q 43 52 43 11 q 69 119 43 78 q 134 216 93 163 q 322 477 218 329 l 229 477 m 623 725 q 569 672 570 724 q 581 642 569 656 q 606 625 589 625 q 644 642 629 625 q 658 676 658 656 q 650 708 658 693 q 623 725 642 724 l 623 725 m 423 725 q 369 672 370 724 q 380 642 369 656 q 406 625 389 625 q 444 642 429 625 q 458 676 458 656 q 450 708 458 693 q 423 725 441 724 l 423 725 z "},"ý":{"ha":616,"x_min":-485,"x_max":789,"o":"m 229 477 q 31 193 93 282 q -32 56 -32 104 q 52 -11 -32 -9 q 142 12 97 -9 q 222 66 184 35 q 293 135 262 98 q 346 195 325 170 l 349 192 q 94 -186 250 20 q -71 -345 17 -282 q -258 -411 -159 -410 q -367 -372 -321 -410 q -418 -267 -416 -336 q -321 -136 -418 -161 l -321 -132 q -435 -164 -389 -130 q -485 -271 -484 -199 q -416 -382 -484 -339 q -260 -428 -354 -427 q -77 -387 -157 -427 q 71 -290 4 -351 q 304 -5 201 -161 q 789 353 576 43 l 779 357 q 314 11 585 71 l 314 11 q 615 477 461 248 l 529 477 q 290 153 412 289 q 178 50 231 87 q 82 11 123 11 q 43 52 43 11 q 69 119 43 78 q 134 216 93 163 q 322 477 218 329 l 229 477 m 585 794 q 551 770 563 793 q 532 708 536 746 q 514 661 530 684 q 478 619 499 639 q 425 570 429 581 q 433 564 425 564 q 469 585 441 564 q 531 632 496 603 q 591 696 566 663 q 616 757 614 729 q 610 782 616 771 q 585 794 602 793 l 585 794 z "},"ù":{"ha":616,"x_min":-22,"x_max":795,"o":"m 231 477 q 49 222 117 319 q -22 57 -21 125 q 61 -11 -22 -7 q 192 40 126 -9 q 315 157 257 89 l 318 154 q 306 122 313 147 q 296 68 296 96 q 319 11 296 32 q 380 -11 343 -9 q 496 36 435 -9 q 616 142 557 79 q 795 362 741 279 l 782 367 q 606 153 728 286 q 490 52 549 93 q 437 20 463 31 q 389 5 412 5 q 362 18 372 5 q 351 46 351 29 q 412 183 350 87 q 623 477 475 278 l 528 477 l 406 292 q 271 130 371 236 q 175 47 224 82 q 85 11 126 11 q 45 54 46 11 q 129 216 46 104 q 322 477 210 328 l 231 477 m 346 794 q 323 782 332 793 q 315 757 315 771 q 342 696 315 729 q 401 632 366 663 q 464 585 436 603 q 498 564 492 564 q 505 570 505 564 q 455 619 503 581 q 419 661 436 639 q 398 708 401 684 q 383 770 395 746 q 346 794 369 793 l 346 794 z "},"ü":{"ha":616,"x_min":-22,"x_max":795,"o":"m 231 477 q 49 222 117 319 q -22 57 -21 125 q 61 -11 -22 -7 q 192 40 126 -9 q 315 157 257 89 l 318 154 q 306 122 313 147 q 296 68 296 96 q 319 11 296 32 q 380 -11 343 -9 q 496 36 435 -9 q 616 142 557 79 q 795 362 741 279 l 782 367 q 606 153 728 286 q 490 52 549 93 q 437 20 463 31 q 389 5 412 5 q 362 18 372 5 q 351 46 351 29 q 412 183 350 87 q 623 477 475 278 l 528 477 l 406 292 q 271 130 371 236 q 175 47 224 82 q 85 11 126 11 q 45 54 46 11 q 129 216 46 104 q 322 477 210 328 l 231 477 m 625 725 q 571 672 572 724 q 583 642 571 656 q 608 625 591 625 q 646 642 631 625 q 660 676 660 656 q 652 708 660 693 q 625 725 644 724 l 625 725 m 425 725 q 371 672 372 724 q 382 642 371 656 q 408 625 391 625 q 446 642 431 625 q 460 676 460 656 q 452 708 460 693 q 425 725 444 724 l 425 725 z "},"û":{"ha":616,"x_min":-22,"x_max":795,"o":"m 231 477 q 49 222 117 319 q -22 57 -21 125 q 61 -11 -22 -7 q 192 40 126 -9 q 315 157 257 89 l 318 154 q 306 122 313 147 q 296 68 296 96 q 319 11 296 32 q 380 -11 343 -9 q 496 36 435 -9 q 616 142 557 79 q 795 362 741 279 l 782 367 q 606 153 728 286 q 490 52 549 93 q 437 20 463 31 q 389 5 412 5 q 362 18 372 5 q 351 46 351 29 q 412 183 350 87 q 623 477 475 278 l 528 477 l 406 292 q 271 130 371 236 q 175 47 224 82 q 85 11 126 11 q 45 54 46 11 q 129 216 46 104 q 322 477 210 328 l 231 477 m 347 564 q 525 713 443 631 l 525 713 q 630 561 564 636 l 642 568 q 564 794 565 677 l 541 794 q 341 574 451 676 l 347 564 z "},"ú":{"ha":616,"x_min":-22,"x_max":795,"o":"m 231 477 q 49 222 117 319 q -22 57 -21 125 q 61 -11 -22 -7 q 192 40 126 -9 q 315 157 257 89 l 318 154 q 306 122 313 147 q 296 68 296 96 q 319 11 296 32 q 380 -11 343 -9 q 496 36 435 -9 q 616 142 557 79 q 795 362 741 279 l 782 367 q 606 153 728 286 q 490 52 549 93 q 437 20 463 31 q 389 5 412 5 q 362 18 372 5 q 351 46 351 29 q 412 183 350 87 q 623 477 475 278 l 528 477 l 406 292 q 271 130 371 236 q 175 47 224 82 q 85 11 126 11 q 45 54 46 11 q 129 216 46 104 q 322 477 210 328 l 231 477 m 621 794 q 587 770 599 793 q 568 708 572 746 q 550 661 566 684 q 514 619 535 639 q 461 570 465 581 q 469 564 461 564 q 505 585 477 564 q 567 632 532 603 q 627 696 602 663 q 652 757 650 729 q 646 782 652 771 q 621 794 637 793 l 621 794 z "},"š":{"ha":463,"x_min":-47,"x_max":637,"o":"m 629 362 q 433 135 553 240 q 163 3 314 28 l 160 5 q 254 58 212 18 q 296 153 294 100 q 286 220 296 189 q 262 275 275 249 q 239 332 250 304 q 228 389 228 359 q 249 448 228 425 q 307 472 268 472 q 357 454 340 472 q 374 407 374 437 q 353 330 372 367 q 414 349 387 330 q 440 400 440 366 q 407 465 439 441 q 315 489 372 489 q 208 456 253 489 q 161 358 161 422 q 192 253 163 310 q 212 197 204 225 q 221 142 221 168 q 193 50 221 90 q 106 5 164 7 q 24 31 58 5 q -14 103 -12 56 q -8 136 -14 121 q 12 160 -1 151 q 49 130 18 132 q 79 146 69 130 q 87 178 87 158 q 40 220 86 220 q -22 192 1 218 q -47 125 -46 164 q 1 24 -46 57 q 114 -11 47 -11 q 422 109 289 -7 q 637 358 554 221 l 629 362 m 551 794 q 374 646 456 729 l 374 646 q 268 797 336 722 l 257 790 q 335 564 334 680 l 357 564 q 557 785 447 684 l 551 794 z "},"õ":{"ha":616,"x_min":17,"x_max":790,"o":"m 779 358 q 632 283 717 285 q 558 311 586 283 q 528 370 530 338 q 494 457 526 425 q 406 489 463 489 q 264 448 332 488 q 139 350 195 410 q 52 229 83 290 q 17 117 17 165 q 49 25 17 60 q 138 -11 79 -9 q 265 24 203 -9 q 379 107 326 56 q 521 328 488 215 l 524 328 q 568 288 539 304 q 633 269 596 269 q 790 351 718 271 l 779 358 m 92 83 q 123 207 92 142 q 200 333 154 273 q 297 433 248 395 q 393 472 349 472 q 453 403 453 469 q 355 154 450 289 q 258 50 311 90 q 147 5 204 5 q 92 83 92 7 l 92 83 m 549 633 q 627 663 597 629 q 656 736 654 694 q 649 745 654 745 q 639 732 639 745 q 618 700 637 714 q 567 684 597 684 q 470 709 525 685 q 421 729 445 721 q 380 736 397 736 q 303 703 328 734 q 278 636 278 672 q 283 622 277 622 q 307 652 292 623 q 328 675 315 667 q 359 684 340 684 q 452 659 406 682 q 502 643 477 650 q 549 633 524 633 l 549 633 z "},"ò":{"ha":616,"x_min":17,"x_max":790,"o":"m 779 358 q 632 283 717 285 q 558 311 586 283 q 528 370 530 338 q 494 457 526 425 q 406 489 463 489 q 264 448 332 488 q 139 350 195 410 q 52 229 83 290 q 17 117 17 165 q 49 25 17 60 q 138 -11 79 -9 q 265 24 203 -9 q 379 107 326 56 q 521 328 488 215 l 524 328 q 568 288 539 304 q 633 269 596 269 q 790 351 718 271 l 779 358 m 92 83 q 123 207 92 142 q 200 333 154 273 q 297 433 248 395 q 393 472 349 472 q 453 403 453 469 q 355 154 450 289 q 258 50 311 90 q 147 5 204 5 q 92 83 92 7 l 92 83 m 295 794 q 273 782 281 793 q 264 757 264 771 q 292 696 264 729 q 351 632 315 663 q 413 585 385 603 q 448 564 441 564 q 454 570 454 564 q 404 619 452 581 q 368 661 385 639 q 347 708 351 684 q 332 770 345 746 q 295 794 318 793 l 295 794 z "},"ö":{"ha":616,"x_min":17,"x_max":790,"o":"m 779 358 q 632 283 717 285 q 558 311 586 283 q 528 370 530 338 q 494 457 526 425 q 406 489 463 489 q 264 448 332 488 q 139 350 195 410 q 52 229 83 290 q 17 117 17 165 q 49 25 17 60 q 138 -11 79 -9 q 265 24 203 -9 q 379 107 326 56 q 521 328 488 215 l 524 328 q 568 288 539 304 q 633 269 596 269 q 790 351 718 271 l 779 358 m 92 83 q 123 207 92 142 q 200 333 154 273 q 297 433 248 395 q 393 472 349 472 q 453 403 453 469 q 355 154 450 289 q 258 50 311 90 q 147 5 204 5 q 92 83 92 7 l 92 83 m 574 725 q 520 672 522 724 q 532 642 520 656 q 557 625 540 625 q 595 642 580 625 q 609 676 609 656 q 601 708 609 693 q 574 725 593 724 l 574 725 m 374 725 q 320 672 321 724 q 332 642 320 656 q 357 625 340 625 q 395 642 380 625 q 409 676 409 656 q 401 708 409 693 q 374 725 393 724 l 374 725 z "},"ô":{"ha":616,"x_min":17,"x_max":790,"o":"m 779 358 q 632 283 717 285 q 558 311 586 283 q 528 370 530 338 q 494 457 526 425 q 406 489 463 489 q 264 448 332 488 q 139 350 195 410 q 52 229 83 290 q 17 117 17 165 q 49 25 17 60 q 138 -11 79 -9 q 265 24 203 -9 q 379 107 326 56 q 521 328 488 215 l 524 328 q 568 288 539 304 q 633 269 596 269 q 790 351 718 271 l 779 358 m 92 83 q 123 207 92 142 q 200 333 154 273 q 297 433 248 395 q 393 472 349 472 q 453 403 453 469 q 355 154 450 289 q 258 50 311 90 q 147 5 204 5 q 92 83 92 7 l 92 83 m 296 564 q 474 713 392 631 l 474 713 q 579 561 513 636 l 591 568 q 513 794 514 677 l 490 794 q 290 574 400 676 l 296 564 z "},"ó":{"ha":616,"x_min":17,"x_max":790,"o":"m 779 358 q 632 283 717 285 q 558 311 586 283 q 528 370 530 338 q 494 457 526 425 q 406 489 463 489 q 264 448 332 488 q 139 350 195 410 q 52 229 83 290 q 17 117 17 165 q 49 25 17 60 q 138 -11 79 -9 q 265 24 203 -9 q 379 107 326 56 q 521 328 488 215 l 524 328 q 568 288 539 304 q 633 269 596 269 q 790 351 718 271 l 779 358 m 92 83 q 123 207 92 142 q 200 333 154 273 q 297 433 248 395 q 393 472 349 472 q 453 403 453 469 q 355 154 450 289 q 258 50 311 90 q 147 5 204 5 q 92 83 92 7 l 92 83 m 570 794 q 536 770 548 793 q 517 708 522 746 q 499 661 515 684 q 463 619 484 639 q 410 570 414 581 q 418 564 410 564 q 454 585 426 564 q 516 632 481 603 q 576 696 551 663 q 601 757 600 729 q 595 782 601 771 q 570 794 587 793 l 570 794 z "},"ñ":{"ha":616,"x_min":-86,"x_max":793,"o":"m 215 473 q -86 0 81 262 l 0 0 q 200 286 57 115 q 336 418 268 366 q 456 472 403 471 q 496 439 494 472 q 464 359 494 404 q 390 264 432 314 q 317 165 350 214 q 282 72 282 115 q 309 12 282 35 q 375 -11 335 -11 q 501 39 436 -9 q 627 155 564 87 q 793 368 733 275 l 783 374 q 590 136 717 271 q 471 37 522 68 q 376 5 419 5 q 338 45 338 5 q 372 119 338 72 q 446 220 406 167 q 519 323 488 275 q 551 407 550 372 q 529 467 551 443 q 464 489 505 489 q 371 461 418 489 q 278 390 322 433 q 125 221 186 300 l 122 224 l 306 477 l 215 473 m 551 633 q 629 663 600 629 q 658 736 656 694 q 651 745 656 745 q 641 732 641 745 q 621 700 640 714 q 569 684 600 684 q 472 709 527 685 q 423 729 447 721 q 382 736 399 736 q 305 703 330 734 q 280 636 280 672 q 286 622 279 622 q 309 652 294 623 q 330 675 317 667 q 361 684 342 684 q 454 659 408 682 q 504 643 479 650 q 551 633 526 633 l 551 633 z "},"ì":{"ha":309,"x_min":-9,"x_max":486,"o":"m 233 477 q 47 199 104 286 q -9 56 -9 111 q 9 9 -9 29 q 64 -11 26 -9 q 178 32 115 -9 q 300 134 239 74 q 486 359 429 264 l 475 367 q 297 150 427 281 q 178 49 237 90 q 75 5 118 5 q 46 41 45 5 q 110 170 45 75 q 322 477 172 264 l 233 477 m 196 794 q 174 782 182 793 q 165 757 165 771 q 193 696 165 729 q 252 632 216 663 q 314 585 286 603 q 349 564 342 564 q 355 570 355 564 q 305 619 353 581 q 269 661 286 639 q 248 708 252 684 q 233 770 245 746 q 196 794 219 793 l 196 794 z "},"ï":{"ha":309,"x_min":-9,"x_max":486,"o":"m 233 477 q 47 199 104 286 q -9 56 -9 111 q 9 9 -9 29 q 64 -11 26 -9 q 178 32 115 -9 q 300 134 239 74 q 486 359 429 264 l 475 367 q 297 150 427 281 q 178 49 237 90 q 75 5 118 5 q 46 41 45 5 q 110 170 45 75 q 322 477 172 264 l 233 477 m 476 725 q 422 672 423 724 q 433 642 422 656 q 458 625 441 625 q 497 642 481 625 q 511 676 511 656 q 503 708 511 693 q 476 725 494 724 l 476 725 m 276 725 q 222 672 223 724 q 233 642 222 656 q 258 625 241 625 q 297 642 281 625 q 311 676 311 656 q 302 708 311 693 q 276 725 294 724 l 276 725 z "},"î":{"ha":309,"x_min":-9,"x_max":486,"o":"m 233 477 q 47 199 104 286 q -9 56 -9 111 q 9 9 -9 29 q 64 -11 26 -9 q 178 32 115 -9 q 300 134 239 74 q 486 359 429 264 l 475 367 q 297 150 427 281 q 178 49 237 90 q 75 5 118 5 q 46 41 45 5 q 110 170 45 75 q 322 477 172 264 l 233 477 m 197 564 q 375 713 293 631 l 375 713 q 480 561 414 636 l 492 568 q 414 794 415 677 l 391 794 q 191 574 301 676 l 197 564 z "},"í":{"ha":309,"x_min":-9,"x_max":486,"o":"m 233 477 q 47 199 104 286 q -9 56 -9 111 q 9 9 -9 29 q 64 -11 26 -9 q 178 32 115 -9 q 300 134 239 74 q 486 359 429 264 l 475 367 q 297 150 427 281 q 178 49 237 90 q 75 5 118 5 q 46 41 45 5 q 110 170 45 75 q 322 477 172 264 l 233 477 m 472 794 q 437 770 450 793 q 419 708 423 746 q 401 661 416 684 q 365 619 386 639 q 312 570 315 581 q 319 564 312 564 q 355 585 328 564 q 418 632 383 603 q 477 696 452 663 q 503 757 501 729 q 497 782 503 771 q 472 794 488 793 l 472 794 z "},"è":{"ha":463,"x_min":24,"x_max":642,"o":"m 416 433 q 387 368 415 397 q 314 313 359 338 q 149 250 220 261 q 252 393 182 318 q 319 450 286 428 q 380 472 353 472 q 416 433 415 472 l 416 433 m 631 367 q 408 122 543 227 q 285 41 345 72 q 175 11 224 11 q 122 41 139 11 q 107 103 107 71 q 142 235 109 176 q 359 311 245 257 q 448 370 414 339 q 484 432 484 401 q 410 489 482 488 q 282 453 349 488 q 155 358 215 416 q 61 233 98 301 q 24 104 24 165 q 146 -11 25 -9 q 293 28 218 -9 q 435 122 367 65 q 642 359 576 244 l 631 367 m 274 794 q 252 782 260 793 q 243 757 243 771 q 271 696 243 729 q 330 632 294 663 q 392 585 364 603 q 427 564 420 564 q 433 570 433 564 q 383 619 431 581 q 347 661 364 639 q 326 708 330 684 q 311 770 323 746 q 274 794 297 793 l 274 794 z "},"ë":{"ha":463,"x_min":24,"x_max":642,"o":"m 416 433 q 387 368 415 397 q 314 313 359 338 q 149 250 220 261 q 252 393 182 318 q 319 450 286 428 q 380 472 353 472 q 416 433 415 472 l 416 433 m 631 367 q 408 122 543 227 q 285 41 345 72 q 175 11 224 11 q 122 41 139 11 q 107 103 107 71 q 142 235 109 176 q 359 311 245 257 q 448 370 414 339 q 484 432 484 401 q 410 489 482 488 q 282 453 349 488 q 155 358 215 416 q 61 233 98 301 q 24 104 24 165 q 146 -11 25 -9 q 293 28 218 -9 q 435 122 367 65 q 642 359 576 244 l 631 367 m 554 725 q 500 672 501 724 q 511 642 500 656 q 536 625 519 625 q 575 642 559 625 q 589 676 589 656 q 581 708 589 693 q 554 725 572 724 l 554 725 m 354 725 q 300 672 301 724 q 311 642 300 656 q 336 625 319 625 q 375 642 359 625 q 389 676 389 656 q 380 708 389 693 q 354 725 372 724 l 354 725 z "},"ê":{"ha":463,"x_min":24,"x_max":642,"o":"m 416 433 q 387 368 415 397 q 314 313 359 338 q 149 250 220 261 q 252 393 182 318 q 319 450 286 428 q 380 472 353 472 q 416 433 415 472 l 416 433 m 631 367 q 408 122 543 227 q 285 41 345 72 q 175 11 224 11 q 122 41 139 11 q 107 103 107 71 q 142 235 109 176 q 359 311 245 257 q 448 370 414 339 q 484 432 484 401 q 410 489 482 488 q 282 453 349 488 q 155 358 215 416 q 61 233 98 301 q 24 104 24 165 q 146 -11 25 -9 q 293 28 218 -9 q 435 122 367 65 q 642 359 576 244 l 631 367 m 276 564 q 454 713 372 631 l 454 713 q 559 561 492 636 l 570 568 q 492 794 494 677 l 470 794 q 270 574 380 676 l 276 564 z "},"é":{"ha":463,"x_min":24,"x_max":642,"o":"m 416 433 q 387 368 415 397 q 314 313 359 338 q 149 250 220 261 q 252 393 182 318 q 319 450 286 428 q 380 472 353 472 q 416 433 415 472 l 416 433 m 631 367 q 408 122 543 227 q 285 41 345 72 q 175 11 224 11 q 122 41 139 11 q 107 103 107 71 q 142 235 109 176 q 359 311 245 257 q 448 370 414 339 q 484 432 484 401 q 410 489 482 488 q 282 453 349 488 q 155 358 215 416 q 61 233 98 301 q 24 104 24 165 q 146 -11 25 -9 q 293 28 218 -9 q 435 122 367 65 q 642 359 576 244 l 631 367 m 550 794 q 515 770 528 793 q 497 708 501 746 q 479 661 494 684 q 443 619 464 639 q 390 570 393 581 q 397 564 390 564 q 433 585 406 564 q 496 632 461 603 q 555 696 530 663 q 581 757 579 729 q 575 782 581 771 q 550 794 566 793 l 550 794 z "},"ç":{"ha":463,"x_min":17,"x_max":632,"o":"m 622 357 q 406 122 538 228 q 283 45 346 75 q 171 11 220 11 q 119 39 136 11 q 100 101 100 62 q 132 229 100 164 q 205 349 161 293 q 300 439 252 404 q 383 472 347 471 q 432 420 432 472 q 418 362 431 390 q 476 378 447 364 q 507 424 505 391 q 477 475 505 458 q 407 489 447 489 q 278 454 346 489 q 151 359 211 418 q 56 233 92 302 q 17 96 17 164 q 53 17 17 45 q 138 -11 86 -11 q 435 127 285 -7 q 632 349 561 239 l 622 357 m -76 -243 q 29 -256 -25 -257 q 150 -236 81 -256 q 204 -204 182 -224 q 227 -153 227 -183 q 180 -93 225 -106 q 90 -81 138 -81 l 136 -5 l 121 -5 l 58 -109 q 142 -117 118 -107 q 165 -158 165 -126 q 113 -222 163 -207 q 20 -239 62 -239 q -75 -232 -28 -239 l -76 -243 z "},"ã":{"ha":616,"x_min":0,"x_max":795,"o":"m 492 396 l 489 396 q 457 461 484 433 q 372 489 428 488 q 250 448 314 488 q 127 349 184 410 q 37 221 72 288 q 0 93 0 153 q 22 21 0 52 q 93 -11 43 -9 q 222 43 155 -8 q 325 135 288 92 l 328 134 q 309 57 310 96 q 386 -11 309 -8 q 492 28 435 -9 q 603 122 546 65 q 795 368 718 245 l 787 371 q 575 114 686 216 q 477 36 522 64 q 401 5 432 5 q 364 41 364 5 q 446 214 366 94 q 628 477 522 332 l 538 477 l 492 396 m 83 89 q 115 221 83 153 q 192 343 146 286 q 290 437 239 401 q 382 472 342 472 q 444 407 441 471 q 411 279 443 346 q 325 154 376 211 q 222 60 273 97 q 134 22 171 22 q 83 89 83 24 l 83 89 m 581 633 q 659 663 629 629 q 688 736 686 694 q 681 745 686 745 q 671 732 671 745 q 650 700 669 714 q 599 684 629 684 q 502 709 557 685 q 453 729 477 721 q 412 736 429 736 q 335 703 360 734 q 310 636 310 672 q 315 622 309 622 q 339 652 323 623 q 360 675 347 667 q 391 684 372 684 q 484 659 437 682 q 534 643 509 650 q 581 633 555 633 l 581 633 z "},"å":{"ha":616,"x_min":0,"x_max":795,"o":"m 492 396 l 489 396 q 457 461 484 433 q 372 489 428 488 q 250 448 314 488 q 127 349 184 410 q 37 221 72 288 q 0 93 0 153 q 22 21 0 52 q 93 -11 43 -9 q 222 43 155 -8 q 325 135 288 92 l 328 134 q 309 57 310 96 q 386 -11 309 -8 q 492 28 435 -9 q 603 122 546 65 q 795 368 718 245 l 787 371 q 575 114 686 216 q 477 36 522 64 q 401 5 432 5 q 364 41 364 5 q 446 214 366 94 q 628 477 522 332 l 538 477 l 492 396 m 83 89 q 115 221 83 153 q 192 343 146 286 q 290 437 239 401 q 382 472 342 472 q 444 407 441 471 q 411 279 443 346 q 325 154 376 211 q 222 60 273 97 q 134 22 171 22 q 83 89 83 24 l 83 89 m 381 640 q 409 576 381 599 q 467 553 433 553 q 576 597 533 553 q 621 699 618 639 q 595 764 618 741 q 534 786 572 786 q 429 743 471 785 q 381 640 381 703 l 381 640 m 587 724 q 551 622 585 675 q 513 582 534 597 q 466 564 491 564 q 414 615 414 565 q 452 718 416 665 q 491 760 470 743 q 536 775 512 775 q 587 724 587 772 l 587 724 z "},"à":{"ha":616,"x_min":0,"x_max":795,"o":"m 492 396 l 489 396 q 457 461 484 433 q 372 489 428 488 q 250 448 314 488 q 127 349 184 410 q 37 221 72 288 q 0 93 0 153 q 22 21 0 52 q 93 -11 43 -9 q 222 43 155 -8 q 325 135 288 92 l 328 134 q 309 57 310 96 q 386 -11 309 -8 q 492 28 435 -9 q 603 122 546 65 q 795 368 718 245 l 787 371 q 575 114 686 216 q 477 36 522 64 q 401 5 432 5 q 364 41 364 5 q 446 214 366 94 q 628 477 522 332 l 538 477 l 492 396 m 83 89 q 115 221 83 153 q 192 343 146 286 q 290 437 239 401 q 382 472 342 472 q 444 407 441 471 q 411 279 443 346 q 325 154 376 211 q 222 60 273 97 q 134 22 171 22 q 83 89 83 24 l 83 89 m 328 794 q 306 782 314 793 q 298 757 298 771 q 325 696 298 729 q 384 632 349 663 q 446 585 418 603 q 481 564 474 564 q 488 570 488 564 q 437 619 485 581 q 401 661 418 639 q 380 708 384 684 q 366 770 378 746 q 328 794 351 793 l 328 794 z "},"ä":{"ha":616,"x_min":0,"x_max":795,"o":"m 492 396 l 489 396 q 457 461 484 433 q 372 489 428 488 q 250 448 314 488 q 127 349 184 410 q 37 221 72 288 q 0 93 0 153 q 22 21 0 52 q 93 -11 43 -9 q 222 43 155 -8 q 325 135 288 92 l 328 134 q 309 57 310 96 q 386 -11 309 -8 q 492 28 435 -9 q 603 122 546 65 q 795 368 718 245 l 787 371 q 575 114 686 216 q 477 36 522 64 q 401 5 432 5 q 364 41 364 5 q 446 214 366 94 q 628 477 522 332 l 538 477 l 492 396 m 83 89 q 115 221 83 153 q 192 343 146 286 q 290 437 239 401 q 382 472 342 472 q 444 407 441 471 q 411 279 443 346 q 325 154 376 211 q 222 60 273 97 q 134 22 171 22 q 83 89 83 24 l 83 89 m 608 725 q 554 672 555 724 q 566 642 554 656 q 591 625 574 625 q 629 642 614 625 q 643 676 643 656 q 635 708 643 693 q 608 725 627 724 l 608 725 m 408 725 q 354 672 355 724 q 366 642 354 656 q 391 625 374 625 q 429 642 414 625 q 443 676 443 656 q 435 708 443 693 q 408 725 427 724 l 408 725 z "},"â":{"ha":616,"x_min":0,"x_max":795,"o":"m 492 396 l 489 396 q 457 461 484 433 q 372 489 428 488 q 250 448 314 488 q 127 349 184 410 q 37 221 72 288 q 0 93 0 153 q 22 21 0 52 q 93 -11 43 -9 q 222 43 155 -8 q 325 135 288 92 l 328 134 q 309 57 310 96 q 386 -11 309 -8 q 492 28 435 -9 q 603 122 546 65 q 795 368 718 245 l 787 371 q 575 114 686 216 q 477 36 522 64 q 401 5 432 5 q 364 41 364 5 q 446 214 366 94 q 628 477 522 332 l 538 477 l 492 396 m 83 89 q 115 221 83 153 q 192 343 146 286 q 290 437 239 401 q 382 472 342 472 q 444 407 441 471 q 411 279 443 346 q 325 154 376 211 q 222 60 273 97 q 134 22 171 22 q 83 89 83 24 l 83 89 m 330 564 q 508 713 426 631 l 508 713 q 613 561 547 636 l 625 568 q 547 794 548 677 l 524 794 q 324 574 434 676 l 330 564 z "},"á":{"ha":616,"x_min":0,"x_max":795,"o":"m 492 396 l 489 396 q 457 461 484 433 q 372 489 428 488 q 250 448 314 488 q 127 349 184 410 q 37 221 72 288 q 0 93 0 153 q 22 21 0 52 q 93 -11 43 -9 q 222 43 155 -8 q 325 135 288 92 l 328 134 q 309 57 310 96 q 386 -11 309 -8 q 492 28 435 -9 q 603 122 546 65 q 795 368 718 245 l 787 371 q 575 114 686 216 q 477 36 522 64 q 401 5 432 5 q 364 41 364 5 q 446 214 366 94 q 628 477 522 332 l 538 477 l 492 396 m 83 89 q 115 221 83 153 q 192 343 146 286 q 290 437 239 401 q 382 472 342 472 q 444 407 441 471 q 411 279 443 346 q 325 154 376 211 q 222 60 273 97 q 134 22 171 22 q 83 89 83 24 l 83 89 m 604 794 q 570 770 582 793 q 551 708 555 746 q 533 661 549 684 q 497 619 518 639 q 444 570 448 581 q 452 564 444 564 q 488 585 460 564 q 550 632 515 603 q 610 696 585 663 q 635 757 633 729 q 629 782 635 771 q 604 794 621 793 l 604 794 z "},"Ÿ":{"ha":1080,"x_min":-24,"x_max":1405,"o":"m 1311 966 l 949 411 q 692 126 836 241 q 559 39 622 71 q 450 5 497 5 q 416 20 432 5 q 399 66 399 32 q 472 239 400 130 q 629 467 541 346 q 786 699 718 590 q 857 872 855 806 q 722 989 857 990 q 428 864 570 985 q 321 743 362 808 q 277 611 277 676 q 302 529 277 564 q 385 492 328 493 q 501 529 452 493 q 582 612 551 564 l 571 614 q 497 541 539 571 q 390 509 454 509 q 328 538 349 509 q 307 608 307 565 q 350 745 307 679 q 453 861 391 810 q 714 972 586 969 q 782 909 782 970 q 711 730 781 839 q 554 498 643 619 q 397 272 465 378 q 345 175 364 220 q 323 97 323 130 q 440 -11 322 -9 q 554 18 496 -9 q 671 90 612 46 q 875 289 790 184 l 878 286 q 821 201 850 250 q 754 98 790 153 q 599 -125 684 -12 q 424 -310 515 -236 q 229 -389 329 -387 q 103 -346 150 -387 q 52 -231 52 -304 q 85 -118 53 -155 q 157 -83 115 -83 q 256 -110 207 -85 l 261 -98 q 205 -72 237 -83 q 139 -61 174 -61 q 28 -103 74 -61 q -24 -221 -22 -144 q 49 -359 -21 -314 q 211 -406 117 -406 q 541 -265 393 -401 q 810 50 688 -132 l 1405 966 l 1311 966 m 1216 1169 q 1162 1116 1163 1168 q 1173 1086 1162 1100 q 1198 1069 1181 1069 q 1237 1086 1221 1069 q 1251 1120 1251 1100 q 1242 1152 1251 1137 q 1216 1169 1234 1168 l 1216 1169 m 1016 1169 q 962 1116 963 1168 q 973 1086 962 1100 q 998 1069 981 1069 q 1037 1086 1021 1069 q 1050 1120 1050 1100 q 1042 1152 1050 1137 q 1016 1169 1034 1168 l 1016 1169 z "},"Ý":{"ha":1080,"x_min":-24,"x_max":1405,"o":"m 1311 966 l 949 411 q 692 126 836 241 q 559 39 622 71 q 450 5 497 5 q 416 20 432 5 q 399 66 399 32 q 472 239 400 130 q 629 467 541 346 q 786 699 718 590 q 857 872 855 806 q 722 989 857 990 q 428 864 570 985 q 321 743 362 808 q 277 611 277 676 q 302 529 277 564 q 385 492 328 493 q 501 529 452 493 q 582 612 551 564 l 571 614 q 497 541 539 571 q 390 509 454 509 q 328 538 349 509 q 307 608 307 565 q 350 745 307 679 q 453 861 391 810 q 714 972 586 969 q 782 909 782 970 q 711 730 781 839 q 554 498 643 619 q 397 272 465 378 q 345 175 364 220 q 323 97 323 130 q 440 -11 322 -9 q 554 18 496 -9 q 671 90 612 46 q 875 289 790 184 l 878 286 q 821 201 850 250 q 754 98 790 153 q 599 -125 684 -12 q 424 -310 515 -236 q 229 -389 329 -387 q 103 -346 150 -387 q 52 -231 52 -304 q 85 -118 53 -155 q 157 -83 115 -83 q 256 -110 207 -85 l 261 -98 q 205 -72 237 -83 q 139 -61 174 -61 q 28 -103 74 -61 q -24 -221 -22 -144 q 49 -359 -21 -314 q 211 -406 117 -406 q 541 -265 393 -401 q 810 50 688 -132 l 1405 966 l 1311 966 m 1205 1238 q 1171 1214 1183 1237 q 1152 1152 1156 1190 q 1134 1105 1149 1128 q 1098 1063 1119 1083 q 1045 1014 1048 1025 q 1053 1008 1045 1008 q 1088 1029 1061 1008 q 1151 1076 1116 1047 q 1211 1140 1185 1107 q 1236 1201 1234 1173 q 1230 1226 1236 1215 q 1205 1238 1221 1237 l 1205 1238 z "},"Ù":{"ha":1157,"x_min":252,"x_max":1356,"o":"m 1262 966 q 843 317 972 500 q 663 130 786 237 q 543 47 603 82 q 431 11 482 11 q 396 25 411 11 q 378 72 378 39 q 397 150 378 106 q 447 244 416 192 q 597 471 513 350 q 750 700 685 591 q 817 879 815 808 q 781 962 817 933 q 685 989 745 989 q 385 863 513 985 q 289 742 323 807 q 252 610 252 675 q 368 492 253 492 q 473 530 425 492 q 546 610 521 567 l 530 612 q 468 545 509 575 q 370 509 427 510 q 292 539 317 509 q 268 611 268 567 q 306 739 268 675 q 400 854 342 802 q 669 972 522 968 q 728 960 704 972 q 750 911 750 946 q 680 733 749 842 q 528 503 615 625 q 375 269 441 380 q 323 170 343 215 q 302 86 302 122 q 332 16 302 40 q 408 -11 359 -9 q 515 16 461 -9 q 621 77 568 39 q 795 236 726 157 l 799 233 q 770 176 783 210 q 754 110 754 142 q 781 24 754 56 q 865 -11 807 -9 q 986 24 926 -9 q 1105 109 1047 56 q 1335 366 1225 221 l 1324 370 q 1109 130 1230 248 q 993 41 1050 77 q 883 5 935 5 q 821 74 819 7 q 863 197 821 121 q 972 380 901 272 q 1356 966 1118 594 l 1262 966 m 962 1238 q 939 1226 947 1237 q 931 1201 931 1215 q 958 1140 931 1173 q 1017 1076 982 1107 q 1080 1029 1052 1047 q 1114 1008 1107 1008 q 1121 1014 1121 1008 q 1071 1063 1118 1025 q 1035 1105 1052 1083 q 1014 1152 1017 1128 q 999 1214 1011 1190 q 962 1238 985 1237 l 962 1238 z "},"Ü":{"ha":1157,"x_min":252,"x_max":1356,"o":"m 1262 966 q 843 317 972 500 q 663 130 786 237 q 543 47 603 82 q 431 11 482 11 q 396 25 411 11 q 378 72 378 39 q 397 150 378 106 q 447 244 416 192 q 597 471 513 350 q 750 700 685 591 q 817 879 815 808 q 781 962 817 933 q 685 989 745 989 q 385 863 513 985 q 289 742 323 807 q 252 610 252 675 q 368 492 253 492 q 473 530 425 492 q 546 610 521 567 l 530 612 q 468 545 509 575 q 370 509 427 510 q 292 539 317 509 q 268 611 268 567 q 306 739 268 675 q 400 854 342 802 q 669 972 522 968 q 728 960 704 972 q 750 911 750 946 q 680 733 749 842 q 528 503 615 625 q 375 269 441 380 q 323 170 343 215 q 302 86 302 122 q 332 16 302 40 q 408 -11 359 -9 q 515 16 461 -9 q 621 77 568 39 q 795 236 726 157 l 799 233 q 770 176 783 210 q 754 110 754 142 q 781 24 754 56 q 865 -11 807 -9 q 986 24 926 -9 q 1105 109 1047 56 q 1335 366 1225 221 l 1324 370 q 1109 130 1230 248 q 993 41 1050 77 q 883 5 935 5 q 821 74 819 7 q 863 197 821 121 q 972 380 901 272 q 1356 966 1118 594 l 1262 966 m 1213 1169 q 1158 1116 1160 1168 q 1170 1086 1158 1100 q 1195 1069 1178 1069 q 1234 1086 1218 1069 q 1247 1120 1247 1100 q 1239 1152 1247 1137 q 1213 1169 1231 1168 l 1213 1169 m 1013 1169 q 958 1116 960 1168 q 970 1086 958 1100 q 995 1069 978 1069 q 1034 1086 1018 1069 q 1047 1120 1047 1100 q 1039 1152 1047 1137 q 1013 1169 1031 1168 l 1013 1169 z "},"Û":{"ha":1157,"x_min":252,"x_max":1356,"o":"m 1262 966 q 843 317 972 500 q 663 130 786 237 q 543 47 603 82 q 431 11 482 11 q 396 25 411 11 q 378 72 378 39 q 397 150 378 106 q 447 244 416 192 q 597 471 513 350 q 750 700 685 591 q 817 879 815 808 q 781 962 817 933 q 685 989 745 989 q 385 863 513 985 q 289 742 323 807 q 252 610 252 675 q 368 492 253 492 q 473 530 425 492 q 546 610 521 567 l 530 612 q 468 545 509 575 q 370 509 427 510 q 292 539 317 509 q 268 611 268 567 q 306 739 268 675 q 400 854 342 802 q 669 972 522 968 q 728 960 704 972 q 750 911 750 946 q 680 733 749 842 q 528 503 615 625 q 375 269 441 380 q 323 170 343 215 q 302 86 302 122 q 332 16 302 40 q 408 -11 359 -9 q 515 16 461 -9 q 621 77 568 39 q 795 236 726 157 l 799 233 q 770 176 783 210 q 754 110 754 142 q 781 24 754 56 q 865 -11 807 -9 q 986 24 926 -9 q 1105 109 1047 56 q 1335 366 1225 221 l 1324 370 q 1109 130 1230 248 q 993 41 1050 77 q 883 5 935 5 q 821 74 819 7 q 863 197 821 121 q 972 380 901 272 q 1356 966 1118 594 l 1262 966 m 934 1008 q 1112 1157 1029 1075 l 1112 1157 q 1217 1005 1150 1080 l 1228 1013 q 1150 1238 1152 1122 l 1128 1238 q 928 1018 1038 1120 l 934 1008 z "},"Ú":{"ha":1157,"x_min":252,"x_max":1356,"o":"m 1262 966 q 843 317 972 500 q 663 130 786 237 q 543 47 603 82 q 431 11 482 11 q 396 25 411 11 q 378 72 378 39 q 397 150 378 106 q 447 244 416 192 q 597 471 513 350 q 750 700 685 591 q 817 879 815 808 q 781 962 817 933 q 685 989 745 989 q 385 863 513 985 q 289 742 323 807 q 252 610 252 675 q 368 492 253 492 q 473 530 425 492 q 546 610 521 567 l 530 612 q 468 545 509 575 q 370 509 427 510 q 292 539 317 509 q 268 611 268 567 q 306 739 268 675 q 400 854 342 802 q 669 972 522 968 q 728 960 704 972 q 750 911 750 946 q 680 733 749 842 q 528 503 615 625 q 375 269 441 380 q 323 170 343 215 q 302 86 302 122 q 332 16 302 40 q 408 -11 359 -9 q 515 16 461 -9 q 621 77 568 39 q 795 236 726 157 l 799 233 q 770 176 783 210 q 754 110 754 142 q 781 24 754 56 q 865 -11 807 -9 q 986 24 926 -9 q 1105 109 1047 56 q 1335 366 1225 221 l 1324 370 q 1109 130 1230 248 q 993 41 1050 77 q 883 5 935 5 q 821 74 819 7 q 863 197 821 121 q 972 380 901 272 q 1356 966 1118 594 l 1262 966 m 1208 1238 q 1174 1214 1186 1237 q 1156 1152 1160 1190 q 1137 1105 1153 1128 q 1101 1063 1122 1083 q 1048 1014 1052 1025 q 1056 1008 1048 1008 q 1092 1029 1064 1008 q 1154 1076 1120 1047 q 1214 1140 1189 1107 q 1239 1201 1238 1173 q 1234 1226 1239 1215 q 1208 1238 1225 1237 l 1208 1238 z "},"Š":{"ha":772,"x_min":-36,"x_max":1104,"o":"m 45 357 q -12 326 8 357 q -36 244 -36 294 q 43 53 -35 126 q 245 -22 118 -21 q 532 79 408 -25 q 682 464 656 184 q 699 642 688 553 q 732 806 708 730 q 804 926 757 879 q 930 972 851 970 q 1002 949 974 972 q 1029 873 1027 924 q 998 772 1029 814 q 1074 795 1043 772 q 1104 861 1104 817 q 1058 954 1103 918 q 939 989 1014 989 q 689 846 775 987 q 599 456 603 704 q 522 149 599 292 q 416 39 484 81 q 256 -5 351 -4 q 77 50 142 -4 q 8 178 8 103 q 33 268 7 232 q 62 254 45 254 q 109 304 107 256 q 45 357 109 355 l 45 357 m 1126 1238 q 949 1090 1031 1173 l 949 1090 q 843 1241 911 1166 l 832 1234 q 910 1008 909 1124 l 932 1008 q 1132 1229 1022 1128 l 1126 1238 z "},"Õ":{"ha":1080,"x_min":233,"x_max":1254,"o":"m 969 810 q 949 903 970 864 q 855 943 925 941 l 836 943 l 833 946 q 922 972 868 970 q 978 957 957 972 q 1008 917 998 941 q 1022 807 1023 865 q 876 326 1019 547 l 876 326 q 704 648 704 433 q 739 808 704 733 q 812 924 772 880 q 846 926 832 926 q 933 893 912 925 q 953 810 953 859 l 969 810 m 322 203 q 467 648 326 439 q 783 920 603 857 l 786 917 q 705 777 730 851 q 682 637 682 700 q 868 313 684 428 q 696 118 810 215 q 583 43 640 71 q 472 11 525 11 q 408 31 435 11 q 359 75 379 47 q 322 203 322 134 l 322 203 m 1246 375 q 1038 285 1153 286 q 908 310 962 285 q 1031 532 975 403 q 1089 775 1087 659 q 926 989 1090 987 q 860 975 892 989 q 807 940 828 960 q 446 699 640 905 q 296 476 357 599 q 233 222 235 353 q 453 -11 233 -5 q 582 20 518 -9 q 707 94 647 47 q 900 296 829 192 q 960 278 926 285 q 1036 268 993 268 q 1152 296 1092 268 q 1254 366 1211 321 l 1246 375 m 1071 1078 q 1149 1107 1120 1074 q 1178 1180 1177 1139 q 1171 1189 1177 1189 q 1161 1176 1161 1189 q 1141 1144 1160 1158 q 1089 1128 1120 1128 q 992 1154 1047 1129 q 943 1173 967 1165 q 903 1180 920 1180 q 825 1147 850 1179 q 800 1080 800 1116 q 806 1066 799 1066 q 829 1097 814 1067 q 850 1119 838 1111 q 881 1128 863 1128 q 974 1103 928 1126 q 1024 1087 999 1094 q 1071 1078 1046 1078 l 1071 1078 z "},"Ò":{"ha":1080,"x_min":233,"x_max":1254,"o":"m 969 810 q 949 903 970 864 q 855 943 925 941 l 836 943 l 833 946 q 922 972 868 970 q 978 957 957 972 q 1008 917 998 941 q 1022 807 1023 865 q 876 326 1019 547 l 876 326 q 704 648 704 433 q 739 808 704 733 q 812 924 772 880 q 846 926 832 926 q 933 893 912 925 q 953 810 953 859 l 969 810 m 322 203 q 467 648 326 439 q 783 920 603 857 l 786 917 q 705 777 730 851 q 682 637 682 700 q 868 313 684 428 q 696 118 810 215 q 583 43 640 71 q 472 11 525 11 q 408 31 435 11 q 359 75 379 47 q 322 203 322 134 l 322 203 m 1246 375 q 1038 285 1153 286 q 908 310 962 285 q 1031 532 975 403 q 1089 775 1087 659 q 926 989 1090 987 q 860 975 892 989 q 807 940 828 960 q 446 699 640 905 q 296 476 357 599 q 233 222 235 353 q 453 -11 233 -5 q 582 20 518 -9 q 707 94 647 47 q 900 296 829 192 q 960 278 926 285 q 1036 268 993 268 q 1152 296 1092 268 q 1254 366 1211 321 l 1246 375 m 819 1238 q 796 1226 804 1237 q 788 1201 788 1215 q 815 1140 788 1173 q 874 1076 839 1107 q 937 1029 909 1047 q 971 1008 964 1008 q 978 1014 978 1008 q 928 1063 975 1025 q 892 1105 909 1083 q 871 1152 874 1128 q 856 1214 868 1190 q 819 1238 842 1237 l 819 1238 z "},"Ö":{"ha":1080,"x_min":233,"x_max":1254,"o":"m 969 810 q 949 903 970 864 q 855 943 925 941 l 836 943 l 833 946 q 922 972 868 970 q 978 957 957 972 q 1008 917 998 941 q 1022 807 1023 865 q 876 326 1019 547 l 876 326 q 704 648 704 433 q 739 808 704 733 q 812 924 772 880 q 846 926 832 926 q 933 893 912 925 q 953 810 953 859 l 969 810 m 322 203 q 467 648 326 439 q 783 920 603 857 l 786 917 q 705 777 730 851 q 682 637 682 700 q 868 313 684 428 q 696 118 810 215 q 583 43 640 71 q 472 11 525 11 q 408 31 435 11 q 359 75 379 47 q 322 203 322 134 l 322 203 m 1246 375 q 1038 285 1153 286 q 908 310 962 285 q 1031 532 975 403 q 1089 775 1087 659 q 926 989 1090 987 q 860 975 892 989 q 807 940 828 960 q 446 699 640 905 q 296 476 357 599 q 233 222 235 353 q 453 -11 233 -5 q 582 20 518 -9 q 707 94 647 47 q 900 296 829 192 q 960 278 926 285 q 1036 268 993 268 q 1152 296 1092 268 q 1254 366 1211 321 l 1246 375 m 1097 1169 q 1043 1116 1044 1168 q 1055 1086 1043 1100 q 1080 1069 1063 1069 q 1118 1086 1103 1069 q 1132 1120 1132 1100 q 1124 1152 1132 1137 q 1097 1169 1116 1168 l 1097 1169 m 897 1169 q 843 1116 844 1168 q 854 1086 843 1100 q 880 1069 863 1069 q 918 1086 903 1069 q 932 1120 932 1100 q 924 1152 932 1137 q 897 1169 916 1168 l 897 1169 z "},"Ô":{"ha":1080,"x_min":233,"x_max":1254,"o":"m 969 810 q 949 903 970 864 q 855 943 925 941 l 836 943 l 833 946 q 922 972 868 970 q 978 957 957 972 q 1008 917 998 941 q 1022 807 1023 865 q 876 326 1019 547 l 876 326 q 704 648 704 433 q 739 808 704 733 q 812 924 772 880 q 846 926 832 926 q 933 893 912 925 q 953 810 953 859 l 969 810 m 322 203 q 467 648 326 439 q 783 920 603 857 l 786 917 q 705 777 730 851 q 682 637 682 700 q 868 313 684 428 q 696 118 810 215 q 583 43 640 71 q 472 11 525 11 q 408 31 435 11 q 359 75 379 47 q 322 203 322 134 l 322 203 m 1246 375 q 1038 285 1153 286 q 908 310 962 285 q 1031 532 975 403 q 1089 775 1087 659 q 926 989 1090 987 q 860 975 892 989 q 807 940 828 960 q 446 699 640 905 q 296 476 357 599 q 233 222 235 353 q 453 -11 233 -5 q 582 20 518 -9 q 707 94 647 47 q 900 296 829 192 q 960 278 926 285 q 1036 268 993 268 q 1152 296 1092 268 q 1254 366 1211 321 l 1246 375 m 819 1008 q 996 1157 914 1075 l 996 1157 q 1101 1005 1035 1080 l 1113 1013 q 1035 1238 1036 1122 l 1013 1238 q 812 1018 922 1120 l 819 1008 z "},"Ó":{"ha":1080,"x_min":233,"x_max":1254,"o":"m 969 810 q 949 903 970 864 q 855 943 925 941 l 836 943 l 833 946 q 922 972 868 970 q 978 957 957 972 q 1008 917 998 941 q 1022 807 1023 865 q 876 326 1019 547 l 876 326 q 704 648 704 433 q 739 808 704 733 q 812 924 772 880 q 846 926 832 926 q 933 893 912 925 q 953 810 953 859 l 969 810 m 322 203 q 467 648 326 439 q 783 920 603 857 l 786 917 q 705 777 730 851 q 682 637 682 700 q 868 313 684 428 q 696 118 810 215 q 583 43 640 71 q 472 11 525 11 q 408 31 435 11 q 359 75 379 47 q 322 203 322 134 l 322 203 m 1246 375 q 1038 285 1153 286 q 908 310 962 285 q 1031 532 975 403 q 1089 775 1087 659 q 926 989 1090 987 q 860 975 892 989 q 807 940 828 960 q 446 699 640 905 q 296 476 357 599 q 233 222 235 353 q 453 -11 233 -5 q 582 20 518 -9 q 707 94 647 47 q 900 296 829 192 q 960 278 926 285 q 1036 268 993 268 q 1152 296 1092 268 q 1254 366 1211 321 l 1246 375 m 1093 1238 q 1059 1214 1071 1237 q 1040 1152 1044 1190 q 1022 1105 1038 1128 q 986 1063 1007 1083 q 933 1014 937 1025 q 941 1008 933 1008 q 977 1029 949 1008 q 1039 1076 1004 1047 q 1099 1140 1074 1107 q 1124 1201 1122 1173 q 1118 1226 1124 1215 q 1093 1238 1109 1237 l 1093 1238 z "},"Ñ":{"ha":1003,"x_min":-94,"x_max":1511,"o":"m 1394 754 q 1475 806 1440 770 q 1511 888 1510 839 q 1483 953 1511 928 q 1407 978 1455 977 q 1221 886 1316 977 q 1025 646 1122 794 q 757 129 872 396 l 754 132 q 779 309 779 231 q 753 568 777 452 q 726 797 728 686 q 732 875 726 844 q 742 926 736 905 q 764 989 754 962 q 707 947 725 987 q 684 878 688 908 q 403 326 575 615 q 227 103 319 191 q 35 11 134 12 q -3 21 9 11 q -18 37 -17 31 q -3 52 -7 40 q 0 71 0 62 q -41 113 -1 111 q -94 61 -92 110 q -56 5 -93 22 q 12 -11 -21 -11 q 227 85 126 -8 q 410 311 326 176 q 659 797 579 602 l 661 797 q 660 697 660 746 q 686 424 661 559 q 713 149 709 286 q 696 -11 713 69 l 705 -11 q 1036 636 861 354 q 1189 825 1095 728 q 1283 901 1235 872 q 1376 930 1332 929 q 1444 868 1442 929 q 1433 811 1444 840 q 1394 762 1421 781 l 1394 754 m 1182 1078 q 1260 1107 1231 1074 q 1289 1180 1288 1139 q 1282 1189 1288 1189 q 1272 1176 1272 1189 q 1252 1144 1271 1158 q 1200 1128 1231 1128 q 1103 1154 1158 1129 q 1055 1173 1078 1165 q 1014 1180 1031 1180 q 937 1147 962 1179 q 911 1080 911 1116 q 917 1066 910 1066 q 941 1097 925 1067 q 962 1119 949 1111 q 992 1128 974 1128 q 1085 1103 1039 1126 q 1135 1087 1110 1094 q 1182 1078 1157 1078 l 1182 1078 z "},"Ì":{"ha":848,"x_min":-21,"x_max":1339,"o":"m -21 150 q 3 74 -21 107 q 58 20 25 40 q 214 -22 132 -22 q 559 117 412 -20 q 821 460 705 250 q 1043 799 943 673 q 1215 928 1144 926 q 1315 933 1289 928 q 1339 951 1339 939 q 1315 966 1337 968 q 1247 956 1301 965 q 1100 941 1193 941 q 590 873 848 950 q 391 771 469 835 q 311 612 313 707 q 362 494 311 534 q 494 452 412 452 q 660 513 593 453 q 729 656 728 572 q 721 708 728 685 l 705 705 q 713 652 713 686 q 646 526 711 579 q 498 468 582 469 q 378 590 380 469 q 465 771 379 704 q 676 871 550 839 q 933 917 803 905 q 1158 925 1064 925 l 1158 922 q 1035 847 1093 899 q 922 730 975 795 q 747 488 815 594 q 668 358 717 437 q 551 193 618 277 q 401 54 485 111 q 216 -5 318 -4 q 83 36 130 -4 q 47 125 36 75 q 85 138 71 122 q 98 174 98 151 q 47 222 97 221 q -1 201 16 221 q -21 150 -21 180 l -21 150 m 921 1238 q 899 1226 907 1237 q 890 1201 890 1215 q 918 1140 890 1173 q 977 1076 941 1107 q 1039 1029 1011 1047 q 1074 1008 1067 1008 q 1080 1014 1080 1008 q 1030 1063 1078 1025 q 994 1105 1011 1083 q 973 1152 977 1128 q 958 1214 970 1190 q 921 1238 944 1237 l 921 1238 z "},"Ï":{"ha":848,"x_min":-21,"x_max":1339,"o":"m -21 150 q 3 74 -21 107 q 58 20 25 40 q 214 -22 132 -22 q 559 117 412 -20 q 821 460 705 250 q 1043 799 943 673 q 1215 928 1144 926 q 1315 933 1289 928 q 1339 951 1339 939 q 1315 966 1337 968 q 1247 956 1301 965 q 1100 941 1193 941 q 590 873 848 950 q 391 771 469 835 q 311 612 313 707 q 362 494 311 534 q 494 452 412 452 q 660 513 593 453 q 729 656 728 572 q 721 708 728 685 l 705 705 q 713 652 713 686 q 646 526 711 579 q 498 468 582 469 q 378 590 380 469 q 465 771 379 704 q 676 871 550 839 q 933 917 803 905 q 1158 925 1064 925 l 1158 922 q 1035 847 1093 899 q 922 730 975 795 q 747 488 815 594 q 668 358 717 437 q 551 193 618 277 q 401 54 485 111 q 216 -5 318 -4 q 83 36 130 -4 q 47 125 36 75 q 85 138 71 122 q 98 174 98 151 q 47 222 97 221 q -1 201 16 221 q -21 150 -21 180 l -21 150 m 1201 1169 q 1147 1116 1148 1168 q 1158 1086 1147 1100 q 1183 1069 1166 1069 q 1222 1086 1206 1069 q 1236 1120 1236 1100 q 1227 1152 1236 1137 q 1201 1169 1219 1168 l 1201 1169 m 1001 1169 q 947 1116 948 1168 q 958 1086 947 1100 q 983 1069 966 1069 q 1022 1086 1006 1069 q 1036 1120 1036 1100 q 1027 1152 1036 1137 q 1001 1169 1019 1168 l 1001 1169 z "},"Î":{"ha":848,"x_min":-21,"x_max":1339,"o":"m -21 150 q 3 74 -21 107 q 58 20 25 40 q 214 -22 132 -22 q 559 117 412 -20 q 821 460 705 250 q 1043 799 943 673 q 1215 928 1144 926 q 1315 933 1289 928 q 1339 951 1339 939 q 1315 966 1337 968 q 1247 956 1301 965 q 1100 941 1193 941 q 590 873 848 950 q 391 771 469 835 q 311 612 313 707 q 362 494 311 534 q 494 452 412 452 q 660 513 593 453 q 729 656 728 572 q 721 708 728 685 l 705 705 q 713 652 713 686 q 646 526 711 579 q 498 468 582 469 q 378 590 380 469 q 465 771 379 704 q 676 871 550 839 q 933 917 803 905 q 1158 925 1064 925 l 1158 922 q 1035 847 1093 899 q 922 730 975 795 q 747 488 815 594 q 668 358 717 437 q 551 193 618 277 q 401 54 485 111 q 216 -5 318 -4 q 83 36 130 -4 q 47 125 36 75 q 85 138 71 122 q 98 174 98 151 q 47 222 97 221 q -1 201 16 221 q -21 150 -21 180 l -21 150 m 922 1008 q 1100 1157 1018 1075 l 1100 1157 q 1205 1005 1139 1080 l 1217 1013 q 1139 1238 1140 1122 l 1116 1238 q 916 1018 1026 1120 l 922 1008 z "},"Í":{"ha":848,"x_min":-21,"x_max":1339,"o":"m -21 150 q 3 74 -21 107 q 58 20 25 40 q 214 -22 132 -22 q 559 117 412 -20 q 821 460 705 250 q 1043 799 943 673 q 1215 928 1144 926 q 1315 933 1289 928 q 1339 951 1339 939 q 1315 966 1337 968 q 1247 956 1301 965 q 1100 941 1193 941 q 590 873 848 950 q 391 771 469 835 q 311 612 313 707 q 362 494 311 534 q 494 452 412 452 q 660 513 593 453 q 729 656 728 572 q 721 708 728 685 l 705 705 q 713 652 713 686 q 646 526 711 579 q 498 468 582 469 q 378 590 380 469 q 465 771 379 704 q 676 871 550 839 q 933 917 803 905 q 1158 925 1064 925 l 1158 922 q 1035 847 1093 899 q 922 730 975 795 q 747 488 815 594 q 668 358 717 437 q 551 193 618 277 q 401 54 485 111 q 216 -5 318 -4 q 83 36 130 -4 q 47 125 36 75 q 85 138 71 122 q 98 174 98 151 q 47 222 97 221 q -1 201 16 221 q -21 150 -21 180 l -21 150 m 1197 1238 q 1162 1214 1175 1237 q 1144 1152 1148 1190 q 1126 1105 1141 1128 q 1090 1063 1111 1083 q 1037 1014 1040 1025 q 1044 1008 1037 1008 q 1080 1029 1053 1008 q 1143 1076 1108 1047 q 1202 1140 1177 1107 q 1227 1201 1226 1173 q 1222 1226 1227 1215 q 1197 1238 1213 1237 l 1197 1238 z "},"È":{"ha":926,"x_min":125,"x_max":1022,"o":"m 475 250 q 559 335 507 297 q 668 372 611 371 q 774 248 775 371 q 745 139 772 184 q 667 62 715 93 q 458 0 565 0 q 282 71 349 1 q 214 228 214 138 q 240 358 214 304 q 309 444 267 410 q 404 505 351 479 q 510 553 456 530 q 603 700 604 596 q 650 878 602 787 q 718 946 675 921 q 819 972 760 972 q 961 850 958 974 q 920 737 961 799 q 868 692 899 709 q 794 671 836 671 q 733 677 754 671 l 732 663 q 794 654 751 656 q 949 705 878 654 q 1022 847 1019 754 q 961 957 1021 924 q 833 989 904 989 q 594 897 673 986 q 514 684 514 808 q 503 581 514 607 q 441 534 488 553 q 325 481 382 509 q 224 414 268 452 q 125 205 126 342 q 444 -22 129 -16 q 717 69 590 -20 q 812 160 777 110 q 848 257 848 208 q 811 351 848 315 q 699 389 774 387 q 465 257 550 385 l 475 250 m 717 1238 q 694 1226 703 1237 q 686 1201 686 1215 q 713 1140 686 1173 q 772 1076 737 1107 q 835 1029 807 1047 q 869 1008 863 1008 q 876 1014 876 1008 q 826 1063 873 1025 q 790 1105 807 1083 q 769 1152 772 1128 q 754 1214 766 1190 q 717 1238 740 1237 l 717 1238 z "},"Ë":{"ha":926,"x_min":125,"x_max":1022,"o":"m 475 250 q 559 335 507 297 q 668 372 611 371 q 774 248 775 371 q 745 139 772 184 q 667 62 715 93 q 458 0 565 0 q 282 71 349 1 q 214 228 214 138 q 240 358 214 304 q 309 444 267 410 q 404 505 351 479 q 510 553 456 530 q 603 700 604 596 q 650 878 602 787 q 718 946 675 921 q 819 972 760 972 q 961 850 958 974 q 920 737 961 799 q 868 692 899 709 q 794 671 836 671 q 733 677 754 671 l 732 663 q 794 654 751 656 q 949 705 878 654 q 1022 847 1019 754 q 961 957 1021 924 q 833 989 904 989 q 594 897 673 986 q 514 684 514 808 q 503 581 514 607 q 441 534 488 553 q 325 481 382 509 q 224 414 268 452 q 125 205 126 342 q 444 -22 129 -16 q 717 69 590 -20 q 812 160 777 110 q 848 257 848 208 q 811 351 848 315 q 699 389 774 387 q 465 257 550 385 l 475 250 m 997 1169 q 943 1116 944 1168 q 954 1086 943 1100 q 979 1069 962 1069 q 1018 1086 1002 1069 q 1031 1120 1031 1100 q 1023 1152 1031 1137 q 997 1169 1015 1168 l 997 1169 m 797 1169 q 743 1116 744 1168 q 754 1086 743 1100 q 779 1069 762 1069 q 818 1086 802 1069 q 831 1120 831 1100 q 823 1152 831 1137 q 797 1169 815 1168 l 797 1169 z "},"Ê":{"ha":926,"x_min":125,"x_max":1022,"o":"m 475 250 q 559 335 507 297 q 668 372 611 371 q 774 248 775 371 q 745 139 772 184 q 667 62 715 93 q 458 0 565 0 q 282 71 349 1 q 214 228 214 138 q 240 358 214 304 q 309 444 267 410 q 404 505 351 479 q 510 553 456 530 q 603 700 604 596 q 650 878 602 787 q 718 946 675 921 q 819 972 760 972 q 961 850 958 974 q 920 737 961 799 q 868 692 899 709 q 794 671 836 671 q 733 677 754 671 l 732 663 q 794 654 751 656 q 949 705 878 654 q 1022 847 1019 754 q 961 957 1021 924 q 833 989 904 989 q 594 897 673 986 q 514 684 514 808 q 503 581 514 607 q 441 534 488 553 q 325 481 382 509 q 224 414 268 452 q 125 205 126 342 q 444 -22 129 -16 q 717 69 590 -20 q 812 160 777 110 q 848 257 848 208 q 811 351 848 315 q 699 389 774 387 q 465 257 550 385 l 475 250 m 719 1008 q 897 1157 814 1075 l 897 1157 q 1002 1005 935 1080 l 1013 1013 q 935 1238 937 1122 l 913 1238 q 713 1018 823 1120 l 719 1008 z "},"É":{"ha":926,"x_min":125,"x_max":1022,"o":"m 475 250 q 559 335 507 297 q 668 372 611 371 q 774 248 775 371 q 745 139 772 184 q 667 62 715 93 q 458 0 565 0 q 282 71 349 1 q 214 228 214 138 q 240 358 214 304 q 309 444 267 410 q 404 505 351 479 q 510 553 456 530 q 603 700 604 596 q 650 878 602 787 q 718 946 675 921 q 819 972 760 972 q 961 850 958 974 q 920 737 961 799 q 868 692 899 709 q 794 671 836 671 q 733 677 754 671 l 732 663 q 794 654 751 656 q 949 705 878 654 q 1022 847 1019 754 q 961 957 1021 924 q 833 989 904 989 q 594 897 673 986 q 514 684 514 808 q 503 581 514 607 q 441 534 488 553 q 325 481 382 509 q 224 414 268 452 q 125 205 126 342 q 444 -22 129 -16 q 717 69 590 -20 q 812 160 777 110 q 848 257 848 208 q 811 351 848 315 q 699 389 774 387 q 465 257 550 385 l 475 250 m 993 1238 q 958 1214 970 1237 q 940 1152 944 1190 q 922 1105 937 1128 q 886 1063 907 1083 q 833 1014 836 1025 q 840 1008 833 1008 q 876 1029 848 1008 q 939 1076 904 1047 q 998 1140 973 1107 q 1023 1201 1022 1173 q 1018 1226 1023 1215 q 993 1238 1009 1237 l 993 1238 z "},"Ç":{"ha":926,"x_min":200,"x_max":1145,"o":"m 742 772 q 741 734 741 754 q 783 647 745 673 q 875 621 819 621 q 1063 686 982 622 q 1145 847 1143 749 q 972 989 1145 987 q 732 921 864 987 q 479 742 600 854 q 282 497 359 631 q 200 228 201 362 q 214 147 200 191 q 258 65 228 104 q 339 4 289 28 q 458 -22 387 -21 q 753 100 652 -17 q 854 319 854 212 q 682 472 854 475 l 684 456 q 804 342 802 454 q 703 109 802 215 q 464 -5 606 -1 q 330 64 371 -3 q 289 211 288 127 q 362 492 290 357 q 443 621 397 558 q 541 734 488 682 q 765 908 648 844 q 978 972 882 970 q 1065 953 1034 972 q 1096 873 1096 930 q 1025 708 1093 775 q 876 637 956 639 q 795 661 831 637 q 757 739 757 684 q 758 772 757 757 l 742 772 m 158 -243 q 263 -256 209 -257 q 384 -236 315 -256 q 438 -204 416 -224 q 460 -153 460 -183 q 414 -93 459 -106 q 324 -81 372 -81 l 370 -5 l 355 -5 l 292 -109 q 376 -117 352 -107 q 399 -158 399 -126 q 347 -222 397 -207 q 254 -239 296 -239 q 159 -232 206 -239 l 158 -243 z "},"Ã":{"ha":1311,"x_min":119,"x_max":1491,"o":"m 1019 432 q 970 290 991 364 q 954 215 961 253 q 947 136 947 176 q 978 35 947 77 q 1071 -11 1007 -9 q 1178 26 1124 -9 q 1286 117 1232 61 q 1491 364 1396 235 l 1482 368 q 1311 164 1429 292 q 1201 65 1257 107 q 1104 22 1147 22 q 1046 54 1061 22 q 1031 125 1031 82 q 1075 340 1031 221 q 1185 582 1118 460 q 1476 983 1326 838 l 1472 989 q 1255 883 1360 956 q 1061 721 1152 811 q 795 416 879 530 q 534 142 672 261 q 403 52 468 85 q 275 17 336 17 q 231 24 252 17 q 195 49 207 31 q 215 65 207 53 q 221 89 221 77 q 174 140 220 138 q 136 125 149 140 q 121 83 121 107 q 146 24 119 56 q 260 -11 172 -9 q 400 28 326 -9 q 545 125 471 64 q 829 432 692 254 l 1019 432 m 840 448 q 1095 734 960 603 q 1373 939 1227 864 l 1376 936 q 1026 448 1147 709 l 840 448 m 1581 1078 q 1659 1107 1630 1074 q 1689 1180 1687 1139 q 1682 1189 1687 1189 q 1672 1176 1672 1189 q 1651 1144 1670 1158 q 1600 1128 1630 1128 q 1503 1154 1558 1129 q 1454 1173 1478 1165 q 1413 1180 1430 1180 q 1336 1147 1361 1179 q 1311 1080 1311 1116 q 1316 1066 1310 1066 q 1340 1097 1324 1067 q 1361 1119 1348 1111 q 1392 1128 1373 1128 q 1485 1103 1438 1126 q 1535 1087 1510 1094 q 1581 1078 1556 1078 l 1581 1078 z "},"Å":{"ha":1311,"x_min":119,"x_max":1491,"o":"m 1019 432 q 970 290 991 364 q 954 215 961 253 q 947 136 947 176 q 978 35 947 77 q 1071 -11 1007 -9 q 1178 26 1124 -9 q 1286 117 1232 61 q 1491 364 1396 235 l 1482 368 q 1311 164 1429 292 q 1201 65 1257 107 q 1104 22 1147 22 q 1046 54 1061 22 q 1031 125 1031 82 q 1075 340 1031 221 q 1185 582 1118 460 q 1476 983 1326 838 l 1472 989 q 1255 883 1360 956 q 1061 721 1152 811 q 795 416 879 530 q 534 142 672 261 q 403 52 468 85 q 275 17 336 17 q 231 24 252 17 q 195 49 207 31 q 215 65 207 53 q 221 89 221 77 q 174 140 220 138 q 136 125 149 140 q 121 83 121 107 q 146 24 119 56 q 260 -11 172 -9 q 400 28 326 -9 q 545 125 471 64 q 829 432 692 254 l 1019 432 m 840 448 q 1095 734 960 603 q 1373 939 1227 864 l 1376 936 q 1026 448 1147 709 l 840 448 m 1381 1084 q 1409 1021 1381 1043 q 1467 997 1432 997 q 1575 1042 1533 997 q 1620 1143 1618 1083 q 1595 1208 1618 1185 q 1534 1230 1571 1230 q 1428 1187 1471 1229 q 1381 1084 1381 1147 l 1381 1084 m 1586 1168 q 1550 1066 1585 1119 q 1513 1026 1534 1042 q 1466 1008 1491 1008 q 1414 1059 1414 1009 q 1452 1162 1416 1109 q 1491 1204 1470 1187 q 1535 1219 1512 1219 q 1586 1168 1586 1217 l 1586 1168 z "},"À":{"ha":1311,"x_min":119,"x_max":1491,"o":"m 1019 432 q 970 290 991 364 q 954 215 961 253 q 947 136 947 176 q 978 35 947 77 q 1071 -11 1007 -9 q 1178 26 1124 -9 q 1286 117 1232 61 q 1491 364 1396 235 l 1482 368 q 1311 164 1429 292 q 1201 65 1257 107 q 1104 22 1147 22 q 1046 54 1061 22 q 1031 125 1031 82 q 1075 340 1031 221 q 1185 582 1118 460 q 1476 983 1326 838 l 1472 989 q 1255 883 1360 956 q 1061 721 1152 811 q 795 416 879 530 q 534 142 672 261 q 403 52 468 85 q 275 17 336 17 q 231 24 252 17 q 195 49 207 31 q 215 65 207 53 q 221 89 221 77 q 174 140 220 138 q 136 125 149 140 q 121 83 121 107 q 146 24 119 56 q 260 -11 172 -9 q 400 28 326 -9 q 545 125 471 64 q 829 432 692 254 l 1019 432 m 840 448 q 1095 734 960 603 q 1373 939 1227 864 l 1376 936 q 1026 448 1147 709 l 840 448 m 1328 1238 q 1305 1226 1314 1237 q 1297 1201 1297 1215 q 1324 1140 1297 1173 q 1383 1076 1348 1107 q 1446 1029 1418 1047 q 1480 1008 1474 1008 q 1487 1014 1487 1008 q 1437 1063 1485 1025 q 1401 1105 1418 1083 q 1380 1152 1383 1128 q 1365 1214 1377 1190 q 1328 1238 1351 1237 l 1328 1238 z "},"Ä":{"ha":1311,"x_min":119,"x_max":1491,"o":"m 1019 432 q 970 290 991 364 q 954 215 961 253 q 947 136 947 176 q 978 35 947 77 q 1071 -11 1007 -9 q 1178 26 1124 -9 q 1286 117 1232 61 q 1491 364 1396 235 l 1482 368 q 1311 164 1429 292 q 1201 65 1257 107 q 1104 22 1147 22 q 1046 54 1061 22 q 1031 125 1031 82 q 1075 340 1031 221 q 1185 582 1118 460 q 1476 983 1326 838 l 1472 989 q 1255 883 1360 956 q 1061 721 1152 811 q 795 416 879 530 q 534 142 672 261 q 403 52 468 85 q 275 17 336 17 q 231 24 252 17 q 195 49 207 31 q 215 65 207 53 q 221 89 221 77 q 174 140 220 138 q 136 125 149 140 q 121 83 121 107 q 146 24 119 56 q 260 -11 172 -9 q 400 28 326 -9 q 545 125 471 64 q 829 432 692 254 l 1019 432 m 840 448 q 1095 734 960 603 q 1373 939 1227 864 l 1376 936 q 1026 448 1147 709 l 840 448 m 1608 1169 q 1554 1116 1555 1168 q 1565 1086 1554 1100 q 1590 1069 1573 1069 q 1629 1086 1613 1069 q 1643 1120 1643 1100 q 1634 1152 1643 1137 q 1608 1169 1626 1168 l 1608 1169 m 1408 1169 q 1354 1116 1355 1168 q 1365 1086 1354 1100 q 1390 1069 1373 1069 q 1429 1086 1413 1069 q 1442 1120 1442 1100 q 1434 1152 1442 1137 q 1408 1169 1426 1168 l 1408 1169 z "},"Â":{"ha":1311,"x_min":119,"x_max":1491,"o":"m 1019 432 q 970 290 991 364 q 954 215 961 253 q 947 136 947 176 q 978 35 947 77 q 1071 -11 1007 -9 q 1178 26 1124 -9 q 1286 117 1232 61 q 1491 364 1396 235 l 1482 368 q 1311 164 1429 292 q 1201 65 1257 107 q 1104 22 1147 22 q 1046 54 1061 22 q 1031 125 1031 82 q 1075 340 1031 221 q 1185 582 1118 460 q 1476 983 1326 838 l 1472 989 q 1255 883 1360 956 q 1061 721 1152 811 q 795 416 879 530 q 534 142 672 261 q 403 52 468 85 q 275 17 336 17 q 231 24 252 17 q 195 49 207 31 q 215 65 207 53 q 221 89 221 77 q 174 140 220 138 q 136 125 149 140 q 121 83 121 107 q 146 24 119 56 q 260 -11 172 -9 q 400 28 326 -9 q 545 125 471 64 q 829 432 692 254 l 1019 432 m 840 448 q 1095 734 960 603 q 1373 939 1227 864 l 1376 936 q 1026 448 1147 709 l 840 448 m 1329 1008 q 1507 1157 1425 1075 l 1507 1157 q 1612 1005 1546 1080 l 1624 1013 q 1546 1238 1547 1122 l 1523 1238 q 1323 1018 1433 1120 l 1329 1008 z "},"Á":{"ha":1311,"x_min":119,"x_max":1491,"o":"m 1019 432 q 970 290 991 364 q 954 215 961 253 q 947 136 947 176 q 978 35 947 77 q 1071 -11 1007 -9 q 1178 26 1124 -9 q 1286 117 1232 61 q 1491 364 1396 235 l 1482 368 q 1311 164 1429 292 q 1201 65 1257 107 q 1104 22 1147 22 q 1046 54 1061 22 q 1031 125 1031 82 q 1075 340 1031 221 q 1185 582 1118 460 q 1476 983 1326 838 l 1472 989 q 1255 883 1360 956 q 1061 721 1152 811 q 795 416 879 530 q 534 142 672 261 q 403 52 468 85 q 275 17 336 17 q 231 24 252 17 q 195 49 207 31 q 215 65 207 53 q 221 89 221 77 q 174 140 220 138 q 136 125 149 140 q 121 83 121 107 q 146 24 119 56 q 260 -11 172 -9 q 400 28 326 -9 q 545 125 471 64 q 829 432 692 254 l 1019 432 m 840 448 q 1095 734 960 603 q 1373 939 1227 864 l 1376 936 q 1026 448 1147 709 l 840 448 m 1604 1238 q 1569 1214 1581 1237 q 1551 1152 1555 1190 q 1533 1105 1548 1128 q 1497 1063 1518 1083 q 1444 1014 1447 1025 q 1451 1008 1444 1008 q 1487 1029 1459 1008 q 1550 1076 1515 1047 q 1609 1140 1584 1107 q 1634 1201 1633 1173 q 1629 1226 1634 1215 q 1604 1238 1620 1237 l 1604 1238 z "}}}
